<svg width="241" height="48" viewBox="0 0 241 48" fill="none" xmlns="http://www.w3.org/2000/svg">
<g clip-path="url(#clip0_87_4028)">
<rect width="241" height="48" fill="#FF7120"/>
<path d="M28.4344 25.0156H23.7625V28.2266H29.2234V30H21.5594V18.625H29.2V20.4141H23.7625V23.2812H28.4344V25.0156ZM34.0953 22.7031L36.1187 18.625H38.6969L35.4937 24.2656L38.775 30H36.2125L34.1266 25.8594L32.0484 30H29.4547L32.7359 24.2656L29.5406 18.625H32.1031L34.0953 22.7031ZM41.3891 25.8281V30H39.1937V18.625H43.0844C43.7042 18.625 44.2641 18.7161 44.7641 18.8984C45.2641 19.0755 45.6911 19.3229 46.0453 19.6406C46.3943 19.9635 46.6625 20.349 46.85 20.7969C47.0427 21.2448 47.1391 21.7422 47.1391 22.2891C47.1391 22.7995 47.0427 23.2708 46.85 23.7031C46.6625 24.1354 46.3943 24.5078 46.0453 24.8203C45.6911 25.138 45.2641 25.3854 44.7641 25.5625C44.2641 25.7396 43.7042 25.8281 43.0844 25.8281H41.3891ZM41.3891 24.0469H43.0844C43.3969 24.0469 43.6677 24 43.8969 23.9062C44.126 23.8125 44.3187 23.6849 44.475 23.5234C44.626 23.362 44.738 23.1771 44.8109 22.9688C44.8891 22.7552 44.9281 22.5339 44.9281 22.3047C44.9281 22.0391 44.8891 21.7917 44.8109 21.5625C44.738 21.3333 44.626 21.1328 44.475 20.9609C44.3187 20.7891 44.126 20.6536 43.8969 20.5547C43.6677 20.4557 43.3969 20.4062 43.0844 20.4062H41.3891V24.0469ZM50.2141 28.2266H55.5422V30H48.0109V18.625H50.2141V28.2266ZM64.6094 25.1484C64.6094 25.638 64.5651 26.1042 64.4766 26.5469C64.388 26.9844 64.2604 27.3906 64.0937 27.7656C63.9167 28.1406 63.6979 28.4844 63.4375 28.7969C63.1771 29.1094 62.8802 29.3698 62.5469 29.5781C62.2448 29.7604 61.9115 29.901 61.5469 30C61.1875 30.1042 60.7995 30.1562 60.3828 30.1562C59.9401 30.1562 59.5312 30.099 59.1562 29.9844C58.7812 29.8698 58.4401 29.7083 58.1328 29.5C57.8307 29.2812 57.5599 29.0182 57.3203 28.7109C57.0807 28.3984 56.8802 28.0469 56.7187 27.6562C56.5729 27.2969 56.4609 26.9062 56.3828 26.4844C56.3099 26.0625 56.2734 25.6172 56.2734 25.1484V23.4922C56.2734 22.9922 56.3151 22.5182 56.3984 22.0703C56.487 21.6224 56.6146 21.2083 56.7812 20.8281C56.9427 20.4688 57.138 20.1432 57.3672 19.8516C57.6016 19.5599 57.8698 19.3099 58.1719 19.1016C58.4687 18.8984 58.8021 18.7422 59.1719 18.6328C59.5417 18.5234 59.9427 18.4688 60.375 18.4688C60.8125 18.4688 61.2214 18.526 61.6016 18.6406C61.987 18.75 62.3333 18.9089 62.6406 19.1172C62.9479 19.3151 63.2161 19.5547 63.4453 19.8359C63.6797 20.1172 63.8802 20.4271 64.0469 20.7656C64.2292 21.151 64.3672 21.5729 64.4609 22.0312C64.5599 22.4896 64.6094 22.9766 64.6094 23.4922V25.1484ZM62.3828 23.4766C62.3828 23.1849 62.3672 22.9089 62.3359 22.6484C62.3099 22.3828 62.2656 22.138 62.2031 21.9141C62.125 21.6328 62.0208 21.3828 61.8906 21.1641C61.7604 20.9401 61.6068 20.7578 61.4297 20.6172C61.2891 20.513 61.1302 20.4323 60.9531 20.375C60.7812 20.3177 60.5885 20.2891 60.375 20.2891C60.1719 20.2891 59.987 20.3151 59.8203 20.3672C59.6589 20.4193 59.513 20.4948 59.3828 20.5938C59.2057 20.7396 59.0547 20.9219 58.9297 21.1406C58.8099 21.3594 58.7161 21.6146 58.6484 21.9062C58.5964 22.1302 58.5573 22.375 58.5312 22.6406C58.5104 22.9062 58.5 23.1849 58.5 23.4766V25.1484C58.5 25.4245 58.5104 25.6901 58.5312 25.9453C58.5521 26.2005 58.5885 26.4375 58.6406 26.6562C58.6979 26.9323 58.7812 27.1849 58.8906 27.4141C59.0052 27.638 59.138 27.8203 59.2891 27.9609C59.4297 28.0859 59.5885 28.1823 59.7656 28.25C59.9479 28.3177 60.1536 28.3516 60.3828 28.3516C60.6016 28.3516 60.8021 28.3203 60.9844 28.2578C61.1667 28.1953 61.3281 28.1042 61.4687 27.9844C61.6458 27.8385 61.7943 27.6562 61.9141 27.4375C62.0391 27.2135 62.138 26.9609 62.2109 26.6797C62.2682 26.4609 62.3099 26.2214 62.3359 25.9609C62.3672 25.7005 62.3828 25.4297 62.3828 25.1484V23.4766ZM69.3406 25.75H67.6766V30H65.4812V18.625H69.2937C69.924 18.625 70.4943 18.7005 71.0047 18.8516C71.5151 18.9974 71.9526 19.2135 72.3172 19.5C72.6766 19.7865 72.9526 20.1432 73.1453 20.5703C73.3432 20.9974 73.4422 21.4922 73.4422 22.0547C73.4422 22.4609 73.3927 22.8281 73.2937 23.1562C73.2 23.4792 73.0646 23.7682 72.8875 24.0234C72.7052 24.2839 72.4865 24.5104 72.2312 24.7031C71.9812 24.8958 71.7 25.0625 71.3875 25.2031L73.8328 29.8984V30H71.4812L69.3406 25.75ZM67.6766 23.9688H69.3016C69.6401 23.9688 69.937 23.9219 70.1922 23.8281C70.4526 23.7292 70.6635 23.5885 70.825 23.4062C70.9604 23.2604 71.062 23.0859 71.1297 22.8828C71.2026 22.6797 71.2391 22.4531 71.2391 22.2031C71.2391 21.901 71.1922 21.6354 71.0984 21.4062C71.0099 21.1719 70.8745 20.9792 70.6922 20.8281C70.5307 20.6927 70.3328 20.5885 70.0984 20.5156C69.8641 20.4427 69.5958 20.4062 69.2937 20.4062H67.6766V23.9688ZM81.2906 25.0156H76.6187V28.2266H82.0797V30H74.4156V18.625H82.0562V20.4141H76.6187V23.2812H81.2906V25.0156ZM100.269 20.4141H96.7609V30H94.5578V20.4141H91.0969V18.625H100.269V20.4141ZM108.227 30H106.055V25.0703H102.836V30H100.656V18.625H102.836V23.2891H106.055V18.625H108.227V30ZM116.528 25.0156H111.856V28.2266H117.317V30H109.653V18.625H117.294V20.4141H111.856V23.2812H116.528V25.0156ZM133.053 27.0312C133.053 26.8281 133.017 26.638 132.944 26.4609C132.876 26.2839 132.759 26.1172 132.592 25.9609C132.42 25.8099 132.196 25.6719 131.92 25.5469C131.649 25.4167 131.311 25.2969 130.905 25.1875C130.274 25.0156 129.72 24.8073 129.241 24.5625C128.767 24.3177 128.379 24.0495 128.077 23.7578C127.774 23.4661 127.545 23.1432 127.389 22.7891C127.238 22.4349 127.162 22.0495 127.162 21.6328C127.162 21.1536 127.264 20.7188 127.467 20.3281C127.67 19.9375 127.952 19.6042 128.311 19.3281C128.67 19.0521 129.095 18.8411 129.584 18.6953C130.074 18.5443 130.605 18.4688 131.178 18.4688C131.772 18.4688 132.314 18.5547 132.803 18.7266C133.298 18.8984 133.722 19.138 134.077 19.4453C134.431 19.7578 134.707 20.1276 134.905 20.5547C135.103 20.9818 135.202 21.4505 135.202 21.9609H133.061C133.051 21.7057 133.004 21.4714 132.92 21.2578C132.842 21.0443 132.725 20.8594 132.569 20.7031C132.407 20.5521 132.207 20.4349 131.967 20.3516C131.733 20.263 131.457 20.2188 131.139 20.2188C130.847 20.2188 130.587 20.2552 130.358 20.3281C130.134 20.3958 129.944 20.4922 129.787 20.6172C129.631 20.7474 129.511 20.901 129.428 21.0781C129.35 21.25 129.311 21.4375 129.311 21.6406C129.311 21.8542 129.363 22.0469 129.467 22.2188C129.577 22.3906 129.733 22.5443 129.936 22.6797C130.139 22.8203 130.384 22.9479 130.67 23.0625C130.962 23.1771 131.29 23.2839 131.655 23.3828C132.045 23.4922 132.418 23.625 132.772 23.7812C133.126 23.9375 133.452 24.1172 133.748 24.3203C134.196 24.6536 134.553 25.0417 134.819 25.4844C135.084 25.9271 135.217 26.4375 135.217 27.0156C135.217 27.5156 135.116 27.9609 134.912 28.3516C134.715 28.737 134.439 29.0625 134.084 29.3281C133.73 29.599 133.308 29.8047 132.819 29.9453C132.329 30.0807 131.795 30.1484 131.217 30.1484C130.649 30.1484 130.087 30.0651 129.53 29.8984C128.978 29.7266 128.496 29.4766 128.084 29.1484C127.694 28.8255 127.384 28.4453 127.155 28.0078C126.931 27.5703 126.819 27.0573 126.819 26.4688H128.975C128.985 26.8125 129.045 27.1068 129.155 27.3516C129.264 27.5964 129.418 27.7969 129.616 27.9531C129.808 28.1094 130.04 28.224 130.311 28.2969C130.587 28.3698 130.889 28.4062 131.217 28.4062C131.509 28.4062 131.767 28.3724 131.991 28.3047C132.22 28.237 132.412 28.1432 132.569 28.0234C132.725 27.9036 132.845 27.7604 132.928 27.5938C133.011 27.4219 133.053 27.2344 133.053 27.0312ZM143.855 26.4375C143.818 27.0104 143.693 27.526 143.48 27.9844C143.271 28.4427 142.99 28.8333 142.636 29.1562C142.282 29.4792 141.86 29.7292 141.37 29.9062C140.881 30.0781 140.339 30.1641 139.745 30.1641C139.277 30.1641 138.842 30.1042 138.441 29.9844C138.045 29.8594 137.688 29.6823 137.37 29.4531C137.079 29.2396 136.818 28.9818 136.589 28.6797C136.365 28.3776 136.175 28.0443 136.019 27.6797C135.868 27.3151 135.751 26.9141 135.667 26.4766C135.589 26.0391 135.55 25.5755 135.55 25.0859V23.5547C135.55 23.0964 135.586 22.6615 135.659 22.25C135.732 21.8333 135.842 21.4479 135.987 21.0938C136.154 20.6615 136.373 20.276 136.644 19.9375C136.915 19.599 137.222 19.3125 137.566 19.0781C137.873 18.8802 138.209 18.7292 138.573 18.625C138.943 18.5156 139.339 18.4609 139.761 18.4609C140.386 18.4609 140.941 18.5495 141.425 18.7266C141.915 18.9036 142.331 19.1562 142.675 19.4844C143.019 19.8125 143.29 20.2135 143.487 20.6875C143.685 21.1615 143.81 21.6953 143.862 22.2891H141.675C141.654 21.9505 141.602 21.6536 141.519 21.3984C141.441 21.1432 141.326 20.9297 141.175 20.7578C141.019 20.5911 140.823 20.4661 140.589 20.3828C140.36 20.2943 140.084 20.25 139.761 20.25C139.589 20.25 139.428 20.2682 139.277 20.3047C139.131 20.3411 138.995 20.3958 138.87 20.4688C138.657 20.5938 138.474 20.7734 138.323 21.0078C138.178 21.237 138.06 21.5052 137.972 21.8125C137.904 22.0521 137.855 22.3177 137.823 22.6094C137.792 22.8958 137.777 23.2057 137.777 23.5391V25.0859C137.777 25.5391 137.8 25.9453 137.847 26.3047C137.899 26.6589 137.977 26.9688 138.081 27.2344C138.154 27.4167 138.24 27.5781 138.339 27.7188C138.443 27.8594 138.56 27.9766 138.691 28.0703C138.831 28.1745 138.987 28.2526 139.159 28.3047C139.336 28.3516 139.532 28.375 139.745 28.375C140.032 28.375 140.29 28.3385 140.519 28.2656C140.748 28.1927 140.943 28.0781 141.105 27.9219C141.266 27.7656 141.394 27.5651 141.487 27.3203C141.581 27.0755 141.639 26.7812 141.659 26.4375H143.855ZM145.25 18.625H151.828V20.3984H149.609V28.2344H151.828V30H145.25V28.2344H147.414V20.3984H145.25V18.625ZM160.575 25.0156H155.903V28.2266H161.364V30H153.7V18.625H161.341V20.4141H155.903V23.2812H160.575V25.0156ZM169.884 30H167.697L164.533 22.6641V30H162.322V18.625H164.533L167.673 25.9297L167.681 18.625H169.884V30ZM179.092 26.4375C179.056 27.0104 178.931 27.526 178.717 27.9844C178.509 28.4427 178.228 28.8333 177.873 29.1562C177.519 29.4792 177.097 29.7292 176.608 29.9062C176.118 30.0781 175.577 30.1641 174.983 30.1641C174.514 30.1641 174.079 30.1042 173.678 29.9844C173.282 29.8594 172.926 29.6823 172.608 29.4531C172.316 29.2396 172.056 28.9818 171.827 28.6797C171.603 28.3776 171.412 28.0443 171.256 27.6797C171.105 27.3151 170.988 26.9141 170.905 26.4766C170.827 26.0391 170.787 25.5755 170.787 25.0859V23.5547C170.787 23.0964 170.824 22.6615 170.897 22.25C170.97 21.8333 171.079 21.4479 171.225 21.0938C171.392 20.6615 171.61 20.276 171.881 19.9375C172.152 19.599 172.459 19.3125 172.803 19.0781C173.11 18.8802 173.446 18.7292 173.811 18.625C174.181 18.5156 174.577 18.4609 174.998 18.4609C175.623 18.4609 176.178 18.5495 176.662 18.7266C177.152 18.9036 177.569 19.1562 177.912 19.4844C178.256 19.8125 178.527 20.2135 178.725 20.6875C178.923 21.1615 179.048 21.6953 179.1 22.2891H176.912C176.892 21.9505 176.84 21.6536 176.756 21.3984C176.678 21.1432 176.564 20.9297 176.412 20.7578C176.256 20.5911 176.061 20.4661 175.827 20.3828C175.597 20.2943 175.321 20.25 174.998 20.25C174.827 20.25 174.665 20.2682 174.514 20.3047C174.368 20.3411 174.233 20.3958 174.108 20.4688C173.894 20.5938 173.712 20.7734 173.561 21.0078C173.415 21.237 173.298 21.5052 173.209 21.8125C173.142 22.0521 173.092 22.3177 173.061 22.6094C173.03 22.8958 173.014 23.2057 173.014 23.5391V25.0859C173.014 25.5391 173.037 25.9453 173.084 26.3047C173.136 26.6589 173.215 26.9688 173.319 27.2344C173.392 27.4167 173.478 27.5781 173.577 27.7188C173.681 27.8594 173.798 27.9766 173.928 28.0703C174.069 28.1745 174.225 28.2526 174.397 28.3047C174.574 28.3516 174.769 28.375 174.983 28.375C175.269 28.375 175.527 28.3385 175.756 28.2656C175.985 28.1927 176.181 28.0781 176.342 27.9219C176.504 27.7656 176.631 27.5651 176.725 27.3203C176.819 27.0755 176.876 26.7812 176.897 26.4375H179.092ZM187.003 25.0156H182.331V28.2266H187.792V30H180.128V18.625H187.769V20.4141H182.331V23.2812H187.003V25.0156Z" fill="#0A090E"/>
<path d="M241 32V48H225L241 32Z" fill="#0A090E"/>
<path d="M0 16L1.39876e-06 -1.39876e-06L16 0L0 16Z" fill="#0A090E"/>
<path d="M205.458 19.0806L213.98 19.0805M213.98 19.0805L213.98 27.4813M213.98 19.0805L204.081 28.98" stroke="#0A090E" stroke-width="2" stroke-linecap="round" stroke-linejoin="round"/>
</g>
<defs>
<clipPath id="clip0_87_4028">
<rect width="241" height="48" fill="white"/>
</clipPath>
</defs>
</svg>
