<svg width="311" height="48" viewBox="0 0 311 48" fill="none" xmlns="http://www.w3.org/2000/svg">
<g clip-path="url(#clip0_87_4439)">
<rect width="311" height="48" fill="white"/>
<path d="M26.875 27.3828H23.3047L22.5312 30H20.5781L24.2812 18.625H25.9453L29.5859 30H27.6406L26.875 27.3828ZM23.7812 25.7734H26.4141L25.1094 21.2734L23.7812 25.7734ZM32.9766 25.6641V30H31.1016V18.625H34.9062C35.4792 18.6302 36.0052 18.7161 36.4844 18.8828C36.9688 19.0495 37.3854 19.2865 37.7344 19.5938C38.0833 19.901 38.3542 20.2734 38.5469 20.7109C38.7396 21.1484 38.8359 21.6406 38.8359 22.1875C38.8359 22.7135 38.7396 23.1901 38.5469 23.6172C38.3542 24.0391 38.0833 24.401 37.7344 24.7031C37.3854 25.0104 36.9688 25.2474 36.4844 25.4141C36.0052 25.5807 35.4792 25.6641 34.9062 25.6641H32.9766ZM32.9766 24.1328H34.9062C35.224 24.1276 35.5078 24.0781 35.7578 23.9844C36.013 23.8854 36.2292 23.75 36.4062 23.5781C36.5833 23.4062 36.7161 23.2031 36.8047 22.9688C36.8984 22.7344 36.9453 22.4792 36.9453 22.2031C36.9453 21.901 36.8984 21.6276 36.8047 21.3828C36.7161 21.1328 36.5833 20.9167 36.4062 20.7344C36.2292 20.5521 36.013 20.4115 35.7578 20.3125C35.5078 20.2135 35.224 20.1615 34.9062 20.1562H32.9766V24.1328ZM42.5859 25.6641V30H40.7109V18.625H44.5156C45.0885 18.6302 45.6146 18.7161 46.0938 18.8828C46.5781 19.0495 46.9948 19.2865 47.3438 19.5938C47.6927 19.901 47.9635 20.2734 48.1562 20.7109C48.349 21.1484 48.4453 21.6406 48.4453 22.1875C48.4453 22.7135 48.349 23.1901 48.1562 23.6172C47.9635 24.0391 47.6927 24.401 47.3438 24.7031C46.9948 25.0104 46.5781 25.2474 46.0938 25.4141C45.6146 25.5807 45.0885 25.6641 44.5156 25.6641H42.5859ZM42.5859 24.1328H44.5156C44.8333 24.1276 45.1172 24.0781 45.3672 23.9844C45.6224 23.8854 45.8385 23.75 46.0156 23.5781C46.1927 23.4062 46.3255 23.2031 46.4141 22.9688C46.5078 22.7344 46.5547 22.4792 46.5547 22.2031C46.5547 21.901 46.5078 21.6276 46.4141 21.3828C46.3255 21.1328 46.1927 20.9167 46.0156 20.7344C45.8385 20.5521 45.6224 20.4115 45.3672 20.3125C45.1172 20.2135 44.8333 20.1615 44.5156 20.1562H42.5859V24.1328ZM52.2266 28.4531H57.6562V30H50.3438V18.625H52.2266V28.4531ZM63.4531 24.0625L65.8359 18.625H67.9297L64.3672 25.9375L64.3516 30H62.5156L62.5078 25.8828L58.9766 18.625H61.0625L63.4531 24.0625ZM87.0781 20.1797H83.5703V30H81.7031V20.1797H78.2188V18.625H87.0781V20.1797ZM96.3281 25.0703C96.3281 25.5286 96.2865 25.9714 96.2031 26.3984C96.125 26.8255 96.0104 27.2292 95.8594 27.6094C95.6979 27.9896 95.4974 28.3411 95.2578 28.6641C95.0182 28.9818 94.7422 29.2552 94.4297 29.4844C94.1276 29.6927 93.7917 29.8568 93.4219 29.9766C93.0573 30.0964 92.6562 30.1562 92.2188 30.1562C91.7656 30.1562 91.349 30.0938 90.9688 29.9688C90.5938 29.8385 90.2578 29.6615 89.9609 29.4375C89.6589 29.2083 89.3932 28.9323 89.1641 28.6094C88.9401 28.2865 88.7526 27.9323 88.6016 27.5469C88.4557 27.1771 88.3464 26.7839 88.2734 26.3672C88.2005 25.9453 88.1641 25.513 88.1641 25.0703V23.5703C88.1641 23.1068 88.2031 22.6589 88.2812 22.2266C88.3594 21.7943 88.4766 21.3854 88.6328 21C88.7839 20.6302 88.9688 20.2917 89.1875 19.9844C89.4115 19.6719 89.6745 19.401 89.9766 19.1719C90.2682 18.9479 90.599 18.776 90.9688 18.6562C91.3438 18.5312 91.7552 18.4688 92.2031 18.4688C92.6562 18.4688 93.0729 18.5312 93.4531 18.6562C93.8333 18.7812 94.1745 18.9557 94.4766 19.1797C94.7786 19.4036 95.0417 19.6667 95.2656 19.9688C95.4896 20.2708 95.6771 20.6016 95.8281 20.9609C95.9948 21.3464 96.1198 21.7604 96.2031 22.2031C96.2865 22.6406 96.3281 23.0964 96.3281 23.5703V25.0703ZM94.4375 23.5547C94.4323 23.2682 94.4141 22.987 94.3828 22.7109C94.3568 22.4349 94.3099 22.1719 94.2422 21.9219C94.1641 21.6354 94.0599 21.375 93.9297 21.1406C93.8047 20.901 93.651 20.6979 93.4688 20.5312C93.3073 20.3854 93.1224 20.2708 92.9141 20.1875C92.7057 20.1042 92.4688 20.0625 92.2031 20.0625C91.9479 20.0625 91.7188 20.1042 91.5156 20.1875C91.3125 20.2656 91.1354 20.375 90.9844 20.5156C90.8021 20.6875 90.6484 20.8932 90.5234 21.1328C90.3984 21.3672 90.3021 21.6302 90.2344 21.9219C90.1719 22.1719 90.125 22.4375 90.0938 22.7188C90.0677 22.9948 90.0547 23.2734 90.0547 23.5547V25.0703C90.0547 25.3464 90.0677 25.6198 90.0938 25.8906C90.1198 26.1615 90.1641 26.4219 90.2266 26.6719C90.2943 26.9531 90.3854 27.2161 90.5 27.4609C90.6198 27.7005 90.763 27.9036 90.9297 28.0703C91.0911 28.2266 91.276 28.3516 91.4844 28.4453C91.6979 28.5339 91.9427 28.5781 92.2188 28.5781C92.4844 28.5781 92.724 28.5339 92.9375 28.4453C93.1562 28.3568 93.3438 28.237 93.5 28.0859C93.6823 27.9141 93.8333 27.7109 93.9531 27.4766C94.0781 27.237 94.1771 26.974 94.25 26.6875C94.3125 26.4375 94.3568 26.1771 94.3828 25.9062C94.4141 25.6302 94.4323 25.3516 94.4375 25.0703V23.5547ZM113.359 27.3828H109.789L109.016 30H107.062L110.766 18.625H112.43L116.07 30H114.125L113.359 27.3828ZM110.266 25.7734H112.898L111.594 21.2734L110.266 25.7734ZM127.734 30L126.25 18.625H127.992L128.773 25.6094L128.828 26.0547L128.906 25.5859L130 18.625H131.438L132.57 25.6172L132.648 26.0859L132.703 25.6094L133.492 18.625H135.242L133.742 30H131.969L130.812 23.0391L130.734 22.5L130.648 23.0391L129.508 30H127.734ZM144.375 25.0703C144.375 25.5286 144.333 25.9714 144.25 26.3984C144.172 26.8255 144.057 27.2292 143.906 27.6094C143.745 27.9896 143.544 28.3411 143.305 28.6641C143.065 28.9818 142.789 29.2552 142.477 29.4844C142.174 29.6927 141.839 29.8568 141.469 29.9766C141.104 30.0964 140.703 30.1562 140.266 30.1562C139.812 30.1562 139.396 30.0938 139.016 29.9688C138.641 29.8385 138.305 29.6615 138.008 29.4375C137.706 29.2083 137.44 28.9323 137.211 28.6094C136.987 28.2865 136.799 27.9323 136.648 27.5469C136.503 27.1771 136.393 26.7839 136.32 26.3672C136.247 25.9453 136.211 25.513 136.211 25.0703V23.5703C136.211 23.1068 136.25 22.6589 136.328 22.2266C136.406 21.7943 136.523 21.3854 136.68 21C136.831 20.6302 137.016 20.2917 137.234 19.9844C137.458 19.6719 137.721 19.401 138.023 19.1719C138.315 18.9479 138.646 18.776 139.016 18.6562C139.391 18.5312 139.802 18.4688 140.25 18.4688C140.703 18.4688 141.12 18.5312 141.5 18.6562C141.88 18.7812 142.221 18.9557 142.523 19.1797C142.826 19.4036 143.089 19.6667 143.312 19.9688C143.536 20.2708 143.724 20.6016 143.875 20.9609C144.042 21.3464 144.167 21.7604 144.25 22.2031C144.333 22.6406 144.375 23.0964 144.375 23.5703V25.0703ZM142.484 23.5547C142.479 23.2682 142.461 22.987 142.43 22.7109C142.404 22.4349 142.357 22.1719 142.289 21.9219C142.211 21.6354 142.107 21.375 141.977 21.1406C141.852 20.901 141.698 20.6979 141.516 20.5312C141.354 20.3854 141.169 20.2708 140.961 20.1875C140.753 20.1042 140.516 20.0625 140.25 20.0625C139.995 20.0625 139.766 20.1042 139.562 20.1875C139.359 20.2656 139.182 20.375 139.031 20.5156C138.849 20.6875 138.695 20.8932 138.57 21.1328C138.445 21.3672 138.349 21.6302 138.281 21.9219C138.219 22.1719 138.172 22.4375 138.141 22.7188C138.115 22.9948 138.102 23.2734 138.102 23.5547V25.0703C138.102 25.3464 138.115 25.6198 138.141 25.8906C138.167 26.1615 138.211 26.4219 138.273 26.6719C138.341 26.9531 138.432 27.2161 138.547 27.4609C138.667 27.7005 138.81 27.9036 138.977 28.0703C139.138 28.2266 139.323 28.3516 139.531 28.4453C139.745 28.5339 139.99 28.5781 140.266 28.5781C140.531 28.5781 140.771 28.5339 140.984 28.4453C141.203 28.3568 141.391 28.237 141.547 28.0859C141.729 27.9141 141.88 27.7109 142 27.4766C142.125 27.237 142.224 26.974 142.297 26.6875C142.359 26.4375 142.404 26.1771 142.43 25.9062C142.461 25.6302 142.479 25.3516 142.484 25.0703V23.5547ZM150.094 25.5859H148.172V30H146.297V18.625H149.906C150.495 18.6302 151.036 18.7057 151.531 18.8516C152.026 18.9974 152.453 19.2109 152.812 19.4922C153.167 19.7786 153.443 20.1354 153.641 20.5625C153.839 20.9844 153.938 21.4792 153.938 22.0469C153.938 22.4375 153.885 22.7917 153.781 23.1094C153.682 23.4271 153.542 23.7135 153.359 23.9688C153.177 24.224 152.958 24.4479 152.703 24.6406C152.448 24.8333 152.164 25 151.852 25.1406L154.281 29.8984V30H152.273L150.094 25.5859ZM148.172 24.0547H149.93C150.263 24.0495 150.562 24 150.828 23.9062C151.099 23.8073 151.328 23.6667 151.516 23.4844C151.682 23.3281 151.812 23.1354 151.906 22.9062C152 22.6771 152.047 22.4167 152.047 22.125C152.047 21.7969 151.995 21.5104 151.891 21.2656C151.792 21.0156 151.643 20.8073 151.445 20.6406C151.263 20.4844 151.042 20.3672 150.781 20.2891C150.521 20.2057 150.229 20.1615 149.906 20.1562H148.172V24.0547ZM158.992 25.0703L157.766 26.4453V30H155.867V18.625H157.766V23.9766L158.828 22.5938L161.828 18.625H164.125L160.234 23.6328L164.32 30H162.07L158.992 25.0703ZM165.773 18.625H172.477V20.1797H170.047V28.4531H172.477V30H165.773V28.4531H168.148V20.1797H165.773V18.625ZM182.445 30H180.562L176.867 22.1719L176.859 30H174.961V18.625H176.867L180.539 26.4219L180.555 18.625H182.445V30ZM192.336 28.6016C192.18 28.7891 191.99 28.9714 191.766 29.1484C191.542 29.3203 191.289 29.474 191.008 29.6094C190.654 29.7812 190.268 29.9141 189.852 30.0078C189.435 30.1068 188.99 30.1562 188.516 30.1562C188.078 30.1562 187.669 30.099 187.289 29.9844C186.909 29.8698 186.565 29.7083 186.258 29.5C185.951 29.2917 185.674 29.0391 185.43 28.7422C185.19 28.4453 184.99 28.1146 184.828 27.75C184.646 27.3698 184.508 26.9505 184.414 26.4922C184.32 26.0339 184.271 25.5521 184.266 25.0469V23.5938C184.271 23.1042 184.315 22.6354 184.398 22.1875C184.487 21.7396 184.615 21.3255 184.781 20.9453C184.943 20.5859 185.135 20.2578 185.359 19.9609C185.583 19.6641 185.839 19.4062 186.125 19.1875C186.438 18.9583 186.781 18.7812 187.156 18.6562C187.536 18.5312 187.948 18.4688 188.391 18.4688C188.99 18.4688 189.521 18.5495 189.984 18.7109C190.448 18.8724 190.844 19.1042 191.172 19.4062C191.505 19.7135 191.768 20.0859 191.961 20.5234C192.154 20.9557 192.276 21.4427 192.328 21.9844H190.484C190.438 21.6875 190.367 21.4193 190.273 21.1797C190.18 20.9349 190.055 20.7292 189.898 20.5625C189.732 20.3854 189.526 20.25 189.281 20.1562C189.042 20.0625 188.758 20.0156 188.43 20.0156C188.19 20.0156 187.969 20.0573 187.766 20.1406C187.562 20.2188 187.38 20.3281 187.219 20.4688C187.031 20.6302 186.867 20.8307 186.727 21.0703C186.591 21.3047 186.479 21.5677 186.391 21.8594C186.312 22.1146 186.255 22.388 186.219 22.6797C186.182 22.9714 186.164 23.2708 186.164 23.5781V25.0469C186.164 25.4062 186.188 25.7474 186.234 26.0703C186.286 26.3932 186.362 26.6927 186.461 26.9688C186.539 27.1771 186.63 27.3724 186.734 27.5547C186.844 27.737 186.971 27.8984 187.117 28.0391C187.299 28.2214 187.51 28.362 187.75 28.4609C187.995 28.5599 188.271 28.612 188.578 28.6172C188.76 28.6172 188.945 28.6068 189.133 28.5859C189.32 28.5599 189.5 28.5208 189.672 28.4688C189.839 28.4167 189.992 28.3516 190.133 28.2734C190.273 28.1901 190.385 28.0938 190.469 27.9844L190.477 25.7109H188.414V24.25H192.32L192.336 28.6016ZM211.555 28.6016C211.398 28.7891 211.208 28.9714 210.984 29.1484C210.76 29.3203 210.508 29.474 210.227 29.6094C209.872 29.7812 209.487 29.9141 209.07 30.0078C208.654 30.1068 208.208 30.1562 207.734 30.1562C207.297 30.1562 206.888 30.099 206.508 29.9844C206.128 29.8698 205.784 29.7083 205.477 29.5C205.169 29.2917 204.893 29.0391 204.648 28.7422C204.409 28.4453 204.208 28.1146 204.047 27.75C203.865 27.3698 203.727 26.9505 203.633 26.4922C203.539 26.0339 203.49 25.5521 203.484 25.0469V23.5938C203.49 23.1042 203.534 22.6354 203.617 22.1875C203.706 21.7396 203.833 21.3255 204 20.9453C204.161 20.5859 204.354 20.2578 204.578 19.9609C204.802 19.6641 205.057 19.4062 205.344 19.1875C205.656 18.9583 206 18.7812 206.375 18.6562C206.755 18.5312 207.167 18.4688 207.609 18.4688C208.208 18.4688 208.74 18.5495 209.203 18.7109C209.667 18.8724 210.062 19.1042 210.391 19.4062C210.724 19.7135 210.987 20.0859 211.18 20.5234C211.372 20.9557 211.495 21.4427 211.547 21.9844H209.703C209.656 21.6875 209.586 21.4193 209.492 21.1797C209.398 20.9349 209.273 20.7292 209.117 20.5625C208.951 20.3854 208.745 20.25 208.5 20.1562C208.26 20.0625 207.977 20.0156 207.648 20.0156C207.409 20.0156 207.188 20.0573 206.984 20.1406C206.781 20.2188 206.599 20.3281 206.438 20.4688C206.25 20.6302 206.086 20.8307 205.945 21.0703C205.81 21.3047 205.698 21.5677 205.609 21.8594C205.531 22.1146 205.474 22.388 205.438 22.6797C205.401 22.9714 205.383 23.2708 205.383 23.5781V25.0469C205.383 25.4062 205.406 25.7474 205.453 26.0703C205.505 26.3932 205.581 26.6927 205.68 26.9688C205.758 27.1771 205.849 27.3724 205.953 27.5547C206.062 27.737 206.19 27.8984 206.336 28.0391C206.518 28.2214 206.729 28.362 206.969 28.4609C207.214 28.5599 207.49 28.612 207.797 28.6172C207.979 28.6172 208.164 28.6068 208.352 28.5859C208.539 28.5599 208.719 28.5208 208.891 28.4688C209.057 28.4167 209.211 28.3516 209.352 28.2734C209.492 28.1901 209.604 28.0938 209.688 27.9844L209.695 25.7109H207.633V24.25H211.539L211.555 28.6016ZM217.359 25.5859H215.438V30H213.562V18.625H217.172C217.76 18.6302 218.302 18.7057 218.797 18.8516C219.292 18.9974 219.719 19.2109 220.078 19.4922C220.432 19.7786 220.708 20.1354 220.906 20.5625C221.104 20.9844 221.203 21.4792 221.203 22.0469C221.203 22.4375 221.151 22.7917 221.047 23.1094C220.948 23.4271 220.807 23.7135 220.625 23.9688C220.443 24.224 220.224 24.4479 219.969 24.6406C219.714 24.8333 219.43 25 219.117 25.1406L221.547 29.8984V30H219.539L217.359 25.5859ZM215.438 24.0547H217.195C217.529 24.0495 217.828 24 218.094 23.9062C218.365 23.8073 218.594 23.6667 218.781 23.4844C218.948 23.3281 219.078 23.1354 219.172 22.9062C219.266 22.6771 219.312 22.4167 219.312 22.125C219.312 21.7969 219.26 21.5104 219.156 21.2656C219.057 21.0156 218.909 20.8073 218.711 20.6406C218.529 20.4844 218.307 20.3672 218.047 20.2891C217.786 20.2057 217.495 20.1615 217.172 20.1562H215.438V24.0547ZM230.859 25.0703C230.859 25.5286 230.818 25.9714 230.734 26.3984C230.656 26.8255 230.542 27.2292 230.391 27.6094C230.229 27.9896 230.029 28.3411 229.789 28.6641C229.549 28.9818 229.273 29.2552 228.961 29.4844C228.659 29.6927 228.323 29.8568 227.953 29.9766C227.589 30.0964 227.188 30.1562 226.75 30.1562C226.297 30.1562 225.88 30.0938 225.5 29.9688C225.125 29.8385 224.789 29.6615 224.492 29.4375C224.19 29.2083 223.924 28.9323 223.695 28.6094C223.471 28.2865 223.284 27.9323 223.133 27.5469C222.987 27.1771 222.878 26.7839 222.805 26.3672C222.732 25.9453 222.695 25.513 222.695 25.0703V23.5703C222.695 23.1068 222.734 22.6589 222.812 22.2266C222.891 21.7943 223.008 21.3854 223.164 21C223.315 20.6302 223.5 20.2917 223.719 19.9844C223.943 19.6719 224.206 19.401 224.508 19.1719C224.799 18.9479 225.13 18.776 225.5 18.6562C225.875 18.5312 226.286 18.4688 226.734 18.4688C227.188 18.4688 227.604 18.5312 227.984 18.6562C228.365 18.7812 228.706 18.9557 229.008 19.1797C229.31 19.4036 229.573 19.6667 229.797 19.9688C230.021 20.2708 230.208 20.6016 230.359 20.9609C230.526 21.3464 230.651 21.7604 230.734 22.2031C230.818 22.6406 230.859 23.0964 230.859 23.5703V25.0703ZM228.969 23.5547C228.964 23.2682 228.945 22.987 228.914 22.7109C228.888 22.4349 228.841 22.1719 228.773 21.9219C228.695 21.6354 228.591 21.375 228.461 21.1406C228.336 20.901 228.182 20.6979 228 20.5312C227.839 20.3854 227.654 20.2708 227.445 20.1875C227.237 20.1042 227 20.0625 226.734 20.0625C226.479 20.0625 226.25 20.1042 226.047 20.1875C225.844 20.2656 225.667 20.375 225.516 20.5156C225.333 20.6875 225.18 20.8932 225.055 21.1328C224.93 21.3672 224.833 21.6302 224.766 21.9219C224.703 22.1719 224.656 22.4375 224.625 22.7188C224.599 22.9948 224.586 23.2734 224.586 23.5547V25.0703C224.586 25.3464 224.599 25.6198 224.625 25.8906C224.651 26.1615 224.695 26.4219 224.758 26.6719C224.826 26.9531 224.917 27.2161 225.031 27.4609C225.151 27.7005 225.294 27.9036 225.461 28.0703C225.622 28.2266 225.807 28.3516 226.016 28.4453C226.229 28.5339 226.474 28.5781 226.75 28.5781C227.016 28.5781 227.255 28.5339 227.469 28.4453C227.688 28.3568 227.875 28.237 228.031 28.0859C228.214 27.9141 228.365 27.7109 228.484 27.4766C228.609 27.237 228.708 26.974 228.781 26.6875C228.844 26.4375 228.888 26.1771 228.914 25.9062C228.945 25.6302 228.964 25.3516 228.969 25.0703V23.5547ZM240.156 18.625L240.164 26.2344C240.164 26.8229 240.073 27.3594 239.891 27.8438C239.714 28.3229 239.461 28.7344 239.133 29.0781C238.799 29.4219 238.398 29.6875 237.93 29.875C237.466 30.0625 236.945 30.1562 236.367 30.1562C235.799 30.1562 235.286 30.0651 234.828 29.8828C234.37 29.6953 233.979 29.4297 233.656 29.0859C233.328 28.7422 233.073 28.3281 232.891 27.8438C232.714 27.3594 232.622 26.8229 232.617 26.2344L232.633 18.625H234.484L234.5 26.2344C234.505 26.5938 234.549 26.9245 234.633 27.2266C234.716 27.5234 234.839 27.776 235 27.9844C235.156 28.1823 235.346 28.3385 235.57 28.4531C235.799 28.5625 236.065 28.6172 236.367 28.6172C236.674 28.6172 236.945 28.5625 237.18 28.4531C237.419 28.3385 237.62 28.1771 237.781 27.9688C237.943 27.7552 238.065 27.5026 238.148 27.2109C238.232 26.9141 238.279 26.5885 238.289 26.2344L238.305 18.625H240.156ZM244.383 25.6641V30H242.508V18.625H246.312C246.885 18.6302 247.411 18.7161 247.891 18.8828C248.375 19.0495 248.792 19.2865 249.141 19.5938C249.49 19.901 249.76 20.2734 249.953 20.7109C250.146 21.1484 250.242 21.6406 250.242 22.1875C250.242 22.7135 250.146 23.1901 249.953 23.6172C249.76 24.0391 249.49 24.401 249.141 24.7031C248.792 25.0104 248.375 25.2474 247.891 25.4141C247.411 25.5807 246.885 25.6641 246.312 25.6641H244.383ZM244.383 24.1328H246.312C246.63 24.1276 246.914 24.0781 247.164 23.9844C247.419 23.8854 247.635 23.75 247.812 23.5781C247.99 23.4062 248.122 23.2031 248.211 22.9688C248.305 22.7344 248.352 22.4792 248.352 22.2031C248.352 21.901 248.305 21.6276 248.211 21.3828C248.122 21.1328 247.99 20.9167 247.812 20.7344C247.635 20.5521 247.419 20.4115 247.164 20.3125C246.914 20.2135 246.63 20.1615 246.312 20.1562H244.383V24.1328Z" fill="#0A090E"/>
<path d="M270.277 17.4408L281.64 17.4407M281.64 17.4407L281.64 28.6417M281.64 17.4407L268.441 30.64" stroke="#0A090E" stroke-width="2" stroke-linecap="round" stroke-linejoin="round"/>
<path d="M311 32V48H295L311 32Z" fill="#0A090E"/>
<path d="M0 16L1.39876e-06 -1.39876e-06L16 0L0 16Z" fill="#0A090E"/>
</g>
<defs>
<clipPath id="clip0_87_4439">
<rect width="311" height="48" fill="white"/>
</clipPath>
</defs>
</svg>
