<svg width="389" height="98" viewBox="0 0 389 98" fill="none" xmlns="http://www.w3.org/2000/svg">
<rect width="388.5" height="98" fill="#19181C"/>
<path fill-rule="evenodd" clip-rule="evenodd" d="M185.372 22H266.001C279.631 22 290.683 33.0484 290.683 46.6793V53.3181C290.683 66.9462 279.631 77.9973 266.001 77.9973H185.372C171.744 77.9973 160.693 66.949 160.693 53.3181V46.6793C160.693 33.0512 171.741 22 185.372 22ZM184.803 68.9542H201.511L201.514 68.9512C207.592 68.9512 212.838 64.2199 212.982 58.1413C213.045 55.4324 212.134 52.9389 210.574 50.9855C209.807 50.0231 209.744 48.6902 210.35 47.6186C211.442 45.6883 211.973 43.4015 211.715 40.9713C211.109 35.2862 206.05 31.1093 200.333 31.1093H184.803C176.478 31.1093 169.733 37.8572 169.733 46.1794V53.884C169.733 62.2062 176.481 68.9542 184.803 68.9542ZM225.687 68.8852C227.707 68.8852 229.344 67.2477 229.344 65.2282V34.703C229.344 32.6835 227.71 31.0461 225.687 31.0461C223.665 31.0461 222.028 32.6835 222.028 34.703V65.2282C222.028 67.2477 223.668 68.8852 225.687 68.8852ZM265.348 68.9542C274.342 68.9542 281.636 61.6633 281.636 52.666V47.4003C281.636 38.4059 274.345 31.1122 265.348 31.1122H254.679C245.684 31.1122 238.391 38.4031 238.391 47.4003V52.666C238.391 61.6603 245.681 68.9542 254.679 68.9542H265.348ZM97.8499 76.1702C97.2093 75.5009 96.718 74.708 96.402 73.8377C96.086 72.9671 95.9539 72.0422 96.0142 71.1201C96.0745 70.1979 96.3273 69.2959 96.7554 68.4772C97.1834 67.6555 97.7752 66.9345 98.4962 66.3572C100.213 65.1176 101.575 64.8362 102.996 64.5426C103.327 64.4743 103.661 64.4052 104.003 64.3233C107.083 63.5793 109.731 61.2552 109.252 57.8483C108.837 54.9133 106.715 54.143 104.794 53.4457C103.059 52.8154 101.487 52.2448 101.487 50.1896C101.487 48.1335 103.057 47.5633 104.793 46.9333C106.711 46.2368 108.831 45.4674 109.252 42.5367C109.731 39.1556 107.083 36.8259 104.003 36.0617C103.665 35.9808 103.335 35.9123 103.008 35.8444C101.583 35.5485 100.219 35.2653 98.502 34.0221C97.7809 33.4447 97.1863 32.7208 96.7582 31.9021C96.3302 31.0776 96.0774 30.1784 96.0171 29.2534C95.9568 28.3313 96.0889 27.4034 96.4049 26.533C96.7209 25.6626 97.215 24.8697 97.8556 24.2004C98.5249 23.5598 99.3178 23.0657 100.185 22.7497C101.053 22.4337 101.981 22.3015 102.903 22.3619C103.825 22.4222 104.724 22.675 105.546 23.103C106.365 23.531 107.088 24.1257 107.666 24.8467C108.908 26.5681 109.192 27.9344 109.488 29.3593C109.556 29.687 109.624 30.0177 109.705 30.3566C110.45 33.439 112.774 36.0876 116.178 35.6078C119.108 35.1929 119.878 33.07 120.575 31.1478C121.205 29.4105 121.775 27.8372 123.828 27.8372C125.88 27.8372 126.45 29.4082 127.081 31.1442C127.779 33.0653 128.55 35.1883 131.483 35.6078C134.862 36.0876 137.186 33.439 137.955 30.3566C138.038 30.0131 138.107 29.6779 138.175 29.3459C138.469 27.9258 138.75 26.5627 139.986 24.8467C140.564 24.1257 141.288 23.531 142.106 23.103C142.925 22.675 143.827 22.4222 144.749 22.3619C145.672 22.3015 146.597 22.4337 147.467 22.7497C148.335 23.0657 149.13 23.5598 149.797 24.2004C150.437 24.8668 150.931 25.6626 151.248 26.533C151.563 27.4034 151.695 28.3284 151.635 29.2534C151.575 30.1756 151.322 31.0776 150.894 31.8992C150.466 32.7208 149.871 33.4418 149.15 34.0192C147.43 35.2613 146.066 35.5451 144.645 35.8407C144.318 35.9089 143.988 35.9776 143.649 36.0588C140.561 36.7972 137.915 39.1269 138.395 42.5339C138.81 45.4647 140.93 46.2333 142.85 46.9294C144.587 47.559 146.16 48.1293 146.16 50.1868C146.16 52.2438 144.589 52.8143 142.853 53.4444C140.933 54.1413 138.813 54.9111 138.395 57.8453C137.915 61.2265 140.564 63.5505 143.649 64.2888C143.997 64.3735 144.336 64.4445 144.673 64.5149C146.082 64.81 147.441 65.0947 149.15 66.3283C149.871 66.9058 150.466 67.6298 150.894 68.4485C151.322 69.27 151.575 70.1692 151.635 71.0942C151.695 72.0163 151.563 72.9442 151.248 73.8147C150.931 74.6851 150.437 75.4779 149.797 76.1472C149.13 76.7879 148.335 77.2819 147.467 77.5979C146.597 77.9139 145.672 78.0461 144.749 77.9857C143.827 77.9255 142.925 77.6727 142.106 77.2447C141.288 76.8166 140.564 76.222 139.986 75.4981C138.749 73.7836 138.468 72.4216 138.176 71.0029C138.107 70.6696 138.038 70.333 137.955 69.9882C137.212 66.9058 134.888 64.2572 131.483 64.737C128.55 65.1519 127.781 67.2746 127.083 69.1967C126.453 70.9341 125.883 72.5075 123.828 72.5075C121.771 72.5075 121.201 70.9346 120.571 69.1974C119.875 67.2771 119.107 65.1563 116.178 64.737C112.799 64.2572 110.475 66.9058 109.705 69.994C109.624 70.3328 109.555 70.6636 109.487 70.9915C109.192 72.4123 108.908 73.7779 107.666 75.4981C107.088 76.222 106.367 76.8166 105.546 77.2447C104.727 77.6727 103.825 77.9255 102.903 77.9857C101.981 78.0461 101.056 77.9139 100.185 77.5979C99.3149 77.2819 98.5221 76.7879 97.8556 76.1472L97.8499 76.1702ZM201.735 53.2634H200.709H200.704H179.477C178.188 53.2634 177.142 54.3091 177.142 55.5989C177.142 59.408 180.23 62.4963 184.039 62.4963H201.91C204.757 62.4963 207.003 59.9165 206.438 56.9663C206.018 54.7744 203.97 53.2634 201.738 53.2634H201.735ZM200.704 46.8027H179.474V46.8055C178.185 46.8055 177.139 45.7598 177.139 44.47C177.139 40.6609 180.227 37.5728 184.036 37.5728H200.442C202.941 37.5728 205.179 39.4429 205.311 41.9392C205.452 44.5994 203.335 46.8027 200.704 46.8027ZM266.572 37.5728H253.45C249.22 37.5728 245.793 41.0002 245.793 45.2284V54.8405C245.793 59.0686 249.22 62.4961 253.45 62.4961H266.572C270.8 62.4961 274.227 59.0686 274.227 54.8405V45.2284C274.227 41.0002 270.8 37.5728 266.572 37.5728Z" fill="#D9F7BC"/>
</svg>
