<svg width="140" height="40" viewBox="0 0 140 40" fill="currentColor" xmlns="http://www.w3.org/2000/svg">
<path fill-rule="evenodd" clip-rule="evenodd" d="M63.8372 0H121.429C131.165 0 139.059 7.89169 139.059 17.6281V22.3701C139.059 32.1044 131.165 39.9981 121.429 39.9981H63.8372C54.1029 39.9981 46.2092 32.1064 46.2092 22.3701V17.6281C46.2092 7.89375 54.1009 0 63.8372 0ZM63.431 33.5387H75.3649L75.367 33.5366C79.7089 33.5366 83.4557 30.1571 83.5583 25.8152C83.6034 23.8803 82.9529 22.0992 81.8387 20.7039C81.2909 20.0165 81.2457 19.0644 81.6787 18.299C82.4584 16.9202 82.838 15.2868 82.6534 13.5509C82.2204 9.49014 78.607 6.50665 74.5236 6.50665H63.431C57.4845 6.50665 52.6666 11.3266 52.6666 17.271V22.7743C52.6666 28.7187 57.4865 33.5387 63.431 33.5387ZM92.6339 33.4894C94.0764 33.4894 95.246 32.3198 95.246 30.8773V9.0736C95.246 7.6311 94.0785 6.4615 92.6339 6.4615C91.1893 6.4615 90.0198 7.6311 90.0198 9.0736V30.8773C90.0198 32.3198 91.1914 33.4894 92.6339 33.4894ZM120.963 33.5387C127.387 33.5387 132.597 28.3309 132.597 21.9043V18.1431C132.597 11.7185 127.389 6.5087 120.963 6.5087H113.342C106.917 6.5087 101.708 11.7165 101.708 18.1431V21.9043C101.708 28.3288 106.915 33.5387 113.342 33.5387H120.963ZM1.32133 38.693C0.863753 38.2149 0.512874 37.6486 0.287163 37.0269C0.0614513 36.4051 -0.0329371 35.7444 0.0101533 35.0858C0.0532436 34.4271 0.233813 33.7828 0.539549 33.198C0.845285 32.6111 1.26798 32.0961 1.78301 31.6837C3.00956 30.7983 3.98234 30.5973 4.99694 30.3876C5.2333 30.3388 5.47192 30.2894 5.71655 30.2309C7.91621 29.6995 9.80808 28.0394 9.46541 25.6059C9.169 23.5095 7.65363 22.9593 6.28168 22.4612C5.0418 22.011 3.91906 21.6034 3.91906 20.1354C3.91906 18.6668 5.04105 18.2595 6.28058 17.8095C7.65088 17.312 9.16482 16.7624 9.46541 14.6691C9.80808 12.254 7.91621 10.5899 5.71655 10.0441C5.47499 9.98628 5.2393 9.93733 5.00589 9.88886C3.98819 9.67751 3.0139 9.47518 1.78712 8.58722C1.27209 8.17479 0.847337 7.6577 0.541601 7.0729C0.235865 6.484 0.0552955 5.84175 0.0122052 5.18103C-0.0308852 4.52236 0.0635032 3.85959 0.289215 3.23786C0.514926 2.61613 0.867857 2.0498 1.32544 1.5717C1.80353 1.11412 2.36986 0.761189 2.98954 0.535477C3.60922 0.309766 4.27199 0.215377 4.93066 0.258468C5.58933 0.301558 6.23158 0.482127 6.81843 0.787864C7.40323 1.0936 7.92031 1.51835 8.33275 2.03338C9.2203 3.26294 9.42284 4.23884 9.63409 5.25666C9.68266 5.49068 9.73169 5.72692 9.78961 5.96897C10.3211 8.17068 11.9811 10.0626 14.4126 9.71988C16.5056 9.42349 17.0555 7.90713 17.5533 6.53417C18.0033 5.29323 18.4108 4.16943 19.8769 4.16943C21.3428 4.16943 21.7503 5.2916 22.2007 6.53158C22.6991 7.90377 23.2498 9.42023 25.3452 9.71988C27.7583 10.0626 29.4183 8.17068 29.9682 5.96897C30.0269 5.72361 30.0764 5.48423 30.1253 5.24707C30.3348 4.23271 30.5358 3.25908 31.4189 2.03338C31.8314 1.51835 32.3484 1.0936 32.9332 0.787864C33.518 0.482127 34.1623 0.301558 34.821 0.258468C35.4797 0.215377 36.1404 0.309766 36.7621 0.535477C37.3818 0.761189 37.9502 1.11412 38.4262 1.5717C38.8838 2.04774 39.2367 2.61613 39.4625 3.23786C39.6882 3.85959 39.7825 4.52031 39.7395 5.18103C39.6964 5.8397 39.5158 6.484 39.2101 7.07085C38.9043 7.6577 38.4796 8.17273 37.9646 8.58517C36.7355 9.47236 35.7612 9.6751 34.7466 9.88625C34.5128 9.9349 34.2768 9.98401 34.0351 10.042C31.8293 10.5694 29.9395 12.2335 30.2822 14.6671C30.5784 16.7605 32.0927 17.3095 33.4643 17.8067C34.7048 18.2564 35.8285 18.6638 35.8285 20.1334C35.8285 21.6027 34.7061 22.0102 33.4663 22.4603C32.0952 22.9581 30.5806 23.5079 30.2822 25.6038C29.9395 28.0189 31.8314 29.6789 34.0351 30.2063C34.2834 30.2668 34.5258 30.3175 34.7661 30.3678C35.7729 30.5786 36.7437 30.7819 37.9646 31.6631C38.4796 32.0756 38.9043 32.5927 39.2101 33.1775C39.5158 33.7643 39.6964 34.4066 39.7395 35.0673C39.7825 35.7259 39.6882 36.3887 39.4625 37.0105C39.2367 37.6322 38.8838 38.1985 38.4262 38.6766C37.9502 39.1342 37.3818 39.4871 36.7621 39.7128C36.1404 39.9385 35.4797 40.0329 34.821 39.9898C34.1623 39.9468 33.518 39.7662 32.9332 39.4605C32.3484 39.1547 31.8314 38.73 31.4189 38.2129C30.535 36.9883 30.3345 36.0154 30.1257 35.0021C30.0767 34.764 30.0272 34.5236 29.9682 34.2773C29.4368 32.0756 27.7768 30.1837 25.3452 30.5264C23.2501 30.8228 22.7004 32.339 22.2025 33.7119C21.7525 34.9529 21.345 36.0768 19.8769 36.0768C18.4081 36.0768 18.0008 34.9533 17.551 33.7124C17.0539 32.3408 16.5047 30.8259 14.4126 30.5264C11.9995 30.1837 10.3395 32.0756 9.78961 34.2814C9.73151 34.5234 9.68236 34.7597 9.63365 34.9939C9.42256 36.0088 9.21968 36.9842 8.33275 38.2129C7.92031 38.73 7.40528 39.1547 6.81843 39.4605C6.23363 39.7662 5.58933 39.9468 4.93066 39.9898C4.27199 40.0329 3.61128 39.9385 2.98954 39.7128C2.36781 39.4871 1.80148 39.1342 1.32544 38.6766L1.32133 38.693ZM75.525 22.331H74.7924H74.7883H59.6267C58.7054 22.331 57.9585 23.0779 57.9585 23.9992C57.9585 26.72 60.1643 28.9259 62.8851 28.9259H75.6501C77.6836 28.9259 79.2882 27.0832 78.884 24.9759C78.5844 23.4103 77.1214 22.331 75.527 22.331H75.525ZM74.7883 17.7162H59.6246V17.7182C58.7033 17.7182 57.9564 16.9713 57.9564 16.05C57.9564 13.3292 60.1622 11.1234 62.883 11.1234H74.6016C76.3867 11.1234 77.9852 12.4592 78.0796 14.2423C78.1801 16.1424 76.6679 17.7162 74.7883 17.7162ZM121.837 11.1234H112.464C109.443 11.1234 106.995 13.5716 106.995 16.5917V23.4575C106.995 26.4776 109.443 28.9258 112.464 28.9258H121.837C124.857 28.9258 127.305 26.4776 127.305 23.4575V16.5917C127.305 13.5716 124.857 11.1234 121.837 11.1234Z" fill="currentColor"></path>
</svg>