<svg width="213" height="48" viewBox="0 0 213 48" fill="none" xmlns="http://www.w3.org/2000/svg">
<g clip-path="url(#clip0_125_4159)">
<rect width="213" height="48" fill="#FF7120"/>
<path d="M26.5312 18.625H28.4297V26.5234C28.4245 27.0547 28.3229 27.5443 28.125 27.9922C27.9323 28.4349 27.6641 28.8177 27.3203 29.1406C26.9818 29.4635 26.5807 29.7135 26.1172 29.8906C25.6589 30.0677 25.1615 30.1562 24.625 30.1562C24.0729 30.1562 23.5677 30.0807 23.1094 29.9297C22.6562 29.7734 22.2656 29.5495 21.9375 29.2578C21.6094 28.9661 21.349 28.6042 21.1562 28.1719C20.9688 27.7396 20.8646 27.2422 20.8438 26.6797H22.7344C22.7396 26.9714 22.7812 27.2344 22.8594 27.4688C22.9375 27.6979 23.0469 27.8932 23.1875 28.0547C23.349 28.2422 23.5495 28.3828 23.7891 28.4766C24.0286 28.5703 24.3073 28.6172 24.625 28.6172C24.9167 28.6172 25.1797 28.5625 25.4141 28.4531C25.6484 28.3438 25.849 28.1953 26.0156 28.0078C26.1771 27.8203 26.3021 27.599 26.3906 27.3438C26.4844 27.0833 26.5312 26.8099 26.5312 26.5234V18.625ZM38.5 25.0703C38.5 25.5286 38.4583 25.9714 38.375 26.3984C38.2969 26.8255 38.1823 27.2292 38.0312 27.6094C37.8698 27.9896 37.6693 28.3411 37.4297 28.6641C37.1901 28.9818 36.9141 29.2552 36.6016 29.4844C36.2995 29.6927 35.9635 29.8568 35.5938 29.9766C35.2292 30.0964 34.8281 30.1562 34.3906 30.1562C33.9375 30.1562 33.5208 30.0938 33.1406 29.9688C32.7656 29.8385 32.4297 29.6615 32.1328 29.4375C31.8307 29.2083 31.5651 28.9323 31.3359 28.6094C31.112 28.2865 30.9245 27.9323 30.7734 27.5469C30.6276 27.1771 30.5182 26.7839 30.4453 26.3672C30.3724 25.9453 30.3359 25.513 30.3359 25.0703V23.5703C30.3359 23.1068 30.375 22.6589 30.4531 22.2266C30.5312 21.7943 30.6484 21.3854 30.8047 21C30.9557 20.6302 31.1406 20.2917 31.3594 19.9844C31.5833 19.6719 31.8464 19.401 32.1484 19.1719C32.4401 18.9479 32.7708 18.776 33.1406 18.6562C33.5156 18.5312 33.9271 18.4688 34.375 18.4688C34.8281 18.4688 35.2448 18.5312 35.625 18.6562C36.0052 18.7812 36.3464 18.9557 36.6484 19.1797C36.9505 19.4036 37.2135 19.6667 37.4375 19.9688C37.6615 20.2708 37.849 20.6016 38 20.9609C38.1667 21.3464 38.2917 21.7604 38.375 22.2031C38.4583 22.6406 38.5 23.0964 38.5 23.5703V25.0703ZM36.6094 23.5547C36.6042 23.2682 36.5859 22.987 36.5547 22.7109C36.5286 22.4349 36.4818 22.1719 36.4141 21.9219C36.3359 21.6354 36.2318 21.375 36.1016 21.1406C35.9766 20.901 35.8229 20.6979 35.6406 20.5312C35.4792 20.3854 35.2943 20.2708 35.0859 20.1875C34.8776 20.1042 34.6406 20.0625 34.375 20.0625C34.1198 20.0625 33.8906 20.1042 33.6875 20.1875C33.4844 20.2656 33.3073 20.375 33.1562 20.5156C32.974 20.6875 32.8203 20.8932 32.6953 21.1328C32.5703 21.3672 32.474 21.6302 32.4062 21.9219C32.3438 22.1719 32.2969 22.4375 32.2656 22.7188C32.2396 22.9948 32.2266 23.2734 32.2266 23.5547V25.0703C32.2266 25.3464 32.2396 25.6198 32.2656 25.8906C32.2917 26.1615 32.3359 26.4219 32.3984 26.6719C32.4661 26.9531 32.5573 27.2161 32.6719 27.4609C32.7917 27.7005 32.9349 27.9036 33.1016 28.0703C33.263 28.2266 33.4479 28.3516 33.6562 28.4453C33.8698 28.5339 34.1146 28.5781 34.3906 28.5781C34.6562 28.5781 34.8958 28.5339 35.1094 28.4453C35.3281 28.3568 35.5156 28.237 35.6719 28.0859C35.8542 27.9141 36.0052 27.7109 36.125 27.4766C36.25 27.237 36.349 26.974 36.4219 26.6875C36.4844 26.4375 36.5286 26.1771 36.5547 25.9062C36.5859 25.6302 36.6042 25.3516 36.6094 25.0703V23.5547ZM40.6797 18.625H47.3828V20.1797H44.9531V28.4531H47.3828V30H40.6797V28.4531H43.0547V20.1797H40.6797V18.625ZM57.3516 30H55.4688L51.7734 22.1719L51.7656 30H49.8672V18.625H51.7734L55.4453 26.4219L55.4609 18.625H57.3516V30ZM76.9375 25.0703C76.9375 25.5286 76.8958 25.9714 76.8125 26.3984C76.7344 26.8255 76.6198 27.2292 76.4688 27.6094C76.3073 27.9896 76.1068 28.3411 75.8672 28.6641C75.6276 28.9818 75.3516 29.2552 75.0391 29.4844C74.737 29.6927 74.401 29.8568 74.0312 29.9766C73.6667 30.0964 73.2656 30.1562 72.8281 30.1562C72.375 30.1562 71.9583 30.0938 71.5781 29.9688C71.2031 29.8385 70.8672 29.6615 70.5703 29.4375C70.2682 29.2083 70.0026 28.9323 69.7734 28.6094C69.5495 28.2865 69.362 27.9323 69.2109 27.5469C69.0651 27.1771 68.9557 26.7839 68.8828 26.3672C68.8099 25.9453 68.7734 25.513 68.7734 25.0703V23.5703C68.7734 23.1068 68.8125 22.6589 68.8906 22.2266C68.9688 21.7943 69.0859 21.3854 69.2422 21C69.3932 20.6302 69.5781 20.2917 69.7969 19.9844C70.0208 19.6719 70.2839 19.401 70.5859 19.1719C70.8776 18.9479 71.2083 18.776 71.5781 18.6562C71.9531 18.5312 72.3646 18.4688 72.8125 18.4688C73.2656 18.4688 73.6823 18.5312 74.0625 18.6562C74.4427 18.7812 74.7839 18.9557 75.0859 19.1797C75.388 19.4036 75.651 19.6667 75.875 19.9688C76.099 20.2708 76.2865 20.6016 76.4375 20.9609C76.6042 21.3464 76.7292 21.7604 76.8125 22.2031C76.8958 22.6406 76.9375 23.0964 76.9375 23.5703V25.0703ZM75.0469 23.5547C75.0417 23.2682 75.0234 22.987 74.9922 22.7109C74.9661 22.4349 74.9193 22.1719 74.8516 21.9219C74.7734 21.6354 74.6693 21.375 74.5391 21.1406C74.4141 20.901 74.2604 20.6979 74.0781 20.5312C73.9167 20.3854 73.7318 20.2708 73.5234 20.1875C73.3151 20.1042 73.0781 20.0625 72.8125 20.0625C72.5573 20.0625 72.3281 20.1042 72.125 20.1875C71.9219 20.2656 71.7448 20.375 71.5938 20.5156C71.4115 20.6875 71.2578 20.8932 71.1328 21.1328C71.0078 21.3672 70.9115 21.6302 70.8438 21.9219C70.7812 22.1719 70.7344 22.4375 70.7031 22.7188C70.6771 22.9948 70.6641 23.2734 70.6641 23.5547V25.0703C70.6641 25.3464 70.6771 25.6198 70.7031 25.8906C70.7292 26.1615 70.7734 26.4219 70.8359 26.6719C70.9036 26.9531 70.9948 27.2161 71.1094 27.4609C71.2292 27.7005 71.3724 27.9036 71.5391 28.0703C71.7005 28.2266 71.8854 28.3516 72.0938 28.4453C72.3073 28.5339 72.5521 28.5781 72.8281 28.5781C73.0938 28.5781 73.3333 28.5339 73.5469 28.4453C73.7656 28.3568 73.9531 28.237 74.1094 28.0859C74.2917 27.9141 74.4427 27.7109 74.5625 27.4766C74.6875 27.237 74.7865 26.974 74.8594 26.6875C74.9219 26.4375 74.9661 26.1771 74.9922 25.9062C75.0234 25.6302 75.0417 25.3516 75.0469 25.0703V23.5547ZM86.2344 18.625L86.2422 26.2344C86.2422 26.8229 86.151 27.3594 85.9688 27.8438C85.7917 28.3229 85.5391 28.7344 85.2109 29.0781C84.8776 29.4219 84.4766 29.6875 84.0078 29.875C83.5443 30.0625 83.0234 30.1562 82.4453 30.1562C81.8776 30.1562 81.3646 30.0651 80.9062 29.8828C80.4479 29.6953 80.0573 29.4297 79.7344 29.0859C79.4062 28.7422 79.151 28.3281 78.9688 27.8438C78.7917 27.3594 78.7005 26.8229 78.6953 26.2344L78.7109 18.625H80.5625L80.5781 26.2344C80.5833 26.5938 80.6276 26.9245 80.7109 27.2266C80.7943 27.5234 80.9167 27.776 81.0781 27.9844C81.2344 28.1823 81.4245 28.3385 81.6484 28.4531C81.8776 28.5625 82.1432 28.6172 82.4453 28.6172C82.7526 28.6172 83.0234 28.5625 83.2578 28.4531C83.4974 28.3385 83.6979 28.1771 83.8594 27.9688C84.0208 27.7552 84.1432 27.5026 84.2266 27.2109C84.3099 26.9141 84.3568 26.5885 84.3672 26.2344L84.3828 18.625H86.2344ZM92.2656 25.5859H90.3438V30H88.4688V18.625H92.0781C92.6667 18.6302 93.2083 18.7057 93.7031 18.8516C94.1979 18.9974 94.625 19.2109 94.9844 19.4922C95.3385 19.7786 95.6146 20.1354 95.8125 20.5625C96.0104 20.9844 96.1094 21.4792 96.1094 22.0469C96.1094 22.4375 96.0573 22.7917 95.9531 23.1094C95.8542 23.4271 95.7135 23.7135 95.5312 23.9688C95.349 24.224 95.1302 24.4479 94.875 24.6406C94.6198 24.8333 94.3359 25 94.0234 25.1406L96.4531 29.8984V30H94.4453L92.2656 25.5859ZM90.3438 24.0547H92.1016C92.4349 24.0495 92.7344 24 93 23.9062C93.2708 23.8073 93.5 23.6667 93.6875 23.4844C93.8542 23.3281 93.9844 23.1354 94.0781 22.9062C94.1719 22.6771 94.2188 22.4167 94.2188 22.125C94.2188 21.7969 94.1667 21.5104 94.0625 21.2656C93.9635 21.0156 93.8151 20.8073 93.6172 20.6406C93.4349 20.4844 93.2135 20.3672 92.9531 20.2891C92.6927 20.2057 92.401 20.1615 92.0781 20.1562H90.3438V24.0547ZM115.344 26.5C115.292 27.0521 115.161 27.5547 114.953 28.0078C114.745 28.4557 114.471 28.8385 114.133 29.1562C113.789 29.4792 113.38 29.7292 112.906 29.9062C112.438 30.0781 111.917 30.1641 111.344 30.1641C110.875 30.1641 110.443 30.1016 110.047 29.9766C109.656 29.8464 109.307 29.6641 109 29.4297C108.703 29.2109 108.443 28.9479 108.219 28.6406C108 28.3281 107.815 27.987 107.664 27.6172C107.513 27.2526 107.398 26.8568 107.32 26.4297C107.247 26.0026 107.211 25.5573 107.211 25.0938V23.5391C107.211 23.0964 107.247 22.6693 107.32 22.2578C107.393 21.8464 107.503 21.4583 107.648 21.0938C107.805 20.6875 108.005 20.3203 108.25 19.9922C108.5 19.6589 108.786 19.375 109.109 19.1406C109.417 18.9271 109.755 18.7604 110.125 18.6406C110.5 18.5208 110.909 18.4609 111.352 18.4609C111.951 18.4609 112.484 18.5495 112.953 18.7266C113.427 18.9036 113.831 19.1536 114.164 19.4766C114.503 19.8047 114.768 20.2005 114.961 20.6641C115.159 21.1276 115.286 21.6432 115.344 22.2109H113.469C113.438 21.8724 113.372 21.5677 113.273 21.2969C113.18 21.0208 113.049 20.7865 112.883 20.5938C112.711 20.401 112.5 20.2552 112.25 20.1562C112 20.0521 111.701 20 111.352 20C111.107 20 110.885 20.0339 110.688 20.1016C110.495 20.1693 110.323 20.2656 110.172 20.3906C109.964 20.5417 109.789 20.7396 109.648 20.9844C109.513 21.224 109.401 21.4922 109.312 21.7891C109.245 22.0495 109.193 22.3281 109.156 22.625C109.125 22.9167 109.109 23.2161 109.109 23.5234V25.0938C109.109 25.474 109.13 25.8307 109.172 26.1641C109.219 26.4974 109.289 26.8021 109.383 27.0781C109.456 27.3073 109.547 27.5156 109.656 27.7031C109.771 27.8906 109.906 28.0521 110.062 28.1875C110.224 28.3333 110.409 28.4453 110.617 28.5234C110.831 28.5964 111.073 28.6328 111.344 28.6328C111.667 28.6328 111.953 28.5859 112.203 28.4922C112.453 28.3984 112.667 28.2604 112.844 28.0781C113.016 27.901 113.154 27.6797 113.258 27.4141C113.362 27.1484 113.43 26.8438 113.461 26.5H115.344ZM124.984 25.0703C124.984 25.5286 124.943 25.9714 124.859 26.3984C124.781 26.8255 124.667 27.2292 124.516 27.6094C124.354 27.9896 124.154 28.3411 123.914 28.6641C123.674 28.9818 123.398 29.2552 123.086 29.4844C122.784 29.6927 122.448 29.8568 122.078 29.9766C121.714 30.0964 121.312 30.1562 120.875 30.1562C120.422 30.1562 120.005 30.0938 119.625 29.9688C119.25 29.8385 118.914 29.6615 118.617 29.4375C118.315 29.2083 118.049 28.9323 117.82 28.6094C117.596 28.2865 117.409 27.9323 117.258 27.5469C117.112 27.1771 117.003 26.7839 116.93 26.3672C116.857 25.9453 116.82 25.513 116.82 25.0703V23.5703C116.82 23.1068 116.859 22.6589 116.938 22.2266C117.016 21.7943 117.133 21.3854 117.289 21C117.44 20.6302 117.625 20.2917 117.844 19.9844C118.068 19.6719 118.331 19.401 118.633 19.1719C118.924 18.9479 119.255 18.776 119.625 18.6562C120 18.5312 120.411 18.4688 120.859 18.4688C121.312 18.4688 121.729 18.5312 122.109 18.6562C122.49 18.7812 122.831 18.9557 123.133 19.1797C123.435 19.4036 123.698 19.6667 123.922 19.9688C124.146 20.2708 124.333 20.6016 124.484 20.9609C124.651 21.3464 124.776 21.7604 124.859 22.2031C124.943 22.6406 124.984 23.0964 124.984 23.5703V25.0703ZM123.094 23.5547C123.089 23.2682 123.07 22.987 123.039 22.7109C123.013 22.4349 122.966 22.1719 122.898 21.9219C122.82 21.6354 122.716 21.375 122.586 21.1406C122.461 20.901 122.307 20.6979 122.125 20.5312C121.964 20.3854 121.779 20.2708 121.57 20.1875C121.362 20.1042 121.125 20.0625 120.859 20.0625C120.604 20.0625 120.375 20.1042 120.172 20.1875C119.969 20.2656 119.792 20.375 119.641 20.5156C119.458 20.6875 119.305 20.8932 119.18 21.1328C119.055 21.3672 118.958 21.6302 118.891 21.9219C118.828 22.1719 118.781 22.4375 118.75 22.7188C118.724 22.9948 118.711 23.2734 118.711 23.5547V25.0703C118.711 25.3464 118.724 25.6198 118.75 25.8906C118.776 26.1615 118.82 26.4219 118.883 26.6719C118.951 26.9531 119.042 27.2161 119.156 27.4609C119.276 27.7005 119.419 27.9036 119.586 28.0703C119.747 28.2266 119.932 28.3516 120.141 28.4453C120.354 28.5339 120.599 28.5781 120.875 28.5781C121.141 28.5781 121.38 28.5339 121.594 28.4453C121.812 28.3568 122 28.237 122.156 28.0859C122.339 27.9141 122.49 27.7109 122.609 27.4766C122.734 27.237 122.833 26.974 122.906 26.6875C122.969 26.4375 123.013 26.1771 123.039 25.9062C123.07 25.6302 123.089 25.3516 123.094 25.0703V23.5547ZM129.109 18.625L130.516 23.4922L132.07 18.625H134.406V30H132.641V26.1406L132.75 21.0625L131 26.4922H130.023L128.438 21.25L128.539 26.1406V30H126.781V18.625H129.109ZM138.719 18.625L140.125 23.4922L141.68 18.625H144.016V30H142.25V26.1406L142.359 21.0625L140.609 26.4922H139.633L138.047 21.25L138.148 26.1406V30H136.391V18.625H138.719ZM153.5 18.625L153.508 26.2344C153.508 26.8229 153.417 27.3594 153.234 27.8438C153.057 28.3229 152.805 28.7344 152.477 29.0781C152.143 29.4219 151.742 29.6875 151.273 29.875C150.81 30.0625 150.289 30.1562 149.711 30.1562C149.143 30.1562 148.63 30.0651 148.172 29.8828C147.714 29.6953 147.323 29.4297 147 29.0859C146.672 28.7422 146.417 28.3281 146.234 27.8438C146.057 27.3594 145.966 26.8229 145.961 26.2344L145.977 18.625H147.828L147.844 26.2344C147.849 26.5938 147.893 26.9245 147.977 27.2266C148.06 27.5234 148.182 27.776 148.344 27.9844C148.5 28.1823 148.69 28.3385 148.914 28.4531C149.143 28.5625 149.409 28.6172 149.711 28.6172C150.018 28.6172 150.289 28.5625 150.523 28.4531C150.763 28.3385 150.964 28.1771 151.125 27.9688C151.286 27.7552 151.409 27.5026 151.492 27.2109C151.576 26.9141 151.622 26.5885 151.633 26.2344L151.648 18.625H153.5ZM163.055 30H161.172L157.477 22.1719L157.469 30H155.57V18.625H157.477L161.148 26.4219L161.164 18.625H163.055V30ZM165.602 18.625H172.305V20.1797H169.875V28.4531H172.305V30H165.602V28.4531H167.977V20.1797H165.602V18.625ZM183 20.1797H179.492V30H177.625V20.1797H174.141V18.625H183V20.1797ZM188.203 24.0625L190.586 18.625H192.68L189.117 25.9375L189.102 30H187.266L187.258 25.8828L183.727 18.625H185.812L188.203 24.0625Z" fill="#0A090E"/>
<path d="M213 32V48H197L213 32Z" fill="#0A090E"/>
<path d="M0 16L1.39876e-06 -1.39876e-06L16 0L0 16Z" fill="#0A090E"/>
</g>
<defs>
<clipPath id="clip0_125_4159">
<rect width="213" height="48" fill="white"/>
</clipPath>
</defs>
</svg>
