<svg width="186" height="48" viewBox="0 0 186 48" fill="none" xmlns="http://www.w3.org/2000/svg">
<g clip-path="url(#clip0_4021_2933)">
<rect width="185" height="48" transform="translate(0.5)" fill="#FF7120"/>
<path d="M22.0781 30V18.625H25.7188C26.2708 18.625 26.7891 18.6875 27.2734 18.8125C27.7578 18.9323 28.1771 19.1172 28.5312 19.3672C28.8854 19.6172 29.1615 19.9375 29.3594 20.3281C29.5625 20.7135 29.6641 21.1719 29.6641 21.7031C29.6589 22.026 29.6016 22.3281 29.4922 22.6094C29.388 22.8854 29.237 23.1302 29.0391 23.3438C28.8984 23.5 28.7396 23.638 28.5625 23.7578C28.3906 23.8724 28.1901 23.9766 27.9609 24.0703V24.0859C28.2995 24.1745 28.5885 24.3047 28.8281 24.4766C29.0677 24.6432 29.2682 24.8333 29.4297 25.0469C29.5964 25.276 29.7214 25.5312 29.8047 25.8125C29.8932 26.0885 29.9375 26.3802 29.9375 26.6875C29.9427 27.2292 29.8464 27.7057 29.6484 28.1172C29.4505 28.5286 29.1771 28.8724 28.8281 29.1484C28.4792 29.4297 28.0625 29.6432 27.5781 29.7891C27.099 29.9297 26.5781 30 26.0156 30H22.0781ZM23.9688 24.8594V28.4531H26.0312C26.3281 28.4531 26.599 28.4115 26.8438 28.3281C27.0885 28.2448 27.2969 28.1302 27.4688 27.9844C27.6562 27.8333 27.7995 27.6484 27.8984 27.4297C28.0026 27.2057 28.0547 26.9583 28.0547 26.6875C28.0547 26.401 28.013 26.1484 27.9297 25.9297C27.8464 25.7057 27.7214 25.5156 27.5547 25.3594C27.388 25.2031 27.1849 25.0833 26.9453 25C26.7057 24.9115 26.4323 24.8646 26.125 24.8594H23.9688ZM23.9688 23.4297H25.7578C26.0651 23.4245 26.3464 23.3828 26.6016 23.3047C26.862 23.2266 27.0807 23.112 27.2578 22.9609C27.4193 22.8255 27.5469 22.6615 27.6406 22.4688C27.7344 22.276 27.7812 22.0547 27.7812 21.8047C27.7812 21.5391 27.737 21.3099 27.6484 21.1172C27.5651 20.9193 27.4453 20.7578 27.2891 20.6328C27.112 20.4766 26.8906 20.3646 26.625 20.2969C26.3594 20.224 26.0651 20.1849 25.7422 20.1797H23.9688V23.4297ZM39.1016 18.625L39.1094 26.2344C39.1094 26.8229 39.0182 27.3594 38.8359 27.8438C38.6589 28.3229 38.4062 28.7344 38.0781 29.0781C37.7448 29.4219 37.3438 29.6875 36.875 29.875C36.4115 30.0625 35.8906 30.1562 35.3125 30.1562C34.7448 30.1562 34.2318 30.0651 33.7734 29.8828C33.3151 29.6953 32.9245 29.4297 32.6016 29.0859C32.2734 28.7422 32.0182 28.3281 31.8359 27.8438C31.6589 27.3594 31.5677 26.8229 31.5625 26.2344L31.5781 18.625H33.4297L33.4453 26.2344C33.4505 26.5938 33.4948 26.9245 33.5781 27.2266C33.6615 27.5234 33.7839 27.776 33.9453 27.9844C34.1016 28.1823 34.2917 28.3385 34.5156 28.4531C34.7448 28.5625 35.0104 28.6172 35.3125 28.6172C35.6198 28.6172 35.8906 28.5625 36.125 28.4531C36.3646 28.3385 36.5651 28.1771 36.7266 27.9688C36.888 27.7552 37.0104 27.5026 37.0938 27.2109C37.1771 26.9141 37.224 26.5885 37.2344 26.2344L37.25 18.625H39.1016ZM44.9766 24.0625L47.3594 18.625H49.4531L45.8906 25.9375L45.875 30H44.0391L44.0312 25.8828L40.5 18.625H42.5859L44.9766 24.0625ZM68.2422 25.0703C68.2422 25.5286 68.2005 25.9714 68.1172 26.3984C68.0391 26.8255 67.9245 27.2292 67.7734 27.6094C67.612 27.9896 67.4115 28.3411 67.1719 28.6641C66.9323 28.9818 66.6562 29.2552 66.3438 29.4844C66.0417 29.6927 65.7057 29.8568 65.3359 29.9766C64.9714 30.0964 64.5703 30.1562 64.1328 30.1562C63.6797 30.1562 63.263 30.0938 62.8828 29.9688C62.5078 29.8385 62.1719 29.6615 61.875 29.4375C61.5729 29.2083 61.3073 28.9323 61.0781 28.6094C60.8542 28.2865 60.6667 27.9323 60.5156 27.5469C60.3698 27.1771 60.2604 26.7839 60.1875 26.3672C60.1146 25.9453 60.0781 25.513 60.0781 25.0703V23.5703C60.0781 23.1068 60.1172 22.6589 60.1953 22.2266C60.2734 21.7943 60.3906 21.3854 60.5469 21C60.6979 20.6302 60.8828 20.2917 61.1016 19.9844C61.3255 19.6719 61.5885 19.401 61.8906 19.1719C62.1823 18.9479 62.513 18.776 62.8828 18.6562C63.2578 18.5312 63.6693 18.4688 64.1172 18.4688C64.5703 18.4688 64.987 18.5312 65.3672 18.6562C65.7474 18.7812 66.0885 18.9557 66.3906 19.1797C66.6927 19.4036 66.9557 19.6667 67.1797 19.9688C67.4036 20.2708 67.5911 20.6016 67.7422 20.9609C67.9089 21.3464 68.0339 21.7604 68.1172 22.2031C68.2005 22.6406 68.2422 23.0964 68.2422 23.5703V25.0703ZM66.3516 23.5547C66.3464 23.2682 66.3281 22.987 66.2969 22.7109C66.2708 22.4349 66.224 22.1719 66.1562 21.9219C66.0781 21.6354 65.974 21.375 65.8438 21.1406C65.7188 20.901 65.5651 20.6979 65.3828 20.5312C65.2214 20.3854 65.0365 20.2708 64.8281 20.1875C64.6198 20.1042 64.3828 20.0625 64.1172 20.0625C63.862 20.0625 63.6328 20.1042 63.4297 20.1875C63.2266 20.2656 63.0495 20.375 62.8984 20.5156C62.7161 20.6875 62.5625 20.8932 62.4375 21.1328C62.3125 21.3672 62.2161 21.6302 62.1484 21.9219C62.0859 22.1719 62.0391 22.4375 62.0078 22.7188C61.9818 22.9948 61.9688 23.2734 61.9688 23.5547V25.0703C61.9688 25.3464 61.9818 25.6198 62.0078 25.8906C62.0339 26.1615 62.0781 26.4219 62.1406 26.6719C62.2083 26.9531 62.2995 27.2161 62.4141 27.4609C62.5339 27.7005 62.6771 27.9036 62.8438 28.0703C63.0052 28.2266 63.1901 28.3516 63.3984 28.4453C63.612 28.5339 63.8568 28.5781 64.1328 28.5781C64.3984 28.5781 64.638 28.5339 64.8516 28.4453C65.0703 28.3568 65.2578 28.237 65.4141 28.0859C65.5964 27.9141 65.7474 27.7109 65.8672 27.4766C65.9922 27.237 66.0911 26.974 66.1641 26.6875C66.2266 26.4375 66.2708 26.1771 66.2969 25.9062C66.3281 25.6302 66.3464 25.3516 66.3516 25.0703V23.5547ZM77.4844 30H75.6016L71.9062 22.1719L71.8984 30H70V18.625H71.9062L75.5781 26.4219L75.5938 18.625H77.4844V30ZM91.375 25.6641V30H89.5V18.625H93.3047C93.8776 18.6302 94.4036 18.7161 94.8828 18.8828C95.3672 19.0495 95.7839 19.2865 96.1328 19.5938C96.4818 19.901 96.7526 20.2734 96.9453 20.7109C97.138 21.1484 97.2344 21.6406 97.2344 22.1875C97.2344 22.7135 97.138 23.1901 96.9453 23.6172C96.7526 24.0391 96.4818 24.401 96.1328 24.7031C95.7839 25.0104 95.3672 25.2474 94.8828 25.4141C94.4036 25.5807 93.8776 25.6641 93.3047 25.6641H91.375ZM91.375 24.1328H93.3047C93.6224 24.1276 93.9062 24.0781 94.1562 23.9844C94.4115 23.8854 94.6276 23.75 94.8047 23.5781C94.9818 23.4062 95.1146 23.2031 95.2031 22.9688C95.2969 22.7344 95.3438 22.4792 95.3438 22.2031C95.3438 21.901 95.2969 21.6276 95.2031 21.3828C95.1146 21.1328 94.9818 20.9167 94.8047 20.7344C94.6276 20.5521 94.4115 20.4115 94.1562 20.3125C93.9062 20.2135 93.6224 20.1615 93.3047 20.1562H91.375V24.1328ZM106.367 18.625L106.375 26.2344C106.375 26.8229 106.284 27.3594 106.102 27.8438C105.924 28.3229 105.672 28.7344 105.344 29.0781C105.01 29.4219 104.609 29.6875 104.141 29.875C103.677 30.0625 103.156 30.1562 102.578 30.1562C102.01 30.1562 101.497 30.0651 101.039 29.8828C100.581 29.6953 100.19 29.4297 99.8672 29.0859C99.5391 28.7422 99.2839 28.3281 99.1016 27.8438C98.9245 27.3594 98.8333 26.8229 98.8281 26.2344L98.8438 18.625H100.695L100.711 26.2344C100.716 26.5938 100.76 26.9245 100.844 27.2266C100.927 27.5234 101.049 27.776 101.211 27.9844C101.367 28.1823 101.557 28.3385 101.781 28.4531C102.01 28.5625 102.276 28.6172 102.578 28.6172C102.885 28.6172 103.156 28.5625 103.391 28.4531C103.63 28.3385 103.831 28.1771 103.992 27.9688C104.154 27.7552 104.276 27.5026 104.359 27.2109C104.443 26.9141 104.49 26.5885 104.5 26.2344L104.516 18.625H106.367ZM110.805 18.625L112.211 23.4922L113.766 18.625H116.102V30H114.336V26.1406L114.445 21.0625L112.695 26.4922H111.719L110.133 21.25L110.234 26.1406V30H108.477V18.625H110.805ZM120.203 25.6641V30H118.328V18.625H122.133C122.706 18.6302 123.232 18.7161 123.711 18.8828C124.195 19.0495 124.612 19.2865 124.961 19.5938C125.31 19.901 125.581 20.2734 125.773 20.7109C125.966 21.1484 126.062 21.6406 126.062 22.1875C126.062 22.7135 125.966 23.1901 125.773 23.6172C125.581 24.0391 125.31 24.401 124.961 24.7031C124.612 25.0104 124.195 25.2474 123.711 25.4141C123.232 25.5807 122.706 25.6641 122.133 25.6641H120.203ZM120.203 24.1328H122.133C122.451 24.1276 122.734 24.0781 122.984 23.9844C123.24 23.8854 123.456 23.75 123.633 23.5781C123.81 23.4062 123.943 23.2031 124.031 22.9688C124.125 22.7344 124.172 22.4792 124.172 22.2031C124.172 21.901 124.125 21.6276 124.031 21.3828C123.943 21.1328 123.81 20.9167 123.633 20.7344C123.456 20.5521 123.24 20.4115 122.984 20.3125C122.734 20.2135 122.451 20.1615 122.133 20.1562H120.203V24.1328ZM130.172 28.875C130.172 28.5156 130.286 28.2083 130.516 27.9531C130.75 27.6979 131.086 27.5703 131.523 27.5703C131.951 27.5703 132.284 27.6979 132.523 27.9531C132.763 28.2031 132.883 28.5104 132.883 28.875C132.883 29.2396 132.76 29.5443 132.516 29.7891C132.276 30.0339 131.945 30.1562 131.523 30.1562C131.096 30.1562 130.763 30.0339 130.523 29.7891C130.289 29.5391 130.172 29.2344 130.172 28.875ZM144.25 25.1562H139.438V30H137.547V18.625H144.938V20.1797H139.438V23.6094H144.25V25.1562ZM154.414 18.625L154.422 26.2344C154.422 26.8229 154.331 27.3594 154.148 27.8438C153.971 28.3229 153.719 28.7344 153.391 29.0781C153.057 29.4219 152.656 29.6875 152.188 29.875C151.724 30.0625 151.203 30.1562 150.625 30.1562C150.057 30.1562 149.544 30.0651 149.086 29.8828C148.628 29.6953 148.237 29.4297 147.914 29.0859C147.586 28.7422 147.331 28.3281 147.148 27.8438C146.971 27.3594 146.88 26.8229 146.875 26.2344L146.891 18.625H148.742L148.758 26.2344C148.763 26.5938 148.807 26.9245 148.891 27.2266C148.974 27.5234 149.096 27.776 149.258 27.9844C149.414 28.1823 149.604 28.3385 149.828 28.4531C150.057 28.5625 150.323 28.6172 150.625 28.6172C150.932 28.6172 151.203 28.5625 151.438 28.4531C151.677 28.3385 151.878 28.1771 152.039 27.9688C152.201 27.7552 152.323 27.5026 152.406 27.2109C152.49 26.9141 152.536 26.5885 152.547 26.2344L152.562 18.625H154.414ZM163.969 30H162.086L158.391 22.1719L158.383 30H156.484V18.625H158.391L162.062 26.4219L162.078 18.625H163.969V30Z" fill="#0A090E"/>
<path d="M185.5 32V48H169.5L185.5 32Z" fill="#0A090E"/>
<path d="M0.5 16L0.500001 -1.39876e-06L16.5 0L0.5 16Z" fill="#0A090E"/>
</g>
<defs>
<clipPath id="clip0_4021_2933">
<rect width="185" height="48" fill="white" transform="translate(0.5)"/>
</clipPath>
</defs>
</svg>
