<svg width="332" height="94" viewBox="0 0 332 94" fill="none" xmlns="http://www.w3.org/2000/svg">
<g clip-path="url(#clip0_77_4160)">
<rect width="160" height="48" transform="translate(86 23)" fill="#FF7120"/>
<path d="M114.859 41.625H116.758V49.5234C116.753 50.0547 116.651 50.5443 116.453 50.9922C116.26 51.4349 115.992 51.8177 115.648 52.1406C115.31 52.4635 114.909 52.7135 114.445 52.8906C113.987 53.0677 113.49 53.1562 112.953 53.1562C112.401 53.1562 111.896 53.0807 111.438 52.9297C110.984 52.7734 110.594 52.5495 110.266 52.2578C109.938 51.9661 109.677 51.6042 109.484 51.1719C109.297 50.7396 109.193 50.2422 109.172 49.6797H111.062C111.068 49.9714 111.109 50.2344 111.188 50.4688C111.266 50.6979 111.375 50.8932 111.516 51.0547C111.677 51.2422 111.878 51.3828 112.117 51.4766C112.357 51.5703 112.635 51.6172 112.953 51.6172C113.245 51.6172 113.508 51.5625 113.742 51.4531C113.977 51.3438 114.177 51.1953 114.344 51.0078C114.505 50.8203 114.63 50.599 114.719 50.3438C114.812 50.0833 114.859 49.8099 114.859 49.5234V41.625ZM126.828 48.0703C126.828 48.5286 126.786 48.9714 126.703 49.3984C126.625 49.8255 126.51 50.2292 126.359 50.6094C126.198 50.9896 125.997 51.3411 125.758 51.6641C125.518 51.9818 125.242 52.2552 124.93 52.4844C124.628 52.6927 124.292 52.8568 123.922 52.9766C123.557 53.0964 123.156 53.1562 122.719 53.1562C122.266 53.1562 121.849 53.0938 121.469 52.9688C121.094 52.8385 120.758 52.6615 120.461 52.4375C120.159 52.2083 119.893 51.9323 119.664 51.6094C119.44 51.2865 119.253 50.9323 119.102 50.5469C118.956 50.1771 118.846 49.7839 118.773 49.3672C118.701 48.9453 118.664 48.513 118.664 48.0703V46.5703C118.664 46.1068 118.703 45.6589 118.781 45.2266C118.859 44.7943 118.977 44.3854 119.133 44C119.284 43.6302 119.469 43.2917 119.688 42.9844C119.911 42.6719 120.174 42.401 120.477 42.1719C120.768 41.9479 121.099 41.776 121.469 41.6562C121.844 41.5312 122.255 41.4688 122.703 41.4688C123.156 41.4688 123.573 41.5312 123.953 41.6562C124.333 41.7812 124.674 41.9557 124.977 42.1797C125.279 42.4036 125.542 42.6667 125.766 42.9688C125.99 43.2708 126.177 43.6016 126.328 43.9609C126.495 44.3464 126.62 44.7604 126.703 45.2031C126.786 45.6406 126.828 46.0964 126.828 46.5703V48.0703ZM124.938 46.5547C124.932 46.2682 124.914 45.987 124.883 45.7109C124.857 45.4349 124.81 45.1719 124.742 44.9219C124.664 44.6354 124.56 44.375 124.43 44.1406C124.305 43.901 124.151 43.6979 123.969 43.5312C123.807 43.3854 123.622 43.2708 123.414 43.1875C123.206 43.1042 122.969 43.0625 122.703 43.0625C122.448 43.0625 122.219 43.1042 122.016 43.1875C121.812 43.2656 121.635 43.375 121.484 43.5156C121.302 43.6875 121.148 43.8932 121.023 44.1328C120.898 44.3672 120.802 44.6302 120.734 44.9219C120.672 45.1719 120.625 45.4375 120.594 45.7188C120.568 45.9948 120.555 46.2734 120.555 46.5547V48.0703C120.555 48.3464 120.568 48.6198 120.594 48.8906C120.62 49.1615 120.664 49.4219 120.727 49.6719C120.794 49.9531 120.885 50.2161 121 50.4609C121.12 50.7005 121.263 50.9036 121.43 51.0703C121.591 51.2266 121.776 51.3516 121.984 51.4453C122.198 51.5339 122.443 51.5781 122.719 51.5781C122.984 51.5781 123.224 51.5339 123.438 51.4453C123.656 51.3568 123.844 51.237 124 51.0859C124.182 50.9141 124.333 50.7109 124.453 50.4766C124.578 50.237 124.677 49.974 124.75 49.6875C124.812 49.4375 124.857 49.1771 124.883 48.9062C124.914 48.6302 124.932 48.3516 124.938 48.0703V46.5547ZM129.008 41.625H135.711V43.1797H133.281V51.4531H135.711V53H129.008V51.4531H131.383V43.1797H129.008V41.625ZM145.68 53H143.797L140.102 45.1719L140.094 53H138.195V41.625H140.102L143.773 49.4219L143.789 41.625H145.68V53ZM157.469 53V41.625H160.281C160.771 41.625 161.232 41.6823 161.664 41.7969C162.096 41.9062 162.49 42.0599 162.844 42.2578C163.229 42.4609 163.57 42.7161 163.867 43.0234C164.169 43.3307 164.422 43.6745 164.625 44.0547C164.833 44.4505 164.995 44.8854 165.109 45.3594C165.224 45.8333 165.281 46.3385 165.281 46.875V47.7656C165.281 48.2812 165.227 48.7708 165.117 49.2344C165.013 49.6927 164.862 50.112 164.664 50.4922C164.471 50.862 164.237 51.1979 163.961 51.5C163.69 51.8021 163.388 52.0599 163.055 52.2734C162.68 52.5078 162.263 52.6875 161.805 52.8125C161.352 52.9375 160.865 53 160.344 53H157.469ZM159.367 43.1562V51.4766H160.344C160.677 51.4766 160.982 51.4375 161.258 51.3594C161.539 51.276 161.792 51.1589 162.016 51.0078C162.245 50.8516 162.448 50.6562 162.625 50.4219C162.807 50.1823 162.956 49.9089 163.07 49.6016C163.169 49.3411 163.245 49.0573 163.297 48.75C163.349 48.4427 163.375 48.1146 163.375 47.7656V46.8594C163.375 46.5156 163.349 46.1901 163.297 45.8828C163.245 45.5755 163.169 45.2917 163.07 45.0312C162.945 44.7135 162.779 44.4271 162.57 44.1719C162.362 43.9115 162.115 43.7005 161.828 43.5391C161.62 43.4193 161.385 43.3281 161.125 43.2656C160.865 43.1979 160.583 43.1615 160.281 43.1562H159.367ZM167.445 41.625H174.148V43.1797H171.719V51.4531H174.148V53H167.445V51.4531H169.82V43.1797H167.445V41.625ZM182.703 50.0703C182.703 49.8047 182.648 49.5703 182.539 49.3672C182.43 49.1641 182.276 48.9818 182.078 48.8203C181.87 48.6693 181.622 48.5339 181.336 48.4141C181.055 48.2891 180.74 48.1771 180.391 48.0781C179.854 47.9271 179.359 47.7422 178.906 47.5234C178.458 47.2995 178.076 47.0495 177.758 46.7734C177.44 46.4922 177.19 46.1745 177.008 45.8203C176.831 45.4609 176.742 45.0573 176.742 44.6094C176.742 44.125 176.846 43.6901 177.055 43.3047C177.263 42.9141 177.544 42.5807 177.898 42.3047C178.253 42.0339 178.664 41.8281 179.133 41.6875C179.607 41.5417 180.104 41.4688 180.625 41.4688C181.177 41.4688 181.69 41.5547 182.164 41.7266C182.643 41.8932 183.06 42.1276 183.414 42.4297C183.768 42.737 184.047 43.1042 184.25 43.5312C184.458 43.9531 184.562 44.4219 184.562 44.9375H182.703C182.677 44.651 182.615 44.3906 182.516 44.1562C182.422 43.9167 182.289 43.7109 182.117 43.5391C181.94 43.3724 181.724 43.2422 181.469 43.1484C181.219 43.0495 180.93 43 180.602 43C180.315 43 180.049 43.0391 179.805 43.1172C179.565 43.1901 179.357 43.2943 179.18 43.4297C179.003 43.5703 178.865 43.7396 178.766 43.9375C178.667 44.1354 178.617 44.3568 178.617 44.6016C178.622 44.862 178.69 45.0911 178.82 45.2891C178.951 45.4818 179.125 45.651 179.344 45.7969C179.568 45.9427 179.823 46.0703 180.109 46.1797C180.401 46.2891 180.706 46.3906 181.023 46.4844C181.424 46.599 181.815 46.7422 182.195 46.9141C182.581 47.0807 182.935 47.2839 183.258 47.5234C183.659 47.8255 183.979 48.1875 184.219 48.6094C184.464 49.026 184.586 49.5078 184.586 50.0547C184.586 50.5599 184.479 51.0052 184.266 51.3906C184.057 51.776 183.776 52.0964 183.422 52.3516C183.062 52.6172 182.646 52.8177 182.172 52.9531C181.698 53.0833 181.198 53.1484 180.672 53.1484C180.115 53.1484 179.565 53.0625 179.023 52.8906C178.482 52.7135 178.01 52.4583 177.609 52.125C177.24 51.8125 176.945 51.4453 176.727 51.0234C176.513 50.6016 176.404 50.1172 176.398 49.5703H178.273C178.299 49.9193 178.372 50.224 178.492 50.4844C178.617 50.7396 178.786 50.9505 179 51.1172C179.208 51.2891 179.453 51.4167 179.734 51.5C180.021 51.5833 180.333 51.625 180.672 51.625C180.958 51.625 181.224 51.5911 181.469 51.5234C181.719 51.4557 181.935 51.3542 182.117 51.2188C182.294 51.0885 182.435 50.9271 182.539 50.7344C182.648 50.5417 182.703 50.3203 182.703 50.0703ZM194.062 49.5C194.01 50.0521 193.88 50.5547 193.672 51.0078C193.464 51.4557 193.19 51.8385 192.852 52.1562C192.508 52.4792 192.099 52.7292 191.625 52.9062C191.156 53.0781 190.635 53.1641 190.062 53.1641C189.594 53.1641 189.161 53.1016 188.766 52.9766C188.375 52.8464 188.026 52.6641 187.719 52.4297C187.422 52.2109 187.161 51.9479 186.938 51.6406C186.719 51.3281 186.534 50.987 186.383 50.6172C186.232 50.2526 186.117 49.8568 186.039 49.4297C185.966 49.0026 185.93 48.5573 185.93 48.0938V46.5391C185.93 46.0964 185.966 45.6693 186.039 45.2578C186.112 44.8464 186.221 44.4583 186.367 44.0938C186.523 43.6875 186.724 43.3203 186.969 42.9922C187.219 42.6589 187.505 42.375 187.828 42.1406C188.135 41.9271 188.474 41.7604 188.844 41.6406C189.219 41.5208 189.628 41.4609 190.07 41.4609C190.669 41.4609 191.203 41.5495 191.672 41.7266C192.146 41.9036 192.549 42.1536 192.883 42.4766C193.221 42.8047 193.487 43.2005 193.68 43.6641C193.878 44.1276 194.005 44.6432 194.062 45.2109H192.188C192.156 44.8724 192.091 44.5677 191.992 44.2969C191.898 44.0208 191.768 43.7865 191.602 43.5938C191.43 43.401 191.219 43.2552 190.969 43.1562C190.719 43.0521 190.419 43 190.07 43C189.826 43 189.604 43.0339 189.406 43.1016C189.214 43.1693 189.042 43.2656 188.891 43.3906C188.682 43.5417 188.508 43.7396 188.367 43.9844C188.232 44.224 188.12 44.4922 188.031 44.7891C187.964 45.0495 187.911 45.3281 187.875 45.625C187.844 45.9167 187.828 46.2161 187.828 46.5234V48.0938C187.828 48.474 187.849 48.8307 187.891 49.1641C187.938 49.4974 188.008 49.8021 188.102 50.0781C188.174 50.3073 188.266 50.5156 188.375 50.7031C188.49 50.8906 188.625 51.0521 188.781 51.1875C188.943 51.3333 189.128 51.4453 189.336 51.5234C189.549 51.5964 189.792 51.6328 190.062 51.6328C190.385 51.6328 190.672 51.5859 190.922 51.4922C191.172 51.3984 191.385 51.2604 191.562 51.0781C191.734 50.901 191.872 50.6797 191.977 50.4141C192.081 50.1484 192.148 49.8438 192.18 49.5H194.062ZM203.703 48.0703C203.703 48.5286 203.661 48.9714 203.578 49.3984C203.5 49.8255 203.385 50.2292 203.234 50.6094C203.073 50.9896 202.872 51.3411 202.633 51.6641C202.393 51.9818 202.117 52.2552 201.805 52.4844C201.503 52.6927 201.167 52.8568 200.797 52.9766C200.432 53.0964 200.031 53.1562 199.594 53.1562C199.141 53.1562 198.724 53.0938 198.344 52.9688C197.969 52.8385 197.633 52.6615 197.336 52.4375C197.034 52.2083 196.768 51.9323 196.539 51.6094C196.315 51.2865 196.128 50.9323 195.977 50.5469C195.831 50.1771 195.721 49.7839 195.648 49.3672C195.576 48.9453 195.539 48.513 195.539 48.0703V46.5703C195.539 46.1068 195.578 45.6589 195.656 45.2266C195.734 44.7943 195.852 44.3854 196.008 44C196.159 43.6302 196.344 43.2917 196.562 42.9844C196.786 42.6719 197.049 42.401 197.352 42.1719C197.643 41.9479 197.974 41.776 198.344 41.6562C198.719 41.5312 199.13 41.4688 199.578 41.4688C200.031 41.4688 200.448 41.5312 200.828 41.6562C201.208 41.7812 201.549 41.9557 201.852 42.1797C202.154 42.4036 202.417 42.6667 202.641 42.9688C202.865 43.2708 203.052 43.6016 203.203 43.9609C203.37 44.3464 203.495 44.7604 203.578 45.2031C203.661 45.6406 203.703 46.0964 203.703 46.5703V48.0703ZM201.812 46.5547C201.807 46.2682 201.789 45.987 201.758 45.7109C201.732 45.4349 201.685 45.1719 201.617 44.9219C201.539 44.6354 201.435 44.375 201.305 44.1406C201.18 43.901 201.026 43.6979 200.844 43.5312C200.682 43.3854 200.497 43.2708 200.289 43.1875C200.081 43.1042 199.844 43.0625 199.578 43.0625C199.323 43.0625 199.094 43.1042 198.891 43.1875C198.688 43.2656 198.51 43.375 198.359 43.5156C198.177 43.6875 198.023 43.8932 197.898 44.1328C197.773 44.3672 197.677 44.6302 197.609 44.9219C197.547 45.1719 197.5 45.4375 197.469 45.7188C197.443 45.9948 197.43 46.2734 197.43 46.5547V48.0703C197.43 48.3464 197.443 48.6198 197.469 48.8906C197.495 49.1615 197.539 49.4219 197.602 49.6719C197.669 49.9531 197.76 50.2161 197.875 50.4609C197.995 50.7005 198.138 50.9036 198.305 51.0703C198.466 51.2266 198.651 51.3516 198.859 51.4453C199.073 51.5339 199.318 51.5781 199.594 51.5781C199.859 51.5781 200.099 51.5339 200.312 51.4453C200.531 51.3568 200.719 51.237 200.875 51.0859C201.057 50.9141 201.208 50.7109 201.328 50.4766C201.453 50.237 201.552 49.974 201.625 49.6875C201.688 49.4375 201.732 49.1771 201.758 48.9062C201.789 48.6302 201.807 48.3516 201.812 48.0703V46.5547ZM209.422 48.5859H207.5V53H205.625V41.625H209.234C209.823 41.6302 210.365 41.7057 210.859 41.8516C211.354 41.9974 211.781 42.2109 212.141 42.4922C212.495 42.7786 212.771 43.1354 212.969 43.5625C213.167 43.9844 213.266 44.4792 213.266 45.0469C213.266 45.4375 213.214 45.7917 213.109 46.1094C213.01 46.4271 212.87 46.7135 212.688 46.9688C212.505 47.224 212.286 47.4479 212.031 47.6406C211.776 47.8333 211.492 48 211.18 48.1406L213.609 52.8984V53H211.602L209.422 48.5859ZM207.5 47.0547H209.258C209.591 47.0495 209.891 47 210.156 46.9062C210.427 46.8073 210.656 46.6667 210.844 46.4844C211.01 46.3281 211.141 46.1354 211.234 45.9062C211.328 45.6771 211.375 45.4167 211.375 45.125C211.375 44.7969 211.323 44.5104 211.219 44.2656C211.12 44.0156 210.971 43.8073 210.773 43.6406C210.591 43.4844 210.37 43.3672 210.109 43.2891C209.849 43.2057 209.557 43.1615 209.234 43.1562H207.5V47.0547ZM215.125 53V41.625H217.938C218.427 41.625 218.888 41.6823 219.32 41.7969C219.753 41.9062 220.146 42.0599 220.5 42.2578C220.885 42.4609 221.227 42.7161 221.523 43.0234C221.826 43.3307 222.078 43.6745 222.281 44.0547C222.49 44.4505 222.651 44.8854 222.766 45.3594C222.88 45.8333 222.938 46.3385 222.938 46.875V47.7656C222.938 48.2812 222.883 48.7708 222.773 49.2344C222.669 49.6927 222.518 50.112 222.32 50.4922C222.128 50.862 221.893 51.1979 221.617 51.5C221.346 51.8021 221.044 52.0599 220.711 52.2734C220.336 52.5078 219.919 52.6875 219.461 52.8125C219.008 52.9375 218.521 53 218 53H215.125ZM217.023 43.1562V51.4766H218C218.333 51.4766 218.638 51.4375 218.914 51.3594C219.195 51.276 219.448 51.1589 219.672 51.0078C219.901 50.8516 220.104 50.6562 220.281 50.4219C220.464 50.1823 220.612 49.9089 220.727 49.6016C220.826 49.3411 220.901 49.0573 220.953 48.75C221.005 48.4427 221.031 48.1146 221.031 47.7656V46.8594C221.031 46.5156 221.005 46.1901 220.953 45.8828C220.901 45.5755 220.826 45.2917 220.727 45.0312C220.602 44.7135 220.435 44.4271 220.227 44.1719C220.018 43.9115 219.771 43.7005 219.484 43.5391C219.276 43.4193 219.042 43.3281 218.781 43.2656C218.521 43.1979 218.24 43.1615 217.938 43.1562H217.023Z" fill="#0A090E"/>
<path d="M246 55V71H230L246 55Z" fill="#0A090E"/>
<path d="M86 39L86 23L102 23L86 39Z" fill="#0A090E"/>
</g>
<defs>
<clipPath id="clip0_77_4160">
<rect width="160" height="48" fill="white" transform="translate(86 23)"/>
</clipPath>
</defs>
</svg>
