<svg width="184" height="48" viewBox="0 0 184 48" fill="none" xmlns="http://www.w3.org/2000/svg">
<g clip-path="url(#clip0_77_3708)">
<rect width="184" height="48" fill="#FF7120"/>
<path d="M24.25 30.1562C23.5729 30.1562 22.9531 30.0365 22.3906 29.7969C21.8333 29.5521 21.3906 29.1875 21.0625 28.7031C20.7344 28.2188 20.5703 27.6198 20.5703 26.9062V26.7266H22.6641V26.9062C22.6641 27.2188 22.7292 27.4896 22.8594 27.7188C22.9948 27.9479 23.1823 28.1224 23.4219 28.2422C23.6615 28.362 23.9375 28.4219 24.25 28.4219C24.5885 28.4219 24.875 28.3516 25.1094 28.2109C25.349 28.0703 25.5286 27.8594 25.6484 27.5781C25.7734 27.2969 25.8359 26.9531 25.8359 26.5469V18.3594H27.9219V26.5469C27.9219 27.2969 27.7708 27.9427 27.4688 28.4844C27.1719 29.0208 26.7474 29.4349 26.1953 29.7266C25.6484 30.013 25 30.1562 24.25 30.1562ZM34.6797 30.1562C33.6641 30.1562 32.75 29.9193 31.9375 29.4453C31.1302 28.9714 30.4922 28.2891 30.0234 27.3984C29.5599 26.5078 29.3281 25.4375 29.3281 24.1875C29.3281 22.9323 29.5599 21.8594 30.0234 20.9688C30.4922 20.0729 31.1302 19.388 31.9375 18.9141C32.75 18.4401 33.6641 18.2031 34.6797 18.2031C35.7005 18.2031 36.612 18.4401 37.4141 18.9141C38.2161 19.388 38.8516 20.0729 39.3203 20.9688C39.7891 21.8594 40.0234 22.9323 40.0234 24.1875C40.0234 25.4375 39.7891 26.5078 39.3203 27.3984C38.8516 28.2891 38.2161 28.9714 37.4141 29.4453C36.612 29.9193 35.7005 30.1562 34.6797 30.1562ZM34.6797 28.2656C35.3099 28.2656 35.8672 28.1094 36.3516 27.7969C36.8359 27.4844 37.2161 27.026 37.4922 26.4219C37.7682 25.8125 37.9062 25.0677 37.9062 24.1875C37.9062 23.3021 37.7682 22.5547 37.4922 21.9453C37.2161 21.3359 36.8359 20.875 36.3516 20.5625C35.8672 20.25 35.3099 20.0938 34.6797 20.0938C34.0495 20.0938 33.4896 20.25 33 20.5625C32.5156 20.875 32.1354 21.3359 31.8594 21.9453C31.5833 22.5547 31.4453 23.3021 31.4453 24.1875C31.4453 25.0677 31.5833 25.8125 31.8594 26.4219C32.1354 27.026 32.5156 27.4844 33 27.7969C33.4896 28.1094 34.0495 28.2656 34.6797 28.2656ZM43.5234 18.3594V30H41.4141V18.3594H43.5234ZM54.7891 18.3594V30H52.8984L47.4219 22.0703H47.3203V30H45.2109V18.3594H47.1016L52.5781 26.2891H52.6797V18.3594H54.7891ZM64.9141 30.1562C63.8984 30.1562 62.9844 29.9193 62.1719 29.4453C61.3646 28.9714 60.7266 28.2891 60.2578 27.3984C59.7943 26.5078 59.5625 25.4375 59.5625 24.1875C59.5625 22.9323 59.7943 21.8594 60.2578 20.9688C60.7266 20.0729 61.3646 19.388 62.1719 18.9141C62.9844 18.4401 63.8984 18.2031 64.9141 18.2031C65.9349 18.2031 66.8464 18.4401 67.6484 18.9141C68.4505 19.388 69.0859 20.0729 69.5547 20.9688C70.0234 21.8594 70.2578 22.9323 70.2578 24.1875C70.2578 25.4375 70.0234 26.5078 69.5547 27.3984C69.0859 28.2891 68.4505 28.9714 67.6484 29.4453C66.8464 29.9193 65.9349 30.1562 64.9141 30.1562ZM64.9141 28.2656C65.5443 28.2656 66.1016 28.1094 66.5859 27.7969C67.0703 27.4844 67.4505 27.026 67.7266 26.4219C68.0026 25.8125 68.1406 25.0677 68.1406 24.1875C68.1406 23.3021 68.0026 22.5547 67.7266 21.9453C67.4505 21.3359 67.0703 20.875 66.5859 20.5625C66.1016 20.25 65.5443 20.0938 64.9141 20.0938C64.2839 20.0938 63.724 20.25 63.2344 20.5625C62.75 20.875 62.3698 21.3359 62.0938 21.9453C61.8177 22.5547 61.6797 23.3021 61.6797 24.1875C61.6797 25.0677 61.8177 25.8125 62.0938 26.4219C62.3698 27.026 62.75 27.4844 63.2344 27.7969C63.724 28.1094 64.2839 28.2656 64.9141 28.2656ZM78.9922 18.3594H81.0938V25.9609C81.0938 26.7943 80.8984 27.5286 80.5078 28.1641C80.1172 28.7943 79.5677 29.2891 78.8594 29.6484C78.151 30.0026 77.3229 30.1797 76.375 30.1797C75.4271 30.1797 74.599 30.0026 73.8906 29.6484C73.1823 29.2891 72.6302 28.7943 72.2344 28.1641C71.8438 27.5286 71.6484 26.7943 71.6484 25.9609V18.3594H73.7578V25.7891C73.7578 26.2786 73.8646 26.7109 74.0781 27.0859C74.2917 27.4609 74.5938 27.7578 74.9844 27.9766C75.3802 28.1901 75.8438 28.2969 76.375 28.2969C76.9062 28.2969 77.3672 28.1901 77.7578 27.9766C78.1484 27.7578 78.4505 27.4609 78.6641 27.0859C78.8828 26.7109 78.9922 26.2786 78.9922 25.7891V18.3594ZM82.7891 30V18.3594H87.1562C88.0521 18.3594 88.8021 18.5156 89.4062 18.8281C90.0156 19.1406 90.4766 19.5781 90.7891 20.1406C91.1016 20.6979 91.2578 21.3464 91.2578 22.0859C91.2578 22.8307 91.099 23.4766 90.7812 24.0234C90.4688 24.5703 90.0052 24.9922 89.3906 25.2891C88.776 25.5859 88.0208 25.7344 87.125 25.7344H84.0234V23.9922H86.8359C87.362 23.9922 87.7917 23.9193 88.125 23.7734C88.4635 23.6276 88.7109 23.4141 88.8672 23.1328C89.0286 22.8464 89.1094 22.4974 89.1094 22.0859C89.1094 21.6745 89.0286 21.3229 88.8672 21.0312C88.7057 20.7344 88.4583 20.5104 88.125 20.3594C87.7917 20.2031 87.3594 20.125 86.8281 20.125H84.8984V30H82.7891ZM89.3281 30L86.5078 24.7188H88.8047L91.6875 30H89.3281ZM99.9297 30H96.9766V28.1719H99.8203C100.628 28.1719 101.302 28.026 101.844 27.7344C102.391 27.4375 102.799 26.9922 103.07 26.3984C103.346 25.8047 103.484 25.0625 103.484 24.1719C103.484 23.2812 103.349 22.5417 103.078 21.9531C102.807 21.3646 102.404 20.9245 101.867 20.6328C101.331 20.3359 100.667 20.1875 99.875 20.1875H96.9141V18.3594H100C101.156 18.3594 102.148 18.5911 102.977 19.0547C103.81 19.5182 104.451 20.1849 104.898 21.0547C105.346 21.9245 105.57 22.9635 105.57 24.1719C105.57 25.3802 105.346 26.4219 104.898 27.2969C104.451 28.1667 103.805 28.8359 102.961 29.3047C102.122 29.7682 101.112 30 99.9297 30ZM98.0859 18.3594V30H95.9766V18.3594H98.0859ZM109.07 18.3594V30H106.961V18.3594H109.07ZM114.867 30.1797C113.961 30.1797 113.174 30.0391 112.508 29.7578C111.841 29.4766 111.32 29.0677 110.945 28.5312C110.57 27.9896 110.367 27.3333 110.336 26.5625H112.414C112.445 26.9688 112.57 27.3073 112.789 27.5781C113.008 27.8438 113.294 28.0443 113.648 28.1797C114.008 28.3151 114.406 28.3828 114.844 28.3828C115.302 28.3828 115.706 28.3125 116.055 28.1719C116.404 28.0312 116.677 27.8359 116.875 27.5859C117.073 27.3359 117.172 27.0443 117.172 26.7109C117.172 26.4089 117.083 26.1615 116.906 25.9688C116.729 25.7708 116.484 25.6042 116.172 25.4688C115.859 25.3333 115.492 25.2135 115.07 25.1094L113.75 24.7656C112.792 24.5208 112.036 24.1484 111.484 23.6484C110.932 23.1432 110.656 22.4714 110.656 21.6328C110.656 20.9453 110.841 20.3464 111.211 19.8359C111.581 19.3203 112.086 18.9193 112.727 18.6328C113.372 18.3464 114.102 18.2031 114.914 18.2031C115.742 18.2031 116.469 18.3464 117.094 18.6328C117.719 18.9193 118.208 19.3151 118.562 19.8203C118.917 20.3255 119.102 20.9062 119.117 21.5625H117.078C117.026 21.0625 116.805 20.6771 116.414 20.4062C116.029 20.1302 115.521 19.9922 114.891 19.9922C114.453 19.9922 114.076 20.0573 113.758 20.1875C113.445 20.3177 113.206 20.4974 113.039 20.7266C112.872 20.9557 112.789 21.2161 112.789 21.5078C112.789 21.8307 112.885 22.0964 113.078 22.3047C113.276 22.5078 113.526 22.6719 113.828 22.7969C114.135 22.9219 114.448 23.026 114.766 23.1094L115.852 23.3828C116.289 23.487 116.711 23.6276 117.117 23.8047C117.523 23.9766 117.888 24.1953 118.211 24.4609C118.539 24.7214 118.797 25.0391 118.984 25.4141C119.177 25.7891 119.273 26.2292 119.273 26.7344C119.273 27.4115 119.099 28.0104 118.75 28.5312C118.401 29.0469 117.898 29.4505 117.242 29.7422C116.586 30.0339 115.794 30.1797 114.867 30.1797ZM125.578 30.1562C124.557 30.1562 123.643 29.9193 122.836 29.4453C122.034 28.9714 121.401 28.2891 120.938 27.3984C120.479 26.5078 120.25 25.4375 120.25 24.1875C120.25 22.9323 120.482 21.8594 120.945 20.9688C121.414 20.0729 122.049 19.388 122.852 18.9141C123.659 18.4401 124.568 18.2031 125.578 18.2031C126.219 18.2031 126.818 18.2943 127.375 18.4766C127.938 18.6589 128.438 18.9271 128.875 19.2812C129.312 19.6302 129.669 20.0599 129.945 20.5703C130.227 21.0755 130.411 21.651 130.5 22.2969H128.375C128.318 21.9427 128.206 21.6302 128.039 21.3594C127.878 21.0885 127.674 20.8594 127.43 20.6719C127.19 20.4792 126.917 20.3359 126.609 20.2422C126.302 20.1432 125.971 20.0938 125.617 20.0938C124.982 20.0938 124.419 20.2526 123.93 20.5703C123.44 20.8828 123.057 21.3464 122.781 21.9609C122.505 22.5703 122.367 23.3125 122.367 24.1875C122.367 25.0729 122.505 25.8203 122.781 26.4297C123.062 27.0339 123.445 27.4922 123.93 27.8047C124.419 28.112 124.979 28.2656 125.609 28.2656C125.958 28.2656 126.284 28.2214 126.586 28.1328C126.888 28.0391 127.161 27.901 127.406 27.7188C127.656 27.5312 127.862 27.3073 128.023 27.0469C128.19 26.7812 128.307 26.4766 128.375 26.1328H130.5C130.422 26.6901 130.25 27.2135 129.984 27.7031C129.724 28.1875 129.38 28.6146 128.953 28.9844C128.531 29.349 128.036 29.6354 127.469 29.8438C126.901 30.0521 126.271 30.1562 125.578 30.1562ZM136.914 30.1562C135.898 30.1562 134.984 29.9193 134.172 29.4453C133.365 28.9714 132.727 28.2891 132.258 27.3984C131.794 26.5078 131.562 25.4375 131.562 24.1875C131.562 22.9323 131.794 21.8594 132.258 20.9688C132.727 20.0729 133.365 19.388 134.172 18.9141C134.984 18.4401 135.898 18.2031 136.914 18.2031C137.935 18.2031 138.846 18.4401 139.648 18.9141C140.451 19.388 141.086 20.0729 141.555 20.9688C142.023 21.8594 142.258 22.9323 142.258 24.1875C142.258 25.4375 142.023 26.5078 141.555 27.3984C141.086 28.2891 140.451 28.9714 139.648 29.4453C138.846 29.9193 137.935 30.1562 136.914 30.1562ZM136.914 28.2656C137.544 28.2656 138.102 28.1094 138.586 27.7969C139.07 27.4844 139.451 27.026 139.727 26.4219C140.003 25.8125 140.141 25.0677 140.141 24.1875C140.141 23.3021 140.003 22.5547 139.727 21.9453C139.451 21.3359 139.07 20.875 138.586 20.5625C138.102 20.25 137.544 20.0938 136.914 20.0938C136.284 20.0938 135.724 20.25 135.234 20.5625C134.75 20.875 134.37 21.3359 134.094 21.9453C133.818 22.5547 133.68 23.3021 133.68 24.1875C133.68 25.0677 133.818 25.8125 134.094 26.4219C134.37 27.026 134.75 27.4844 135.234 27.7969C135.724 28.1094 136.284 28.2656 136.914 28.2656ZM143.648 30V18.3594H148.016C148.911 18.3594 149.661 18.5156 150.266 18.8281C150.875 19.1406 151.336 19.5781 151.648 20.1406C151.961 20.6979 152.117 21.3464 152.117 22.0859C152.117 22.8307 151.958 23.4766 151.641 24.0234C151.328 24.5703 150.865 24.9922 150.25 25.2891C149.635 25.5859 148.88 25.7344 147.984 25.7344H144.883V23.9922H147.695C148.221 23.9922 148.651 23.9193 148.984 23.7734C149.323 23.6276 149.57 23.4141 149.727 23.1328C149.888 22.8464 149.969 22.4974 149.969 22.0859C149.969 21.6745 149.888 21.3229 149.727 21.0312C149.565 20.7344 149.318 20.5104 148.984 20.3594C148.651 20.2031 148.219 20.125 147.688 20.125H145.758V30H143.648ZM150.188 30L147.367 24.7188H149.664L152.547 30H150.188ZM157.414 30H154.461V28.1719H157.305C158.112 28.1719 158.786 28.026 159.328 27.7344C159.875 27.4375 160.284 26.9922 160.555 26.3984C160.831 25.8047 160.969 25.0625 160.969 24.1719C160.969 23.2812 160.833 22.5417 160.562 21.9531C160.292 21.3646 159.888 20.9245 159.352 20.6328C158.815 20.3359 158.151 20.1875 157.359 20.1875H154.398V18.3594H157.484C158.641 18.3594 159.633 18.5911 160.461 19.0547C161.294 19.5182 161.935 20.1849 162.383 21.0547C162.831 21.9245 163.055 22.9635 163.055 24.1719C163.055 25.3802 162.831 26.4219 162.383 27.2969C161.935 28.1667 161.289 28.8359 160.445 29.3047C159.607 29.7682 158.596 30 157.414 30ZM155.57 18.3594V30H153.461V18.3594H155.57Z" fill="#0A090E"/>
<path d="M184 32V48H168L184 32Z" fill="#0A090E"/>
<path d="M0 16L1.39876e-06 -1.39876e-06L16 0L0 16Z" fill="#0A090E"/>
</g>
<defs>
<clipPath id="clip0_77_3708">
<rect width="184" height="48" fill="white"/>
</clipPath>
</defs>
</svg>
