<svg width="108" height="48" viewBox="0 0 108 48" fill="none" xmlns="http://www.w3.org/2000/svg">
<g clip-path="url(#clip0_4021_2933)">
<rect width="108" height="48" fill="#FF7120"/>
<path d="M21.5156 30V18.625H25.1562C25.7083 18.625 26.2266 18.6875 26.7109 18.8125C27.1953 18.9323 27.6146 19.1172 27.9688 19.3672C28.3229 19.6172 28.599 19.9375 28.7969 20.3281C29 20.7135 29.1016 21.1719 29.1016 21.7031C29.0964 22.026 29.0391 22.3281 28.9297 22.6094C28.8255 22.8854 28.6745 23.1302 28.4766 23.3438C28.3359 23.5 28.1771 23.638 28 23.7578C27.8281 23.8724 27.6276 23.9766 27.3984 24.0703V24.0859C27.737 24.1745 28.026 24.3047 28.2656 24.4766C28.5052 24.6432 28.7057 24.8333 28.8672 25.0469C29.0339 25.276 29.1589 25.5312 29.2422 25.8125C29.3307 26.0885 29.375 26.3802 29.375 26.6875C29.3802 27.2292 29.2839 27.7057 29.0859 28.1172C28.888 28.5286 28.6146 28.8724 28.2656 29.1484C27.9167 29.4297 27.5 29.6432 27.0156 29.7891C26.5365 29.9297 26.0156 30 25.4531 30H21.5156ZM23.4062 24.8594V28.4531H25.4688C25.7656 28.4531 26.0365 28.4115 26.2812 28.3281C26.526 28.2448 26.7344 28.1302 26.9062 27.9844C27.0938 27.8333 27.237 27.6484 27.3359 27.4297C27.4401 27.2057 27.4922 26.9583 27.4922 26.6875C27.4922 26.401 27.4505 26.1484 27.3672 25.9297C27.2839 25.7057 27.1589 25.5156 26.9922 25.3594C26.8255 25.2031 26.6224 25.0833 26.3828 25C26.1432 24.9115 25.8698 24.8646 25.5625 24.8594H23.4062ZM23.4062 23.4297H25.1953C25.5026 23.4245 25.7839 23.3828 26.0391 23.3047C26.2995 23.2266 26.5182 23.112 26.6953 22.9609C26.8568 22.8255 26.9844 22.6615 27.0781 22.4688C27.1719 22.276 27.2188 22.0547 27.2188 21.8047C27.2188 21.5391 27.1745 21.3099 27.0859 21.1172C27.0026 20.9193 26.8828 20.7578 26.7266 20.6328C26.5495 20.4766 26.3281 20.3646 26.0625 20.2969C25.7969 20.224 25.5026 20.1849 25.1797 20.1797H23.4062V23.4297ZM38.5391 18.625L38.5469 26.2344C38.5469 26.8229 38.4557 27.3594 38.2734 27.8438C38.0964 28.3229 37.8438 28.7344 37.5156 29.0781C37.1823 29.4219 36.7812 29.6875 36.3125 29.875C35.849 30.0625 35.3281 30.1562 34.75 30.1562C34.1823 30.1562 33.6693 30.0651 33.2109 29.8828C32.7526 29.6953 32.362 29.4297 32.0391 29.0859C31.7109 28.7422 31.4557 28.3281 31.2734 27.8438C31.0964 27.3594 31.0052 26.8229 31 26.2344L31.0156 18.625H32.8672L32.8828 26.2344C32.888 26.5938 32.9323 26.9245 33.0156 27.2266C33.099 27.5234 33.2214 27.776 33.3828 27.9844C33.5391 28.1823 33.7292 28.3385 33.9531 28.4531C34.1823 28.5625 34.4479 28.6172 34.75 28.6172C35.0573 28.6172 35.3281 28.5625 35.5625 28.4531C35.8021 28.3385 36.0026 28.1771 36.1641 27.9688C36.3255 27.7552 36.4479 27.5026 36.5312 27.2109C36.6146 26.9141 36.6615 26.5885 36.6719 26.2344L36.6875 18.625H38.5391ZM44.4141 24.0625L46.7969 18.625H48.8906L45.3281 25.9375L45.3125 30H43.4766L43.4688 25.8828L39.9375 18.625H42.0234L44.4141 24.0625ZM67.3125 30H65.4297L61.7344 22.1719L61.7266 30H59.8281V18.625H61.7344L65.4062 26.4219L65.4219 18.625H67.3125V30ZM77.2891 25.0703C77.2891 25.5286 77.2474 25.9714 77.1641 26.3984C77.0859 26.8255 76.9714 27.2292 76.8203 27.6094C76.6589 27.9896 76.4583 28.3411 76.2188 28.6641C75.9792 28.9818 75.7031 29.2552 75.3906 29.4844C75.0885 29.6927 74.7526 29.8568 74.3828 29.9766C74.0182 30.0964 73.6172 30.1562 73.1797 30.1562C72.7266 30.1562 72.3099 30.0938 71.9297 29.9688C71.5547 29.8385 71.2188 29.6615 70.9219 29.4375C70.6198 29.2083 70.3542 28.9323 70.125 28.6094C69.901 28.2865 69.7135 27.9323 69.5625 27.5469C69.4167 27.1771 69.3073 26.7839 69.2344 26.3672C69.1615 25.9453 69.125 25.513 69.125 25.0703V23.5703C69.125 23.1068 69.1641 22.6589 69.2422 22.2266C69.3203 21.7943 69.4375 21.3854 69.5938 21C69.7448 20.6302 69.9297 20.2917 70.1484 19.9844C70.3724 19.6719 70.6354 19.401 70.9375 19.1719C71.2292 18.9479 71.5599 18.776 71.9297 18.6562C72.3047 18.5312 72.7161 18.4688 73.1641 18.4688C73.6172 18.4688 74.0339 18.5312 74.4141 18.6562C74.7943 18.7812 75.1354 18.9557 75.4375 19.1797C75.7396 19.4036 76.0026 19.6667 76.2266 19.9688C76.4505 20.2708 76.638 20.6016 76.7891 20.9609C76.9557 21.3464 77.0807 21.7604 77.1641 22.2031C77.2474 22.6406 77.2891 23.0964 77.2891 23.5703V25.0703ZM75.3984 23.5547C75.3932 23.2682 75.375 22.987 75.3438 22.7109C75.3177 22.4349 75.2708 22.1719 75.2031 21.9219C75.125 21.6354 75.0208 21.375 74.8906 21.1406C74.7656 20.901 74.612 20.6979 74.4297 20.5312C74.2682 20.3854 74.0833 20.2708 73.875 20.1875C73.6667 20.1042 73.4297 20.0625 73.1641 20.0625C72.9089 20.0625 72.6797 20.1042 72.4766 20.1875C72.2734 20.2656 72.0964 20.375 71.9453 20.5156C71.763 20.6875 71.6094 20.8932 71.4844 21.1328C71.3594 21.3672 71.263 21.6302 71.1953 21.9219C71.1328 22.1719 71.0859 22.4375 71.0547 22.7188C71.0286 22.9948 71.0156 23.2734 71.0156 23.5547V25.0703C71.0156 25.3464 71.0286 25.6198 71.0547 25.8906C71.0807 26.1615 71.125 26.4219 71.1875 26.6719C71.2552 26.9531 71.3464 27.2161 71.4609 27.4609C71.5807 27.7005 71.724 27.9036 71.8906 28.0703C72.0521 28.2266 72.237 28.3516 72.4453 28.4453C72.6589 28.5339 72.9036 28.5781 73.1797 28.5781C73.4453 28.5781 73.6849 28.5339 73.8984 28.4453C74.1172 28.3568 74.3047 28.237 74.4609 28.0859C74.6432 27.9141 74.7943 27.7109 74.9141 27.4766C75.0391 27.237 75.138 26.974 75.2109 26.6875C75.2734 26.4375 75.3177 26.1771 75.3438 25.9062C75.375 25.6302 75.3932 25.3516 75.3984 25.0703V23.5547ZM79.8672 30L78.3828 18.625H80.125L80.9062 25.6094L80.9609 26.0547L81.0391 25.5859L82.1328 18.625H83.5703L84.7031 25.6172L84.7812 26.0859L84.8359 25.6094L85.625 18.625H87.375L85.875 30H84.1016L82.9453 23.0391L82.8672 22.5L82.7812 23.0391L81.6406 30H79.8672Z" fill="#0A090E"/>
<path d="M108 32V48H92L108 32Z" fill="#0A090E"/>
<path d="M0 16L1.39876e-06 -1.39876e-06L16 0L0 16Z" fill="#0A090E"/>
</g>
<defs>
<clipPath id="clip0_4021_2933">
<rect width="108" height="48" fill="white"/>
</clipPath>
</defs>
</svg>
