<svg width="156" height="48" viewBox="0 0 156 48" fill="none" xmlns="http://www.w3.org/2000/svg">
<g clip-path="url(#clip0_87_4659)">
<rect width="156" height="48" fill="#FF7120"/>
<path d="M26.8594 18.625H28.7578V26.5234C28.7526 27.0547 28.651 27.5443 28.4531 27.9922C28.2604 28.4349 27.9922 28.8177 27.6484 29.1406C27.3099 29.4635 26.9089 29.7135 26.4453 29.8906C25.987 30.0677 25.4896 30.1562 24.9531 30.1562C24.401 30.1562 23.8958 30.0807 23.4375 29.9297C22.9844 29.7734 22.5938 29.5495 22.2656 29.2578C21.9375 28.9661 21.6771 28.6042 21.4844 28.1719C21.2969 27.7396 21.1927 27.2422 21.1719 26.6797H23.0625C23.0677 26.9714 23.1094 27.2344 23.1875 27.4688C23.2656 27.6979 23.375 27.8932 23.5156 28.0547C23.6771 28.2422 23.8776 28.3828 24.1172 28.4766C24.3568 28.5703 24.6354 28.6172 24.9531 28.6172C25.2448 28.6172 25.5078 28.5625 25.7422 28.4531C25.9766 28.3438 26.1771 28.1953 26.3438 28.0078C26.5052 27.8203 26.6302 27.599 26.7188 27.3438C26.8125 27.0833 26.8594 26.8099 26.8594 26.5234V18.625ZM38.8281 25.0703C38.8281 25.5286 38.7865 25.9714 38.7031 26.3984C38.625 26.8255 38.5104 27.2292 38.3594 27.6094C38.1979 27.9896 37.9974 28.3411 37.7578 28.6641C37.5182 28.9818 37.2422 29.2552 36.9297 29.4844C36.6276 29.6927 36.2917 29.8568 35.9219 29.9766C35.5573 30.0964 35.1562 30.1562 34.7188 30.1562C34.2656 30.1562 33.849 30.0938 33.4688 29.9688C33.0938 29.8385 32.7578 29.6615 32.4609 29.4375C32.1589 29.2083 31.8932 28.9323 31.6641 28.6094C31.4401 28.2865 31.2526 27.9323 31.1016 27.5469C30.9557 27.1771 30.8464 26.7839 30.7734 26.3672C30.7005 25.9453 30.6641 25.513 30.6641 25.0703V23.5703C30.6641 23.1068 30.7031 22.6589 30.7812 22.2266C30.8594 21.7943 30.9766 21.3854 31.1328 21C31.2839 20.6302 31.4688 20.2917 31.6875 19.9844C31.9115 19.6719 32.1745 19.401 32.4766 19.1719C32.7682 18.9479 33.099 18.776 33.4688 18.6562C33.8438 18.5312 34.2552 18.4688 34.7031 18.4688C35.1562 18.4688 35.5729 18.5312 35.9531 18.6562C36.3333 18.7812 36.6745 18.9557 36.9766 19.1797C37.2786 19.4036 37.5417 19.6667 37.7656 19.9688C37.9896 20.2708 38.1771 20.6016 38.3281 20.9609C38.4948 21.3464 38.6198 21.7604 38.7031 22.2031C38.7865 22.6406 38.8281 23.0964 38.8281 23.5703V25.0703ZM36.9375 23.5547C36.9323 23.2682 36.9141 22.987 36.8828 22.7109C36.8568 22.4349 36.8099 22.1719 36.7422 21.9219C36.6641 21.6354 36.5599 21.375 36.4297 21.1406C36.3047 20.901 36.151 20.6979 35.9688 20.5312C35.8073 20.3854 35.6224 20.2708 35.4141 20.1875C35.2057 20.1042 34.9688 20.0625 34.7031 20.0625C34.4479 20.0625 34.2188 20.1042 34.0156 20.1875C33.8125 20.2656 33.6354 20.375 33.4844 20.5156C33.3021 20.6875 33.1484 20.8932 33.0234 21.1328C32.8984 21.3672 32.8021 21.6302 32.7344 21.9219C32.6719 22.1719 32.625 22.4375 32.5938 22.7188C32.5677 22.9948 32.5547 23.2734 32.5547 23.5547V25.0703C32.5547 25.3464 32.5677 25.6198 32.5938 25.8906C32.6198 26.1615 32.6641 26.4219 32.7266 26.6719C32.7943 26.9531 32.8854 27.2161 33 27.4609C33.1198 27.7005 33.263 27.9036 33.4297 28.0703C33.5911 28.2266 33.776 28.3516 33.9844 28.4453C34.1979 28.5339 34.4427 28.5781 34.7188 28.5781C34.9844 28.5781 35.224 28.5339 35.4375 28.4453C35.6562 28.3568 35.8438 28.237 36 28.0859C36.1823 27.9141 36.3333 27.7109 36.4531 27.4766C36.5781 27.237 36.6771 26.974 36.75 26.6875C36.8125 26.4375 36.8568 26.1771 36.8828 25.9062C36.9141 25.6302 36.9323 25.3516 36.9375 25.0703V23.5547ZM41.0078 18.625H47.7109V20.1797H45.2812V28.4531H47.7109V30H41.0078V28.4531H43.3828V20.1797H41.0078V18.625ZM57.6797 30H55.7969L52.1016 22.1719L52.0938 30H50.1953V18.625H52.1016L55.7734 26.4219L55.7891 18.625H57.6797V30ZM69.4688 30V18.625H72.2812C72.7708 18.625 73.2318 18.6823 73.6641 18.7969C74.0964 18.9062 74.4896 19.0599 74.8438 19.2578C75.2292 19.4609 75.5703 19.7161 75.8672 20.0234C76.1693 20.3307 76.4219 20.6745 76.625 21.0547C76.8333 21.4505 76.9948 21.8854 77.1094 22.3594C77.224 22.8333 77.2812 23.3385 77.2812 23.875V24.7656C77.2812 25.2812 77.2266 25.7708 77.1172 26.2344C77.013 26.6927 76.862 27.112 76.6641 27.4922C76.4714 27.862 76.237 28.1979 75.9609 28.5C75.6901 28.8021 75.388 29.0599 75.0547 29.2734C74.6797 29.5078 74.263 29.6875 73.8047 29.8125C73.3516 29.9375 72.8646 30 72.3438 30H69.4688ZM71.3672 20.1562V28.4766H72.3438C72.6771 28.4766 72.9818 28.4375 73.2578 28.3594C73.5391 28.276 73.7917 28.1589 74.0156 28.0078C74.2448 27.8516 74.4479 27.6562 74.625 27.4219C74.8073 27.1823 74.9557 26.9089 75.0703 26.6016C75.1693 26.3411 75.2448 26.0573 75.2969 25.75C75.349 25.4427 75.375 25.1146 75.375 24.7656V23.8594C75.375 23.5156 75.349 23.1901 75.2969 22.8828C75.2448 22.5755 75.1693 22.2917 75.0703 22.0312C74.9453 21.7135 74.7786 21.4271 74.5703 21.1719C74.362 20.9115 74.1146 20.7005 73.8281 20.5391C73.6198 20.4193 73.3854 20.3281 73.125 20.2656C72.8646 20.1979 72.5833 20.1615 72.2812 20.1562H71.3672ZM79.4453 18.625H86.1484V20.1797H83.7188V28.4531H86.1484V30H79.4453V28.4531H81.8203V20.1797H79.4453V18.625ZM94.7031 27.0703C94.7031 26.8047 94.6484 26.5703 94.5391 26.3672C94.4297 26.1641 94.276 25.9818 94.0781 25.8203C93.8698 25.6693 93.6224 25.5339 93.3359 25.4141C93.0547 25.2891 92.7396 25.1771 92.3906 25.0781C91.8542 24.9271 91.3594 24.7422 90.9062 24.5234C90.4583 24.2995 90.0755 24.0495 89.7578 23.7734C89.4401 23.4922 89.1901 23.1745 89.0078 22.8203C88.8307 22.4609 88.7422 22.0573 88.7422 21.6094C88.7422 21.125 88.8464 20.6901 89.0547 20.3047C89.263 19.9141 89.5443 19.5807 89.8984 19.3047C90.2526 19.0339 90.6641 18.8281 91.1328 18.6875C91.6068 18.5417 92.1042 18.4688 92.625 18.4688C93.1771 18.4688 93.6901 18.5547 94.1641 18.7266C94.6432 18.8932 95.0599 19.1276 95.4141 19.4297C95.7682 19.737 96.0469 20.1042 96.25 20.5312C96.4583 20.9531 96.5625 21.4219 96.5625 21.9375H94.7031C94.6771 21.651 94.6146 21.3906 94.5156 21.1562C94.4219 20.9167 94.2891 20.7109 94.1172 20.5391C93.9401 20.3724 93.724 20.2422 93.4688 20.1484C93.2188 20.0495 92.9297 20 92.6016 20C92.3151 20 92.0495 20.0391 91.8047 20.1172C91.5651 20.1901 91.3568 20.2943 91.1797 20.4297C91.0026 20.5703 90.8646 20.7396 90.7656 20.9375C90.6667 21.1354 90.6172 21.3568 90.6172 21.6016C90.6224 21.862 90.6901 22.0911 90.8203 22.2891C90.9505 22.4818 91.125 22.651 91.3438 22.7969C91.5677 22.9427 91.8229 23.0703 92.1094 23.1797C92.401 23.2891 92.7057 23.3906 93.0234 23.4844C93.4245 23.599 93.8151 23.7422 94.1953 23.9141C94.5807 24.0807 94.9349 24.2839 95.2578 24.5234C95.6589 24.8255 95.9792 25.1875 96.2188 25.6094C96.4635 26.026 96.5859 26.5078 96.5859 27.0547C96.5859 27.5599 96.4792 28.0052 96.2656 28.3906C96.0573 28.776 95.776 29.0964 95.4219 29.3516C95.0625 29.6172 94.6458 29.8177 94.1719 29.9531C93.6979 30.0833 93.1979 30.1484 92.6719 30.1484C92.1146 30.1484 91.5651 30.0625 91.0234 29.8906C90.4818 29.7135 90.0104 29.4583 89.6094 29.125C89.2396 28.8125 88.9453 28.4453 88.7266 28.0234C88.513 27.6016 88.4036 27.1172 88.3984 26.5703H90.2734C90.2995 26.9193 90.3724 27.224 90.4922 27.4844C90.6172 27.7396 90.7865 27.9505 91 28.1172C91.2083 28.2891 91.4531 28.4167 91.7344 28.5C92.0208 28.5833 92.3333 28.625 92.6719 28.625C92.9583 28.625 93.224 28.5911 93.4688 28.5234C93.7188 28.4557 93.9349 28.3542 94.1172 28.2188C94.2943 28.0885 94.4349 27.9271 94.5391 27.7344C94.6484 27.5417 94.7031 27.3203 94.7031 27.0703ZM106.062 26.5C106.01 27.0521 105.88 27.5547 105.672 28.0078C105.464 28.4557 105.19 28.8385 104.852 29.1562C104.508 29.4792 104.099 29.7292 103.625 29.9062C103.156 30.0781 102.635 30.1641 102.062 30.1641C101.594 30.1641 101.161 30.1016 100.766 29.9766C100.375 29.8464 100.026 29.6641 99.7188 29.4297C99.4219 29.2109 99.1615 28.9479 98.9375 28.6406C98.7188 28.3281 98.5339 27.987 98.3828 27.6172C98.2318 27.2526 98.1172 26.8568 98.0391 26.4297C97.9661 26.0026 97.9297 25.5573 97.9297 25.0938V23.5391C97.9297 23.0964 97.9661 22.6693 98.0391 22.2578C98.112 21.8464 98.2214 21.4583 98.3672 21.0938C98.5234 20.6875 98.724 20.3203 98.9688 19.9922C99.2188 19.6589 99.5052 19.375 99.8281 19.1406C100.135 18.9271 100.474 18.7604 100.844 18.6406C101.219 18.5208 101.628 18.4609 102.07 18.4609C102.669 18.4609 103.203 18.5495 103.672 18.7266C104.146 18.9036 104.549 19.1536 104.883 19.4766C105.221 19.8047 105.487 20.2005 105.68 20.6641C105.878 21.1276 106.005 21.6432 106.062 22.2109H104.188C104.156 21.8724 104.091 21.5677 103.992 21.2969C103.898 21.0208 103.768 20.7865 103.602 20.5938C103.43 20.401 103.219 20.2552 102.969 20.1562C102.719 20.0521 102.419 20 102.07 20C101.826 20 101.604 20.0339 101.406 20.1016C101.214 20.1693 101.042 20.2656 100.891 20.3906C100.682 20.5417 100.508 20.7396 100.367 20.9844C100.232 21.224 100.12 21.4922 100.031 21.7891C99.9635 22.0495 99.9115 22.3281 99.875 22.625C99.8438 22.9167 99.8281 23.2161 99.8281 23.5234V25.0938C99.8281 25.474 99.849 25.8307 99.8906 26.1641C99.9375 26.4974 100.008 26.8021 100.102 27.0781C100.174 27.3073 100.266 27.5156 100.375 27.7031C100.49 27.8906 100.625 28.0521 100.781 28.1875C100.943 28.3333 101.128 28.4453 101.336 28.5234C101.549 28.5964 101.792 28.6328 102.062 28.6328C102.385 28.6328 102.672 28.5859 102.922 28.4922C103.172 28.3984 103.385 28.2604 103.562 28.0781C103.734 27.901 103.872 27.6797 103.977 27.4141C104.081 27.1484 104.148 26.8438 104.18 26.5H106.062ZM115.703 25.0703C115.703 25.5286 115.661 25.9714 115.578 26.3984C115.5 26.8255 115.385 27.2292 115.234 27.6094C115.073 27.9896 114.872 28.3411 114.633 28.6641C114.393 28.9818 114.117 29.2552 113.805 29.4844C113.503 29.6927 113.167 29.8568 112.797 29.9766C112.432 30.0964 112.031 30.1562 111.594 30.1562C111.141 30.1562 110.724 30.0938 110.344 29.9688C109.969 29.8385 109.633 29.6615 109.336 29.4375C109.034 29.2083 108.768 28.9323 108.539 28.6094C108.315 28.2865 108.128 27.9323 107.977 27.5469C107.831 27.1771 107.721 26.7839 107.648 26.3672C107.576 25.9453 107.539 25.513 107.539 25.0703V23.5703C107.539 23.1068 107.578 22.6589 107.656 22.2266C107.734 21.7943 107.852 21.3854 108.008 21C108.159 20.6302 108.344 20.2917 108.562 19.9844C108.786 19.6719 109.049 19.401 109.352 19.1719C109.643 18.9479 109.974 18.776 110.344 18.6562C110.719 18.5312 111.13 18.4688 111.578 18.4688C112.031 18.4688 112.448 18.5312 112.828 18.6562C113.208 18.7812 113.549 18.9557 113.852 19.1797C114.154 19.4036 114.417 19.6667 114.641 19.9688C114.865 20.2708 115.052 20.6016 115.203 20.9609C115.37 21.3464 115.495 21.7604 115.578 22.2031C115.661 22.6406 115.703 23.0964 115.703 23.5703V25.0703ZM113.812 23.5547C113.807 23.2682 113.789 22.987 113.758 22.7109C113.732 22.4349 113.685 22.1719 113.617 21.9219C113.539 21.6354 113.435 21.375 113.305 21.1406C113.18 20.901 113.026 20.6979 112.844 20.5312C112.682 20.3854 112.497 20.2708 112.289 20.1875C112.081 20.1042 111.844 20.0625 111.578 20.0625C111.323 20.0625 111.094 20.1042 110.891 20.1875C110.688 20.2656 110.51 20.375 110.359 20.5156C110.177 20.6875 110.023 20.8932 109.898 21.1328C109.773 21.3672 109.677 21.6302 109.609 21.9219C109.547 22.1719 109.5 22.4375 109.469 22.7188C109.443 22.9948 109.43 23.2734 109.43 23.5547V25.0703C109.43 25.3464 109.443 25.6198 109.469 25.8906C109.495 26.1615 109.539 26.4219 109.602 26.6719C109.669 26.9531 109.76 27.2161 109.875 27.4609C109.995 27.7005 110.138 27.9036 110.305 28.0703C110.466 28.2266 110.651 28.3516 110.859 28.4453C111.073 28.5339 111.318 28.5781 111.594 28.5781C111.859 28.5781 112.099 28.5339 112.312 28.4453C112.531 28.3568 112.719 28.237 112.875 28.0859C113.057 27.9141 113.208 27.7109 113.328 27.4766C113.453 27.237 113.552 26.974 113.625 26.6875C113.688 26.4375 113.732 26.1771 113.758 25.9062C113.789 25.6302 113.807 25.3516 113.812 25.0703V23.5547ZM121.422 25.5859H119.5V30H117.625V18.625H121.234C121.823 18.6302 122.365 18.7057 122.859 18.8516C123.354 18.9974 123.781 19.2109 124.141 19.4922C124.495 19.7786 124.771 20.1354 124.969 20.5625C125.167 20.9844 125.266 21.4792 125.266 22.0469C125.266 22.4375 125.214 22.7917 125.109 23.1094C125.01 23.4271 124.87 23.7135 124.688 23.9688C124.505 24.224 124.286 24.4479 124.031 24.6406C123.776 24.8333 123.492 25 123.18 25.1406L125.609 29.8984V30H123.602L121.422 25.5859ZM119.5 24.0547H121.258C121.591 24.0495 121.891 24 122.156 23.9062C122.427 23.8073 122.656 23.6667 122.844 23.4844C123.01 23.3281 123.141 23.1354 123.234 22.9062C123.328 22.6771 123.375 22.4167 123.375 22.125C123.375 21.7969 123.323 21.5104 123.219 21.2656C123.12 21.0156 122.971 20.8073 122.773 20.6406C122.591 20.4844 122.37 20.3672 122.109 20.2891C121.849 20.2057 121.557 20.1615 121.234 20.1562H119.5V24.0547ZM127.125 30V18.625H129.938C130.427 18.625 130.888 18.6823 131.32 18.7969C131.753 18.9062 132.146 19.0599 132.5 19.2578C132.885 19.4609 133.227 19.7161 133.523 20.0234C133.826 20.3307 134.078 20.6745 134.281 21.0547C134.49 21.4505 134.651 21.8854 134.766 22.3594C134.88 22.8333 134.938 23.3385 134.938 23.875V24.7656C134.938 25.2812 134.883 25.7708 134.773 26.2344C134.669 26.6927 134.518 27.112 134.32 27.4922C134.128 27.862 133.893 28.1979 133.617 28.5C133.346 28.8021 133.044 29.0599 132.711 29.2734C132.336 29.5078 131.919 29.6875 131.461 29.8125C131.008 29.9375 130.521 30 130 30H127.125ZM129.023 20.1562V28.4766H130C130.333 28.4766 130.638 28.4375 130.914 28.3594C131.195 28.276 131.448 28.1589 131.672 28.0078C131.901 27.8516 132.104 27.6562 132.281 27.4219C132.464 27.1823 132.612 26.9089 132.727 26.6016C132.826 26.3411 132.901 26.0573 132.953 25.75C133.005 25.4427 133.031 25.1146 133.031 24.7656V23.8594C133.031 23.5156 133.005 23.1901 132.953 22.8828C132.901 22.5755 132.826 22.2917 132.727 22.0312C132.602 21.7135 132.435 21.4271 132.227 21.1719C132.018 20.9115 131.771 20.7005 131.484 20.5391C131.276 20.4193 131.042 20.3281 130.781 20.2656C130.521 20.1979 130.24 20.1615 129.938 20.1562H129.023Z" fill="#0A090E"/>
<path d="M156 32V48H140L156 32Z" fill="#0A090E"/>
<path d="M0 16L1.39876e-06 -1.39876e-06L16 0L0 16Z" fill="#0A090E"/>
</g>
<defs>
<clipPath id="clip0_87_4659">
<rect width="156" height="48" fill="white"/>
</clipPath>
</defs>
</svg>
