<svg xmlns="http://www.w3.org/2000/svg" width="752" height="516" viewBox="0 0 752 516" fill="none">
  <path fill-rule="evenodd" clip-rule="evenodd" d="M-110 1H-109.721H320.221H320.5H320.779H750.721H751V1.18461V286.042V286.226V286.411V571.268V571.452H750.721H320.779H320.5H320.221H-109.721H-110V571.268V286.411V286.226V286.042V1.18461V1ZM-109.443 286.042H-38.3275V238.924H-109.443V286.042ZM-37.7701 286.042H33.4382V238.924H-37.7701V286.042ZM33.995 286.042H105.111V238.924H33.995V286.042ZM105.668 286.042H176.876V238.924H105.668V286.042ZM177.433 286.042H248.549V238.924H177.433V286.042ZM249.106 286.042H320.221V238.924H249.106V286.042ZM320.779 286.042H391.894V238.924H320.779V286.042ZM392.451 286.042H463.659V238.924H392.451V286.042ZM464.217 286.042H535.332V238.924H464.217V286.042ZM535.889 286.042H607.098V238.924H535.889V286.042ZM607.655 286.042H678.77V238.924H607.655V286.042ZM679.327 286.042H750.442V238.924H679.327V286.042ZM-109.443 286.411V333.528H-38.3275V286.411H-109.443ZM-37.7701 286.411V333.528H33.4382V286.411H-37.7701ZM33.995 286.411V333.528H105.111V286.411H33.995ZM105.668 286.411V333.528H176.876V286.411H105.668ZM177.433 286.411V333.528H248.549V286.411H177.433ZM249.106 286.411V333.528H320.221V286.411H249.106ZM750.442 286.411H679.327V333.528H750.442V286.411ZM678.77 286.411H607.655V333.528H678.77V286.411ZM607.098 286.411H535.889V333.528H607.098V286.411ZM535.332 286.411H464.217V333.528H535.332V286.411ZM463.659 286.411H392.451V333.528H463.659V286.411ZM391.894 286.411H320.779V333.528H391.894V286.411ZM249.106 1.36923H320.221V48.4864H249.106V1.36923ZM249.106 48.8556H320.221V96.0347H249.106V48.8556ZM249.106 96.4038H320.221V143.521H249.106V96.4038ZM249.106 143.89H320.221V191.007H249.106V143.89ZM249.106 191.377H320.221V238.555H249.106V191.377ZM320.779 48.4864V1.36923H391.894V48.4864H320.779ZM320.779 96.0347V48.8556H391.894V96.0347H320.779ZM320.779 143.521V96.4038H391.894V143.521H320.779ZM320.779 191.007V143.89H391.894V191.007H320.779ZM320.779 238.555V191.377H391.894V238.555H320.779ZM-109.443 1.36923V48.4864H-38.3275V1.36923H-109.443ZM-37.7701 1.36923V48.4864H33.4382V1.36923H-37.7701ZM33.995 1.36923V48.4864H105.111V1.36923H33.995ZM105.668 1.36923V48.4864H176.876V1.36923H105.668ZM177.433 1.36923V48.4864H248.549V1.36923H177.433ZM-109.443 238.555H-38.3275V191.377H-109.443V238.555ZM-109.443 191.007H-38.3275V143.89H-109.443V191.007ZM-109.443 143.521H-38.3275V96.4038H-109.443V143.521ZM-109.443 96.0347H-38.3275V48.8556H-109.443V96.0347ZM-37.7701 48.8556V96.0347H33.4382V48.8556H-37.7701ZM33.995 48.8556V96.0347H105.111V48.8556H33.995ZM105.668 48.8556V96.0347H176.876V48.8556H105.668ZM177.433 48.8556V96.0347H248.549V48.8556H177.433ZM248.549 96.4038H177.433V143.521H248.549V96.4038ZM248.549 143.89H177.433V191.007H248.549V143.89ZM248.549 191.377H177.433V238.555H248.549V191.377ZM176.876 238.555V191.377H105.668V238.555H176.876ZM105.111 238.555V191.377H33.995V238.555H105.111ZM33.4382 238.555V191.377H-37.7701V238.555H33.4382ZM-37.7701 191.007H33.4382V143.89H-37.7701V191.007ZM-37.7701 143.521H33.4382V96.4038H-37.7701V143.521ZM33.995 96.4038V143.521H105.111V96.4038H33.995ZM105.668 96.4038V143.521H176.876V96.4038H105.668ZM176.876 143.89H105.668V191.007H176.876V143.89ZM105.111 191.007V143.89H33.995V191.007H105.111ZM392.451 1.36923V48.4864H463.659V1.36923H392.451ZM464.217 1.36923V48.4864H535.332V1.36923H464.217ZM535.889 1.36923V48.4864H607.098V1.36923H535.889ZM607.655 1.36923V48.4864H678.77V1.36923H607.655ZM679.327 1.36923V48.4864H750.442V1.36923H679.327ZM750.442 48.8556H679.327V96.0347H750.442V48.8556ZM750.442 96.4038H679.327V143.521H750.442V96.4038ZM750.442 143.89H679.327V191.007H750.442V143.89ZM750.442 191.377H679.327V238.555H750.442V191.377ZM392.451 48.8556V96.0347H463.659V48.8556H392.451ZM464.217 48.8556V96.0347H535.332V48.8556H464.217ZM535.889 48.8556V96.0347H607.098V48.8556H535.889ZM607.655 48.8556V96.0347H678.77V48.8556H607.655ZM678.77 96.4038H607.655V143.521H678.77V96.4038ZM678.77 143.89H607.655V191.007H678.77V143.89ZM678.77 191.377H607.655V238.555H678.77V191.377ZM607.098 238.555V191.377H535.889V238.555H607.098ZM535.332 238.555V191.377H464.217V238.555H535.332ZM463.659 238.555V191.377H392.451V238.555H463.659ZM392.451 191.007H463.659V143.89H392.451V191.007ZM392.451 143.521H463.659V96.4038H392.451V143.521ZM464.217 96.4038V143.521H535.332V96.4038H464.217ZM535.889 96.4038V143.521H607.098V96.4038H535.889ZM607.098 143.89H535.889V191.007H607.098V143.89ZM535.332 191.007V143.89H464.217V191.007H535.332ZM249.106 333.897H320.221V381.076H249.106V333.897ZM249.106 381.445H320.221V428.562H249.106V381.445ZM249.106 428.932H320.221V476.049H249.106V428.932ZM249.106 476.418H320.221V523.597H249.106V476.418ZM249.106 523.966H320.221V571.083H249.106V523.966ZM320.779 381.076V333.897H391.894V381.076H320.779ZM320.779 428.562V381.445H391.894V428.562H320.779ZM320.779 476.049V428.932H391.894V476.049H320.779ZM320.779 523.597V476.418H391.894V523.597H320.779ZM320.779 571.083V523.966H391.894V571.083H320.779ZM248.549 571.083V523.966H177.433V571.083H248.549ZM176.876 571.083V523.966H105.668V571.083H176.876ZM105.111 571.083V523.966H33.995V571.083H105.111ZM33.4382 571.083V523.966H-37.7701V571.083H33.4382ZM-38.3275 571.083V523.966H-109.443V571.083H-38.3275ZM-109.443 523.597H-38.3275V476.418H-109.443V523.597ZM-109.443 476.049H-38.3275V428.932H-109.443V476.049ZM-109.443 428.562H-38.3275V381.445H-109.443V428.562ZM-109.443 381.076H-38.3275V333.897H-109.443V381.076ZM-37.7701 333.897V381.076H33.4382V333.897H-37.7701ZM33.995 333.897V381.076H105.111V333.897H33.995ZM105.668 333.897V381.076H176.876V333.897H105.668ZM177.433 333.897V381.076H248.549V333.897H177.433ZM248.549 381.445H177.433V428.562H248.549V381.445ZM248.549 428.932H177.433V476.049H248.549V428.932ZM248.549 476.418H177.433V523.597H248.549V476.418ZM176.876 523.597V476.418H105.668V523.597H176.876ZM105.111 523.597V476.418H33.995V523.597H105.111ZM33.4382 523.597V476.418H-37.7701V523.597H33.4382ZM-37.7701 476.049H33.4382V428.932H-37.7701V476.049ZM-37.7701 428.562H33.4382V381.445H-37.7701V428.562ZM33.995 381.445V428.562H105.111V381.445H33.995ZM105.668 381.445V428.562H176.876V381.445H105.668ZM176.876 428.932H105.668V476.049H176.876V428.932ZM105.111 476.049V428.932H33.995V476.049H105.111ZM750.442 333.897H679.327V381.076H750.442V333.897ZM750.442 381.445H679.327V428.562H750.442V381.445ZM750.442 428.932H679.327V476.049H750.442V428.932ZM750.442 476.418H679.327V523.597H750.442V476.418ZM750.442 523.966H679.327V571.083H750.442V523.966ZM678.77 571.083V523.966H607.655V571.083H678.77ZM607.098 571.083V523.966H535.889V571.083H607.098ZM535.332 571.083V523.966H464.217V571.083H535.332ZM463.659 571.083V523.966H392.451V571.083H463.659ZM392.451 333.897V381.076H463.659V333.897H392.451ZM464.217 333.897V381.076H535.332V333.897H464.217ZM535.889 333.897V381.076H607.098V333.897H535.889ZM607.655 333.897V381.076H678.77V333.897H607.655ZM678.77 381.445H607.655V428.562H678.77V381.445ZM678.77 428.932H607.655V476.049H678.77V428.932ZM678.77 476.418H607.655V523.597H678.77V476.418ZM607.098 523.597V476.418H535.889V523.597H607.098ZM535.332 523.597V476.418H464.217V523.597H535.332ZM463.659 523.597V476.418H392.451V523.597H463.659ZM392.451 476.049H463.659V428.932H392.451V476.049ZM392.451 428.562H463.659V381.445H392.451V428.562ZM464.217 381.445V428.562H535.332V381.445H464.217ZM535.889 381.445V428.562H607.098V381.445H535.889ZM607.098 428.932H535.889V476.049H607.098V428.932ZM535.332 476.049V428.932H464.217V476.049H535.332Z" stroke="url(#paint0_radial_87_4365)"/>
  <defs>
    <radialGradient id="paint0_radial_87_4365" cx="0" cy="0" r="1" gradientUnits="userSpaceOnUse" gradientTransform="translate(320.5 286.226) rotate(-0.0557423) scale(232.5 176.644)">
      <stop stop-color="#FF7120" stop-opacity="0.4"/>
      <stop offset="1" stop-color="#FF7120" stop-opacity="0"/>
    </radialGradient>
  </defs>
</svg>