<svg width="178" height="48" viewBox="0 0 178 48" fill="none" xmlns="http://www.w3.org/2000/svg">
<path d="M35.4978 30.7971C35.4978 30.6078 35.4868 30.4235 35.4707 30.2417H35.4704V20.0576C35.4704 19.2316 34.8249 18.5621 34.0288 18.5621C33.2328 18.5621 32.5873 19.2316 32.5873 20.0576V25.9107C32.2793 25.7244 31.9497 25.549 31.5932 25.3869C30.8355 25.0422 29.9948 24.7621 29.1081 24.5221V20.0576C29.1081 19.2316 28.4625 18.5621 27.6665 18.5621C26.8705 18.5621 26.2249 19.2316 26.2249 20.0576V23.8769C25.6839 23.773 25.1403 23.674 24.6006 23.576C23.9516 23.4584 23.3326 23.3429 22.7456 23.226V20.0576C22.7456 19.2316 22.1001 18.5621 21.304 18.5621C20.508 18.5621 19.8625 19.2316 19.8625 20.0576V22.5439C17.6714 21.8946 16.383 21.0511 16.383 19.5919C16.383 17.096 19.7613 15.0139 22.5951 13.7067C26.2982 11.9987 30.5568 10.8986 32.8457 10.3074L32.8473 10.307L32.8844 10.2974C33.3592 10.1746 33.7357 10.0773 34.0135 9.99816L34.0139 9.99806C34.493 9.86138 35.2169 9.65491 35.4475 8.79716C35.5869 8.27839 35.4439 7.71252 35.0778 7.33088C34.607 6.84037 33.8897 6.75947 33.3377 7.08892C33.1016 7.15889 32.6288 7.28109 32.1661 7.40068L32.1509 7.40461C31.3412 7.61367 30.2935 7.88434 29.1082 8.22217V4.99544C29.1082 4.16951 28.4627 3.5 27.6666 3.5C26.8706 3.5 26.2251 4.16951 26.2251 4.99544V9.10702C25.0891 9.48357 23.9089 9.91202 22.7457 10.3956V4.99544C22.7457 4.16951 22.1002 3.5 21.3042 3.5C20.5081 3.5 19.8626 4.16951 19.8626 4.99544V11.7495C18.4781 12.4903 17.3174 13.2712 16.3831 14.0904V4.99544C16.3831 4.16951 15.7376 3.5 14.9416 3.5C14.1455 3.5 13.5 4.16951 13.5 4.99544V19.1257C13.5 19.1567 13.5053 19.1862 13.5131 19.2149C13.5053 19.34 13.5 19.4657 13.5 19.592C13.5 21.9041 14.7792 23.649 17.3024 24.7782C19.2195 25.6362 21.7022 26.0868 24.1032 26.5225L24.104 26.5227C28.9891 27.4092 32.2726 28.1781 32.5876 30.4321V30.7974C32.5876 30.8385 32.5965 30.877 32.61 30.9139C32.5491 32.3797 31.3389 33.887 29.1082 35.329V30.7974C29.1082 29.9715 28.4627 29.302 27.6666 29.302C26.8706 29.302 26.2251 29.9715 26.2251 30.7974V36.8946C25.5424 37.2121 24.8098 37.5242 24.0257 37.8293C23.5986 37.9954 23.1706 38.1539 22.7457 38.3048V30.7974C22.7457 29.9715 22.1002 29.302 21.3042 29.302C20.5081 29.302 19.8626 29.9715 19.8626 30.7974V39.238C18.5058 39.6383 17.2938 39.9458 16.3831 40.1607V30.7972C16.3831 29.9713 15.7376 29.3018 14.9416 29.3018C14.1455 29.3018 13.5 29.9713 13.5 30.7972V42.0043C13.5 42.0083 13.5012 42.012 13.5013 42.0159C13.502 42.101 13.5084 42.187 13.5235 42.2736C13.6509 42.995 14.2573 43.5 14.9398 43.5C15.026 43.4999 15.1135 43.4918 15.2012 43.4752C15.4014 43.4372 20.1613 42.5221 25.0041 40.6427C31.9672 37.9402 35.4978 34.6277 35.4978 30.7971Z" fill="#FF7120"/>
<path d="M49.8008 33V15.5391H55.0625L57.9453 23.6719C58.1094 24.1875 58.3125 24.8594 58.5547 25.6875C58.8047 26.5078 59.0352 27.293 59.2461 28.043C59.457 27.293 59.6836 26.5078 59.9258 25.6875C60.1758 24.8594 60.3789 24.1875 60.5352 23.6719L63.3828 15.5391H68.6445V33H65.1172V24.7031C65.1172 24.0938 65.1289 23.3125 65.1523 22.3594C65.1836 21.4062 65.2109 20.4492 65.2344 19.4883C64.9297 20.5039 64.6367 21.4883 64.3555 22.4414C64.0742 23.3867 63.8398 24.1406 63.6523 24.7031L60.6992 33H57.7695L54.7812 24.7031C54.6016 24.1641 54.3711 23.4453 54.0898 22.5469C53.8164 21.6484 53.5312 20.7109 53.2344 19.7344C53.2578 20.6562 53.2812 21.5703 53.3047 22.4766C53.3281 23.375 53.3398 24.1172 53.3398 24.7031V33H49.8008ZM70.9475 33V20.625H74.4045V33H70.9475ZM72.6702 19.0664C72.0998 19.0664 71.6272 18.8945 71.2522 18.5508C70.8772 18.1992 70.6897 17.7578 70.6897 17.2266C70.6897 16.6953 70.8772 16.2578 71.2522 15.9141C71.6272 15.5625 72.0998 15.3867 72.6702 15.3867C73.2327 15.3867 73.7014 15.5625 74.0764 15.9141C74.4514 16.2578 74.6389 16.6953 74.6389 17.2266C74.6389 17.7578 74.4514 18.1992 74.0764 18.5508C73.7014 18.8945 73.2327 19.0664 72.6702 19.0664ZM83.9145 20.625V23.332H81.3833V29.1797C81.3833 29.6016 81.4653 29.8945 81.6294 30.0586C81.8013 30.2148 82.1216 30.293 82.5903 30.293H83.9145V33H81.8989C80.5395 33 79.5356 32.7344 78.8872 32.2031C78.2466 31.6719 77.9263 30.8438 77.9263 29.7188V23.332H75.7934V20.625H77.9263V17.25H81.3833V20.625H83.9145ZM90.9753 33.2812C89.7253 33.2812 88.6277 33.0117 87.6823 32.4727C86.7448 31.9336 86.0105 31.1836 85.4792 30.2227C84.9558 29.2539 84.6941 28.1211 84.6941 26.8242C84.6941 25.5273 84.9558 24.3945 85.4792 23.4258C86.0105 22.457 86.7448 21.7031 87.6823 21.1641C88.6277 20.6172 89.7253 20.3438 90.9753 20.3438C92.2331 20.3438 93.3308 20.6172 94.2683 21.1641C95.2136 21.7031 95.948 22.457 96.4714 23.4258C97.0027 24.3945 97.2683 25.5273 97.2683 26.8242C97.2683 28.1133 97.0027 29.2422 96.4714 30.2109C95.948 31.1797 95.2136 31.9336 94.2683 32.4727C93.3308 33.0117 92.2331 33.2812 90.9753 33.2812ZM90.9753 30.4805C91.8191 30.4805 92.4987 30.1602 93.0144 29.5195C93.53 28.8711 93.7878 27.9727 93.7878 26.8242C93.7878 25.668 93.53 24.7656 93.0144 24.1172C92.4987 23.4688 91.8191 23.1445 90.9753 23.1445C90.1394 23.1445 89.4636 23.4688 88.948 24.1172C88.4323 24.7656 88.1745 25.668 88.1745 26.8242C88.1745 27.9727 88.4323 28.8711 88.948 29.5195C89.4636 30.1602 90.1394 30.4805 90.9753 30.4805ZM104.083 33.3047C102.474 33.3047 101.142 32.9375 100.087 32.2031C99.04 31.4688 98.4619 30.4375 98.3525 29.1094H101.751C101.813 29.6484 102.04 30.0703 102.431 30.375C102.821 30.6797 103.353 30.832 104.024 30.832C104.665 30.832 105.169 30.7109 105.536 30.4688C105.903 30.2266 106.087 29.9141 106.087 29.5312C106.087 29.2031 105.942 28.9414 105.653 28.7461C105.372 28.543 104.981 28.3906 104.481 28.2891L102.313 27.8672C99.8603 27.3984 98.6338 26.1953 98.6338 24.2578C98.6338 23.0859 99.1064 22.1445 100.052 21.4336C100.997 20.7227 102.274 20.3672 103.884 20.3672C105.485 20.3672 106.774 20.7422 107.751 21.4922C108.728 22.2422 109.231 23.2617 109.263 24.5508H106.063C106.056 24.0586 105.856 23.6484 105.466 23.3203C105.083 22.9844 104.587 22.8164 103.978 22.8164C103.384 22.8164 102.919 22.9453 102.583 23.2031C102.247 23.4531 102.079 23.7617 102.079 24.1289C102.079 24.4492 102.208 24.7109 102.466 24.9141C102.731 25.1172 103.103 25.2695 103.579 25.3711L105.923 25.8281C107.173 26.0703 108.091 26.4688 108.677 27.0234C109.27 27.5703 109.567 28.3008 109.567 29.2148C109.567 30.0352 109.333 30.7539 108.864 31.3711C108.403 31.9805 107.759 32.457 106.931 32.8008C106.11 33.1367 105.161 33.3047 104.083 33.3047ZM111.191 33V20.625H114.648V33H111.191ZM112.913 19.0664C112.343 19.0664 111.87 18.8945 111.495 18.5508C111.12 18.1992 110.933 17.7578 110.933 17.2266C110.933 16.6953 111.12 16.2578 111.495 15.9141C111.87 15.5625 112.343 15.3867 112.913 15.3867C113.476 15.3867 113.945 15.5625 114.32 15.9141C114.695 16.2578 114.882 16.6953 114.882 17.2266C114.882 17.7578 114.695 18.1992 114.32 18.5508C113.945 18.8945 113.476 19.0664 112.913 19.0664ZM122.001 33.3047C120.392 33.3047 119.06 32.9375 118.005 32.2031C116.958 31.4688 116.38 30.4375 116.271 29.1094H119.669C119.732 29.6484 119.958 30.0703 120.349 30.375C120.74 30.6797 121.271 30.832 121.943 30.832C122.583 30.832 123.087 30.7109 123.455 30.4688C123.822 30.2266 124.005 29.9141 124.005 29.5312C124.005 29.2031 123.861 28.9414 123.572 28.7461C123.29 28.543 122.9 28.3906 122.4 28.2891L120.232 27.8672C117.779 27.3984 116.552 26.1953 116.552 24.2578C116.552 23.0859 117.025 22.1445 117.97 21.4336C118.915 20.7227 120.193 20.3672 121.802 20.3672C123.404 20.3672 124.693 20.7422 125.669 21.4922C126.646 22.2422 127.15 23.2617 127.181 24.5508H123.982C123.974 24.0586 123.775 23.6484 123.384 23.3203C123.001 22.9844 122.505 22.8164 121.896 22.8164C121.302 22.8164 120.837 22.9453 120.501 23.2031C120.165 23.4531 119.997 23.7617 119.997 24.1289C119.997 24.4492 120.126 24.7109 120.384 24.9141C120.65 25.1172 121.021 25.2695 121.497 25.3711L123.841 25.8281C125.091 26.0703 126.009 26.4688 126.595 27.0234C127.189 27.5703 127.486 28.3008 127.486 29.2148C127.486 30.0352 127.251 30.7539 126.783 31.3711C126.322 31.9805 125.677 32.457 124.849 32.8008C124.029 33.1367 123.08 33.3047 122.001 33.3047ZM135.355 33H129.191V15.5391H135.425C137.175 15.5391 138.691 15.8945 139.972 16.6055C141.254 17.3164 142.242 18.3242 142.937 19.6289C143.632 20.9336 143.98 22.4766 143.98 24.2578C143.98 26.0469 143.632 27.5977 142.937 28.9102C142.242 30.2148 141.25 31.2227 139.961 31.9336C138.679 32.6445 137.144 33 135.355 33ZM132.8 29.9648H135.168C136.933 29.9648 138.238 29.4727 139.082 28.4883C139.925 27.5039 140.347 26.0938 140.347 24.2578C140.347 22.4219 139.922 21.0156 139.07 20.0391C138.226 19.0625 136.937 18.5742 135.203 18.5742H132.8V29.9648ZM143.623 33L149.752 15.5391H154.393L160.521 33H156.525L155.307 29.1914H148.779L147.514 33H143.623ZM149.752 26.3086H154.369L153.783 24.5039C153.51 23.6133 153.236 22.707 152.963 21.7852C152.689 20.8633 152.396 19.8594 152.084 18.7734C151.771 19.8594 151.475 20.8633 151.193 21.7852C150.912 22.707 150.631 23.6133 150.35 24.5039L149.752 26.3086ZM168.414 33.2812C166.852 33.2812 165.449 32.918 164.207 32.1914C162.965 31.457 161.985 30.418 161.266 29.0742C160.547 27.7227 160.188 26.125 160.188 24.2812C160.188 22.4219 160.547 20.8203 161.266 19.4766C161.985 18.125 162.965 17.0859 164.207 16.3594C165.449 15.625 166.852 15.2578 168.414 15.2578C169.985 15.2578 171.387 15.625 172.621 16.3594C173.863 17.0859 174.844 18.125 175.563 19.4766C176.289 20.8203 176.652 22.4219 176.652 24.2812C176.652 26.1328 176.289 27.7305 175.563 29.0742C174.844 30.418 173.863 31.457 172.621 32.1914C171.387 32.918 169.985 33.2812 168.414 33.2812ZM168.414 30.0938C169.766 30.0938 170.871 29.5898 171.731 28.582C172.59 27.5664 173.02 26.1328 173.02 24.2812C173.02 22.4219 172.59 20.9844 171.731 19.9688C170.871 18.9531 169.766 18.4453 168.414 18.4453C167.07 18.4453 165.969 18.9531 165.11 19.9688C164.25 20.9844 163.82 22.4219 163.82 24.2812C163.82 26.1328 164.25 27.5664 165.11 28.582C165.969 29.5898 167.07 30.0938 168.414 30.0938Z" fill="white"/>
</svg>
