<svg xmlns="http://www.w3.org/2000/svg" width="198" height="54" viewBox="0 0 198 54" fill="none">
  <g clip-path="url(#clip0_125_4149)">
    <path fill-rule="evenodd" clip-rule="evenodd" d="M68.2905 33.3082L65.8681 29.1026H62.3269V33.3082H60.241V20.6746H66.5241C67.2896 20.6661 68.0466 20.8764 68.7026 21.2718C69.3587 21.6671 69.897 22.2306 70.2587 22.9119C70.6204 23.5933 70.7802 24.3587 70.7382 25.1241C70.6961 25.8895 70.4438 26.6381 70.0064 27.269C69.5522 27.9419 68.9129 28.4633 68.1643 28.7746L70.7382 33.3082H68.2905ZM66.5157 22.8194H62.3269V27.0166H66.5241C66.8017 27.0166 67.0709 26.9577 67.3232 26.8484C67.5755 26.739 67.8026 26.5792 67.9877 26.3774C68.2737 26.083 68.4755 25.7129 68.5512 25.3007C68.6269 24.897 68.5849 24.4764 68.4335 24.0895C68.2737 23.711 68.0129 23.383 67.6681 23.1475C67.3232 22.9119 66.9279 22.7858 66.5157 22.7858V22.8194ZM88.8559 20.6746L82.5559 33.3082H84.8942L88.8475 25.3933L92.7924 33.3082H95.1307L88.8559 20.6746ZM115.368 20.6746H112.702L109.119 25.3344L105.552 20.6746H102.877L108.126 27.4119V33.3082H110.212V27.311L115.368 20.6746ZM126.059 20.6746H130.239C131.905 20.683 133.494 21.3559 134.663 22.5418C135.841 23.7194 136.505 25.326 136.514 26.9914C136.505 28.6652 135.841 30.2633 134.663 31.4493C133.486 32.6353 131.896 33.2998 130.231 33.3082H126.05V20.6746H126.059ZM130.239 31.1633C131.349 31.1633 132.409 30.7175 133.191 29.9269C133.974 29.1362 134.419 28.068 134.419 26.9577C134.403 25.8475 133.965 24.7792 133.183 23.997C132.401 23.2147 131.341 22.7605 130.239 22.7521H128.128V31.1633H130.239ZM150.468 20.6746H148.382V33.3082H150.468V20.6746ZM172.791 28.0344C172.8 28.7325 172.674 29.4222 172.405 30.0615C172.144 30.7007 171.748 31.2811 171.244 31.7605C170.512 32.5007 169.578 32.997 168.561 33.1989C167.543 33.4007 166.491 33.2998 165.533 32.8961C164.574 32.5007 163.758 31.8194 163.186 30.9531C162.614 30.0867 162.311 29.069 162.311 28.026V20.6746H164.397V28.026C164.397 28.8671 164.725 29.6661 165.322 30.2549C165.911 30.8437 166.71 31.1802 167.543 31.1802C168.376 31.1802 169.175 30.8437 169.763 30.2549C170.352 29.6661 170.68 28.8587 170.68 28.026V20.6746H172.783V28.0344H172.791ZM186.729 33.3082V25.7549L190.934 29.969L195.123 25.7549V33.3082H197.243V20.6746L190.934 26.9914L184.651 20.6746V33.3082H186.729Z" fill="white"/>
    <path d="M44.7391 20.2795V39.0618L23.955 51.1235L3.1625 39.0618V14.9384L23.9634 2.85991L39.9363 12.1375L42.3504 10.7412L23.9634 0.0673828L0.756897 13.5337V40.458L23.9634 53.9244L47.17 40.458V18.8833L44.7391 20.2795Z" fill="url(#paint0_linear_125_4149)"/>
    <path d="M18.1429 39.0783H14.6691V27.353H26.2597C27.3532 27.3446 28.4046 26.8988 29.1784 26.1082C29.9522 25.3259 30.3812 24.2661 30.3896 23.1643C30.398 22.6175 30.2887 22.0792 30.0784 21.5745C29.8681 21.0699 29.5569 20.6157 29.17 20.2372C28.7915 19.8502 28.3373 19.539 27.841 19.3287C27.3448 19.1185 26.8065 19.0091 26.2597 19.0175H14.6691V15.4512H26.2681C28.2952 15.4596 30.2466 16.2839 31.6765 17.7222C33.1149 19.1689 33.9223 21.1203 33.9392 23.1643C33.9476 24.7287 33.4765 26.2512 32.585 27.5297C31.7607 28.7493 30.5999 29.7082 29.2457 30.2801C27.8999 30.7091 26.5036 30.9194 25.099 30.911H18.1429V39.0783Z" fill="url(#paint1_linear_125_4149)"/>
    <path d="M33.855 38.784H29.8008L26.6718 33.2999C27.9083 33.2242 29.1279 32.9718 30.297 32.5513L33.855 38.784Z" fill="url(#paint2_linear_125_4149)"/>
    <path d="M42.3167 16.3768L44.7139 17.7142L47.1111 16.3768V13.5423L44.7139 12.146L42.3167 13.5423V16.3768Z" fill="url(#paint3_linear_125_4149)"/>
  </g>
  <defs>
    <linearGradient id="paint0_linear_125_4149" x1="48.5771" y1="17.2082" x2="-0.698698" y2="36.8086" gradientUnits="userSpaceOnUse">
      <stop stop-color="#C200FB"/>
      <stop offset="0.4897" stop-color="#3772FF"/>
      <stop offset="0.4898" stop-color="#3773FE"/>
      <stop offset="1" stop-color="#5AC4BE"/>
    </linearGradient>
    <linearGradient id="paint1_linear_125_4149" x1="47.6368" y1="14.844" x2="-1.63892" y2="34.4445" gradientUnits="userSpaceOnUse">
      <stop stop-color="#C200FB"/>
      <stop offset="0.4897" stop-color="#3772FF"/>
      <stop offset="0.4898" stop-color="#3773FE"/>
      <stop offset="1" stop-color="#5AC4BE"/>
    </linearGradient>
    <linearGradient id="paint2_linear_125_4149" x1="52.5435" y1="27.1802" x2="3.26779" y2="46.7806" gradientUnits="userSpaceOnUse">
      <stop stop-color="#C200FB"/>
      <stop offset="0.4897" stop-color="#3772FF"/>
      <stop offset="0.4898" stop-color="#3773FE"/>
      <stop offset="1" stop-color="#5AC4BE"/>
    </linearGradient>
    <linearGradient id="paint3_linear_125_4149" x1="47.2656" y1="13.9211" x2="-2.00991" y2="33.5215" gradientUnits="userSpaceOnUse">
      <stop stop-color="#C200FB"/>
      <stop offset="0.4897" stop-color="#3772FF"/>
      <stop offset="0.4898" stop-color="#3773FE"/>
      <stop offset="1" stop-color="#5AC4BE"/>
    </linearGradient>
    <clipPath id="clip0_125_4149">
      <rect width="196.486" height="54" fill="white" transform="translate(0.756958)"/>
    </clipPath>
  </defs>
</svg>