<svg width="310" height="48" viewBox="0 0 310 48" fill="none" xmlns="http://www.w3.org/2000/svg">
<g clip-path="url(#clip0_87_4087)">
<rect width="310" height="48" fill="#FF7120"/>
<path d="M27.3984 27.0312C27.3984 26.8281 27.362 26.638 27.2891 26.4609C27.2214 26.2839 27.1042 26.1172 26.9375 25.9609C26.7656 25.8099 26.5417 25.6719 26.2656 25.5469C25.9948 25.4167 25.6562 25.2969 25.25 25.1875C24.6198 25.0156 24.0651 24.8073 23.5859 24.5625C23.112 24.3177 22.724 24.0495 22.4219 23.7578C22.1198 23.4661 21.8906 23.1432 21.7344 22.7891C21.5833 22.4349 21.5078 22.0495 21.5078 21.6328C21.5078 21.1536 21.6094 20.7188 21.8125 20.3281C22.0156 19.9375 22.2969 19.6042 22.6562 19.3281C23.0156 19.0521 23.4401 18.8411 23.9297 18.6953C24.4193 18.5443 24.9505 18.4688 25.5234 18.4688C26.1172 18.4688 26.6589 18.5547 27.1484 18.7266C27.6432 18.8984 28.0677 19.138 28.4219 19.4453C28.776 19.7578 29.0521 20.1276 29.25 20.5547C29.4479 20.9818 29.5469 21.4505 29.5469 21.9609H27.4062C27.3958 21.7057 27.349 21.4714 27.2656 21.2578C27.1875 21.0443 27.0703 20.8594 26.9141 20.7031C26.7526 20.5521 26.5521 20.4349 26.3125 20.3516C26.0781 20.263 25.8021 20.2188 25.4844 20.2188C25.1927 20.2188 24.9323 20.2552 24.7031 20.3281C24.4792 20.3958 24.2891 20.4922 24.1328 20.6172C23.9766 20.7474 23.8568 20.901 23.7734 21.0781C23.6953 21.25 23.6562 21.4375 23.6562 21.6406C23.6562 21.8542 23.7083 22.0469 23.8125 22.2188C23.9219 22.3906 24.0781 22.5443 24.2812 22.6797C24.4844 22.8203 24.7292 22.9479 25.0156 23.0625C25.3073 23.1771 25.6354 23.2839 26 23.3828C26.3906 23.4922 26.763 23.625 27.1172 23.7812C27.4714 23.9375 27.7969 24.1172 28.0938 24.3203C28.5417 24.6536 28.8984 25.0417 29.1641 25.4844C29.4297 25.9271 29.5625 26.4375 29.5625 27.0156C29.5625 27.5156 29.4609 27.9609 29.2578 28.3516C29.0599 28.737 28.7839 29.0625 28.4297 29.3281C28.0755 29.599 27.6536 29.8047 27.1641 29.9453C26.6745 30.0807 26.1406 30.1484 25.5625 30.1484C24.9948 30.1484 24.4323 30.0651 23.875 29.8984C23.3229 29.7266 22.8411 29.4766 22.4297 29.1484C22.0391 28.8255 21.7292 28.4453 21.5 28.0078C21.276 27.5703 21.1641 27.0573 21.1641 26.4688H23.3203C23.3307 26.8125 23.3906 27.1068 23.5 27.3516C23.6094 27.5964 23.763 27.7969 23.9609 27.9531C24.1536 28.1094 24.3854 28.224 24.6562 28.2969C24.9323 28.3698 25.2344 28.4062 25.5625 28.4062C25.8542 28.4062 26.112 28.3724 26.3359 28.3047C26.5651 28.237 26.7578 28.1432 26.9141 28.0234C27.0703 27.9036 27.1901 27.7604 27.2734 27.5938C27.3568 27.4219 27.3984 27.2344 27.3984 27.0312ZM38.6797 18.625L38.6875 26.1641C38.6875 26.7995 38.599 27.3646 38.4219 27.8594C38.25 28.3542 38 28.7708 37.6719 29.1094C37.3385 29.4531 36.9323 29.7135 36.4531 29.8906C35.9792 30.0677 35.4375 30.1562 34.8281 30.1562C34.2552 30.1562 33.737 30.0677 33.2734 29.8906C32.8151 29.7135 32.4219 29.4557 32.0938 29.1172C31.7656 28.7786 31.5104 28.362 31.3281 27.8672C31.151 27.3672 31.0625 26.7995 31.0625 26.1641L31.0703 18.625H33.2656L33.2734 26.1641C33.2786 26.5443 33.3151 26.8776 33.3828 27.1641C33.4557 27.4505 33.5625 27.6875 33.7031 27.875C33.8333 28.0469 33.9922 28.1771 34.1797 28.2656C34.3672 28.349 34.5833 28.3906 34.8281 28.3906C35.0938 28.3906 35.3281 28.3464 35.5312 28.2578C35.7396 28.1641 35.9115 28.026 36.0469 27.8438C36.1927 27.6562 36.3021 27.4219 36.375 27.1406C36.4479 26.8594 36.487 26.5339 36.4922 26.1641L36.5 18.625H38.6797ZM40.6953 30V18.625H44.5156C45.1354 18.625 45.6979 18.6875 46.2031 18.8125C46.7135 18.9375 47.1484 19.1276 47.5078 19.3828C47.8672 19.638 48.1432 19.9609 48.3359 20.3516C48.5339 20.7422 48.6328 21.2031 48.6328 21.7344C48.6276 22.0781 48.5651 22.4036 48.4453 22.7109C48.3307 23.013 48.1589 23.2786 47.9297 23.5078C47.8047 23.6328 47.6615 23.7474 47.5 23.8516C47.3438 23.9557 47.1693 24.0443 46.9766 24.1172V24.125C47.3516 24.2292 47.6484 24.362 47.8672 24.5234C48.0911 24.6849 48.2786 24.8724 48.4297 25.0859C48.5859 25.3151 48.7005 25.5651 48.7734 25.8359C48.8516 26.1016 48.8906 26.3776 48.8906 26.6641C48.8906 27.2109 48.7969 27.6927 48.6094 28.1094C48.4219 28.526 48.1536 28.875 47.8047 29.1562C47.4557 29.4375 47.0312 29.6484 46.5312 29.7891C46.0312 29.9297 45.4688 30 44.8438 30H40.6953ZM42.8984 24.9844V28.2266H44.8516C45.138 28.2266 45.3932 28.1901 45.6172 28.1172C45.8464 28.0443 46.0365 27.9453 46.1875 27.8203C46.3542 27.6797 46.4792 27.5104 46.5625 27.3125C46.651 27.1146 46.6953 26.8932 46.6953 26.6484C46.6953 26.3932 46.6615 26.1641 46.5938 25.9609C46.5312 25.7578 46.4297 25.5859 46.2891 25.4453C46.1484 25.2995 45.9661 25.1875 45.7422 25.1094C45.5182 25.0312 45.2526 24.9896 44.9453 24.9844H42.8984ZM42.8984 23.3984H44.5312C44.8646 23.3932 45.1589 23.3542 45.4141 23.2812C45.6693 23.2031 45.875 23.0885 46.0312 22.9375C46.1615 22.8177 46.2604 22.6719 46.3281 22.5C46.401 22.3281 46.4375 22.1328 46.4375 21.9141C46.4375 21.6849 46.4062 21.4844 46.3438 21.3125C46.2865 21.1406 46.1979 20.9974 46.0781 20.8828C45.9219 20.7214 45.7109 20.6042 45.4453 20.5312C45.1849 20.4583 44.8776 20.4193 44.5234 20.4141H42.8984V23.3984ZM53.0156 18.625L54.0938 22.8984L55.3203 18.625H58.0469V30H56.0312V26.6328L56.125 21.3125L54.6328 26.25H53.5469L52.2109 21.5234L52.3047 26.6328V30H50.2891V18.625H53.0156ZM60.4141 18.625H66.9922V20.3984H64.7734V28.2344H66.9922V30H60.4141V28.2344H62.5781V20.3984H60.4141V18.625ZM77.8984 20.4141H74.3906V30H72.1875V20.4141H68.7266V18.625H77.8984V20.4141ZM94.3516 27.625H90.9375L90.2656 30H87.9531L91.6797 18.625H93.6719L97.3281 30H95.0156L94.3516 27.625ZM91.4766 25.7578H93.8359L92.6719 21.5703L91.4766 25.7578ZM110.312 25.8281V30H108.117V18.625H112.008C112.628 18.625 113.188 18.7161 113.688 18.8984C114.188 19.0755 114.615 19.3229 114.969 19.6406C115.318 19.9635 115.586 20.349 115.773 20.7969C115.966 21.2448 116.062 21.7422 116.062 22.2891C116.062 22.7995 115.966 23.2708 115.773 23.7031C115.586 24.1354 115.318 24.5078 114.969 24.8203C114.615 25.138 114.188 25.3854 113.688 25.5625C113.188 25.7396 112.628 25.8281 112.008 25.8281H110.312ZM110.312 24.0469H112.008C112.32 24.0469 112.591 24 112.82 23.9062C113.049 23.8125 113.242 23.6849 113.398 23.5234C113.549 23.362 113.661 23.1771 113.734 22.9688C113.812 22.7552 113.852 22.5339 113.852 22.3047C113.852 22.0391 113.812 21.7917 113.734 21.5625C113.661 21.3333 113.549 21.1328 113.398 20.9609C113.242 20.7891 113.049 20.6536 112.82 20.5547C112.591 20.4557 112.32 20.4062 112.008 20.4062H110.312V24.0469ZM121.445 25.75H119.781V30H117.586V18.625H121.398C122.029 18.625 122.599 18.7005 123.109 18.8516C123.62 18.9974 124.057 19.2135 124.422 19.5C124.781 19.7865 125.057 20.1432 125.25 20.5703C125.448 20.9974 125.547 21.4922 125.547 22.0547C125.547 22.4609 125.497 22.8281 125.398 23.1562C125.305 23.4792 125.169 23.7682 124.992 24.0234C124.81 24.2839 124.591 24.5104 124.336 24.7031C124.086 24.8958 123.805 25.0625 123.492 25.2031L125.938 29.8984V30H123.586L121.445 25.75ZM119.781 23.9688H121.406C121.745 23.9688 122.042 23.9219 122.297 23.8281C122.557 23.7292 122.768 23.5885 122.93 23.4062C123.065 23.2604 123.167 23.0859 123.234 22.8828C123.307 22.6797 123.344 22.4531 123.344 22.2031C123.344 21.901 123.297 21.6354 123.203 21.4062C123.115 21.1719 122.979 20.9792 122.797 20.8281C122.635 20.6927 122.438 20.5885 122.203 20.5156C121.969 20.4427 121.701 20.4062 121.398 20.4062H119.781V23.9688ZM135.133 25.1484C135.133 25.638 135.089 26.1042 135 26.5469C134.911 26.9844 134.784 27.3906 134.617 27.7656C134.44 28.1406 134.221 28.4844 133.961 28.7969C133.701 29.1094 133.404 29.3698 133.07 29.5781C132.768 29.7604 132.435 29.901 132.07 30C131.711 30.1042 131.323 30.1562 130.906 30.1562C130.464 30.1562 130.055 30.099 129.68 29.9844C129.305 29.8698 128.964 29.7083 128.656 29.5C128.354 29.2812 128.083 29.0182 127.844 28.7109C127.604 28.3984 127.404 28.0469 127.242 27.6562C127.096 27.2969 126.984 26.9062 126.906 26.4844C126.833 26.0625 126.797 25.6172 126.797 25.1484V23.4922C126.797 22.9922 126.839 22.5182 126.922 22.0703C127.01 21.6224 127.138 21.2083 127.305 20.8281C127.466 20.4688 127.661 20.1432 127.891 19.8516C128.125 19.5599 128.393 19.3099 128.695 19.1016C128.992 18.8984 129.326 18.7422 129.695 18.6328C130.065 18.5234 130.466 18.4688 130.898 18.4688C131.336 18.4688 131.745 18.526 132.125 18.6406C132.51 18.75 132.857 18.9089 133.164 19.1172C133.471 19.3151 133.74 19.5547 133.969 19.8359C134.203 20.1172 134.404 20.4271 134.57 20.7656C134.753 21.151 134.891 21.5729 134.984 22.0312C135.083 22.4896 135.133 22.9766 135.133 23.4922V25.1484ZM132.906 23.4766C132.906 23.1849 132.891 22.9089 132.859 22.6484C132.833 22.3828 132.789 22.138 132.727 21.9141C132.648 21.6328 132.544 21.3828 132.414 21.1641C132.284 20.9401 132.13 20.7578 131.953 20.6172C131.812 20.513 131.654 20.4323 131.477 20.375C131.305 20.3177 131.112 20.2891 130.898 20.2891C130.695 20.2891 130.51 20.3151 130.344 20.3672C130.182 20.4193 130.036 20.4948 129.906 20.5938C129.729 20.7396 129.578 20.9219 129.453 21.1406C129.333 21.3594 129.24 21.6146 129.172 21.9062C129.12 22.1302 129.081 22.375 129.055 22.6406C129.034 22.9062 129.023 23.1849 129.023 23.4766V25.1484C129.023 25.4245 129.034 25.6901 129.055 25.9453C129.076 26.2005 129.112 26.4375 129.164 26.6562C129.221 26.9323 129.305 27.1849 129.414 27.4141C129.529 27.638 129.661 27.8203 129.812 27.9609C129.953 28.0859 130.112 28.1823 130.289 28.25C130.471 28.3177 130.677 28.3516 130.906 28.3516C131.125 28.3516 131.326 28.3203 131.508 28.2578C131.69 28.1953 131.852 28.1042 131.992 27.9844C132.169 27.8385 132.318 27.6562 132.438 27.4375C132.562 27.2135 132.661 26.9609 132.734 26.6797C132.792 26.4609 132.833 26.2214 132.859 25.9609C132.891 25.7005 132.906 25.4297 132.906 25.1484V23.4766ZM142.172 18.625H144.367L144.375 26.5078C144.37 27.0495 144.266 27.5443 144.062 27.9922C143.865 28.4349 143.591 28.8177 143.242 29.1406C142.893 29.4635 142.482 29.7135 142.008 29.8906C141.539 30.0677 141.034 30.1562 140.492 30.1562C139.919 30.1562 139.398 30.0833 138.93 29.9375C138.461 29.7917 138.06 29.5729 137.727 29.2812C137.388 28.9948 137.125 28.6328 136.938 28.1953C136.75 27.7578 136.654 27.2448 136.648 26.6562H138.852C138.852 26.9271 138.878 27.1641 138.93 27.3672C138.982 27.5703 139.06 27.7422 139.164 27.8828C139.299 28.0547 139.477 28.1823 139.695 28.2656C139.914 28.349 140.18 28.3906 140.492 28.3906C140.742 28.3906 140.971 28.3438 141.18 28.25C141.388 28.151 141.565 28.0182 141.711 27.8516C141.857 27.6849 141.969 27.487 142.047 27.2578C142.13 27.0234 142.172 26.7734 142.172 26.5078V18.625ZM153.414 25.0156H148.742V28.2266H154.203V30H146.539V18.625H154.18V20.4141H148.742V23.2812H153.414V25.0156ZM163.922 26.4375C163.885 27.0104 163.76 27.526 163.547 27.9844C163.339 28.4427 163.057 28.8333 162.703 29.1562C162.349 29.4792 161.927 29.7292 161.438 29.9062C160.948 30.0781 160.406 30.1641 159.812 30.1641C159.344 30.1641 158.909 30.1042 158.508 29.9844C158.112 29.8594 157.755 29.6823 157.438 29.4531C157.146 29.2396 156.885 28.9818 156.656 28.6797C156.432 28.3776 156.242 28.0443 156.086 27.6797C155.935 27.3151 155.818 26.9141 155.734 26.4766C155.656 26.0391 155.617 25.5755 155.617 25.0859V23.5547C155.617 23.0964 155.654 22.6615 155.727 22.25C155.799 21.8333 155.909 21.4479 156.055 21.0938C156.221 20.6615 156.44 20.276 156.711 19.9375C156.982 19.599 157.289 19.3125 157.633 19.0781C157.94 18.8802 158.276 18.7292 158.641 18.625C159.01 18.5156 159.406 18.4609 159.828 18.4609C160.453 18.4609 161.008 18.5495 161.492 18.7266C161.982 18.9036 162.398 19.1562 162.742 19.4844C163.086 19.8125 163.357 20.2135 163.555 20.6875C163.753 21.1615 163.878 21.6953 163.93 22.2891H161.742C161.721 21.9505 161.669 21.6536 161.586 21.3984C161.508 21.1432 161.393 20.9297 161.242 20.7578C161.086 20.5911 160.891 20.4661 160.656 20.3828C160.427 20.2943 160.151 20.25 159.828 20.25C159.656 20.25 159.495 20.2682 159.344 20.3047C159.198 20.3411 159.062 20.3958 158.938 20.4688C158.724 20.5938 158.542 20.7734 158.391 21.0078C158.245 21.237 158.128 21.5052 158.039 21.8125C157.971 22.0521 157.922 22.3177 157.891 22.6094C157.859 22.8958 157.844 23.2057 157.844 23.5391V25.0859C157.844 25.5391 157.867 25.9453 157.914 26.3047C157.966 26.6589 158.044 26.9688 158.148 27.2344C158.221 27.4167 158.307 27.5781 158.406 27.7188C158.51 27.8594 158.628 27.9766 158.758 28.0703C158.898 28.1745 159.055 28.2526 159.227 28.3047C159.404 28.3516 159.599 28.375 159.812 28.375C160.099 28.375 160.357 28.3385 160.586 28.2656C160.815 28.1927 161.01 28.0781 161.172 27.9219C161.333 27.7656 161.461 27.5651 161.555 27.3203C161.648 27.0755 161.706 26.7812 161.727 26.4375H163.922ZM173.992 20.4141H170.484V30H168.281V20.4141H164.82V18.625H173.992V20.4141ZM190.445 27.625H187.031L186.359 30H184.047L187.773 18.625H189.766L193.422 30H191.109L190.445 27.625ZM187.57 25.7578H189.93L188.766 21.5703L187.57 25.7578ZM196.797 25.8281V30H194.602V18.625H198.492C199.112 18.625 199.672 18.7161 200.172 18.8984C200.672 19.0755 201.099 19.3229 201.453 19.6406C201.802 19.9635 202.07 20.349 202.258 20.7969C202.451 21.2448 202.547 21.7422 202.547 22.2891C202.547 22.7995 202.451 23.2708 202.258 23.7031C202.07 24.1354 201.802 24.5078 201.453 24.8203C201.099 25.138 200.672 25.3854 200.172 25.5625C199.672 25.7396 199.112 25.8281 198.492 25.8281H196.797ZM196.797 24.0469H198.492C198.805 24.0469 199.076 24 199.305 23.9062C199.534 23.8125 199.727 23.6849 199.883 23.5234C200.034 23.362 200.146 23.1771 200.219 22.9688C200.297 22.7552 200.336 22.5339 200.336 22.3047C200.336 22.0391 200.297 21.7917 200.219 21.5625C200.146 21.3333 200.034 21.1328 199.883 20.9609C199.727 20.7891 199.534 20.6536 199.305 20.5547C199.076 20.4557 198.805 20.4062 198.492 20.4062H196.797V24.0469ZM206.406 25.8281V30H204.211V18.625H208.102C208.721 18.625 209.281 18.7161 209.781 18.8984C210.281 19.0755 210.708 19.3229 211.062 19.6406C211.411 19.9635 211.68 20.349 211.867 20.7969C212.06 21.2448 212.156 21.7422 212.156 22.2891C212.156 22.7995 212.06 23.2708 211.867 23.7031C211.68 24.1354 211.411 24.5078 211.062 24.8203C210.708 25.138 210.281 25.3854 209.781 25.5625C209.281 25.7396 208.721 25.8281 208.102 25.8281H206.406ZM206.406 24.0469H208.102C208.414 24.0469 208.685 24 208.914 23.9062C209.143 23.8125 209.336 23.6849 209.492 23.5234C209.643 23.362 209.755 23.1771 209.828 22.9688C209.906 22.7552 209.945 22.5339 209.945 22.3047C209.945 22.0391 209.906 21.7917 209.828 21.5625C209.755 21.3333 209.643 21.1328 209.492 20.9609C209.336 20.7891 209.143 20.6536 208.914 20.5547C208.685 20.4557 208.414 20.4062 208.102 20.4062H206.406V24.0469ZM216.031 28.2266H221.359V30H213.828V18.625H216.031V28.2266ZM223.773 18.625H230.352V20.3984H228.133V28.2344H230.352V30H223.773V28.2344H225.938V20.3984H223.773V18.625ZM240.797 26.4375C240.76 27.0104 240.635 27.526 240.422 27.9844C240.214 28.4427 239.932 28.8333 239.578 29.1562C239.224 29.4792 238.802 29.7292 238.312 29.9062C237.823 30.0781 237.281 30.1641 236.688 30.1641C236.219 30.1641 235.784 30.1042 235.383 29.9844C234.987 29.8594 234.63 29.6823 234.312 29.4531C234.021 29.2396 233.76 28.9818 233.531 28.6797C233.307 28.3776 233.117 28.0443 232.961 27.6797C232.81 27.3151 232.693 26.9141 232.609 26.4766C232.531 26.0391 232.492 25.5755 232.492 25.0859V23.5547C232.492 23.0964 232.529 22.6615 232.602 22.25C232.674 21.8333 232.784 21.4479 232.93 21.0938C233.096 20.6615 233.315 20.276 233.586 19.9375C233.857 19.599 234.164 19.3125 234.508 19.0781C234.815 18.8802 235.151 18.7292 235.516 18.625C235.885 18.5156 236.281 18.4609 236.703 18.4609C237.328 18.4609 237.883 18.5495 238.367 18.7266C238.857 18.9036 239.273 19.1562 239.617 19.4844C239.961 19.8125 240.232 20.2135 240.43 20.6875C240.628 21.1615 240.753 21.6953 240.805 22.2891H238.617C238.596 21.9505 238.544 21.6536 238.461 21.3984C238.383 21.1432 238.268 20.9297 238.117 20.7578C237.961 20.5911 237.766 20.4661 237.531 20.3828C237.302 20.2943 237.026 20.25 236.703 20.25C236.531 20.25 236.37 20.2682 236.219 20.3047C236.073 20.3411 235.938 20.3958 235.812 20.4688C235.599 20.5938 235.417 20.7734 235.266 21.0078C235.12 21.237 235.003 21.5052 234.914 21.8125C234.846 22.0521 234.797 22.3177 234.766 22.6094C234.734 22.8958 234.719 23.2057 234.719 23.5391V25.0859C234.719 25.5391 234.742 25.9453 234.789 26.3047C234.841 26.6589 234.919 26.9688 235.023 27.2344C235.096 27.4167 235.182 27.5781 235.281 27.7188C235.385 27.8594 235.503 27.9766 235.633 28.0703C235.773 28.1745 235.93 28.2526 236.102 28.3047C236.279 28.3516 236.474 28.375 236.688 28.375C236.974 28.375 237.232 28.3385 237.461 28.2656C237.69 28.1927 237.885 28.0781 238.047 27.9219C238.208 27.7656 238.336 27.5651 238.43 27.3203C238.523 27.0755 238.581 26.7812 238.602 26.4375H240.797ZM248.102 27.625H244.688L244.016 30H241.703L245.43 18.625H247.422L251.078 30H248.766L248.102 27.625ZM245.227 25.7578H247.586L246.422 21.5703L245.227 25.7578ZM260.477 20.4141H256.969V30H254.766V20.4141H251.305V18.625H260.477V20.4141ZM262.211 18.625H268.789V20.3984H266.57V28.2344H268.789V30H262.211V28.2344H264.375V20.3984H262.211V18.625ZM279.273 25.1484C279.273 25.638 279.229 26.1042 279.141 26.5469C279.052 26.9844 278.924 27.3906 278.758 27.7656C278.581 28.1406 278.362 28.4844 278.102 28.7969C277.841 29.1094 277.544 29.3698 277.211 29.5781C276.909 29.7604 276.576 29.901 276.211 30C275.852 30.1042 275.464 30.1562 275.047 30.1562C274.604 30.1562 274.195 30.099 273.82 29.9844C273.445 29.8698 273.104 29.7083 272.797 29.5C272.495 29.2812 272.224 29.0182 271.984 28.7109C271.745 28.3984 271.544 28.0469 271.383 27.6562C271.237 27.2969 271.125 26.9062 271.047 26.4844C270.974 26.0625 270.938 25.6172 270.938 25.1484V23.4922C270.938 22.9922 270.979 22.5182 271.062 22.0703C271.151 21.6224 271.279 21.2083 271.445 20.8281C271.607 20.4688 271.802 20.1432 272.031 19.8516C272.266 19.5599 272.534 19.3099 272.836 19.1016C273.133 18.8984 273.466 18.7422 273.836 18.6328C274.206 18.5234 274.607 18.4688 275.039 18.4688C275.477 18.4688 275.885 18.526 276.266 18.6406C276.651 18.75 276.997 18.9089 277.305 19.1172C277.612 19.3151 277.88 19.5547 278.109 19.8359C278.344 20.1172 278.544 20.4271 278.711 20.7656C278.893 21.151 279.031 21.5729 279.125 22.0312C279.224 22.4896 279.273 22.9766 279.273 23.4922V25.1484ZM277.047 23.4766C277.047 23.1849 277.031 22.9089 277 22.6484C276.974 22.3828 276.93 22.138 276.867 21.9141C276.789 21.6328 276.685 21.3828 276.555 21.1641C276.424 20.9401 276.271 20.7578 276.094 20.6172C275.953 20.513 275.794 20.4323 275.617 20.375C275.445 20.3177 275.253 20.2891 275.039 20.2891C274.836 20.2891 274.651 20.3151 274.484 20.3672C274.323 20.4193 274.177 20.4948 274.047 20.5938C273.87 20.7396 273.719 20.9219 273.594 21.1406C273.474 21.3594 273.38 21.6146 273.312 21.9062C273.26 22.1302 273.221 22.375 273.195 22.6406C273.174 22.9062 273.164 23.1849 273.164 23.4766V25.1484C273.164 25.4245 273.174 25.6901 273.195 25.9453C273.216 26.2005 273.253 26.4375 273.305 26.6562C273.362 26.9323 273.445 27.1849 273.555 27.4141C273.669 27.638 273.802 27.8203 273.953 27.9609C274.094 28.0859 274.253 28.1823 274.43 28.25C274.612 28.3177 274.818 28.3516 275.047 28.3516C275.266 28.3516 275.466 28.3203 275.648 28.2578C275.831 28.1953 275.992 28.1042 276.133 27.9844C276.31 27.8385 276.458 27.6562 276.578 27.4375C276.703 27.2135 276.802 26.9609 276.875 26.6797C276.932 26.4609 276.974 26.2214 277 25.9609C277.031 25.7005 277.047 25.4297 277.047 25.1484V23.4766ZM288.445 30H286.258L283.094 22.6641V30H280.883V18.625H283.094L286.234 25.9297L286.242 18.625H288.445V30Z" fill="#0A090E"/>
<path d="M310 32V48H294L310 32Z" fill="#0A090E"/>
<path d="M0 16L1.39876e-06 -1.39876e-06L16 0L0 16Z" fill="#0A090E"/>
</g>
<defs>
<clipPath id="clip0_87_4087">
<rect width="310" height="48" fill="white"/>
</clipPath>
</defs>
</svg>
