<svg width="217" height="48" viewBox="0 0 217 48" fill="none" xmlns="http://www.w3.org/2000/svg">
<path fill-rule="evenodd" clip-rule="evenodd" d="M1.81661 1.05911C7.21206 7.6736 13.1361 15.9834 14.0943 17.3275C14.1454 17.3991 14.1824 17.451 14.2044 17.4817C14.7152 18.1948 15.1369 18.7249 15.4571 19.1275C16.168 20.0212 16.3789 20.2864 15.9548 20.53C15.6126 20.7264 15.2596 20.7912 14.9074 20.7912C14.5091 20.7912 14.0603 20.5974 13.7335 20.2843C13.5025 20.063 11.922 17.7444 9.76975 14.3713C8.12302 11.7904 6.7449 9.64933 6.7073 9.61349C6.62038 9.53057 6.62187 9.53338 9.60186 14.9191C11.473 18.3009 12.753 20.8001 12.753 20.9599C12.753 21.2852 12.6651 21.4561 12.2679 21.9036C11.6058 22.6499 11.3098 23.4882 11.0961 25.2232C10.8566 27.1681 10.183 28.5421 8.31639 30.8934C7.22372 32.27 7.04493 32.5222 6.76922 33.077C6.42195 33.7757 6.32644 34.1669 6.28774 35.0491C6.24684 35.982 6.32651 36.5845 6.60864 37.4762C6.85564 38.257 7.11345 38.7727 7.77254 39.8039C8.34134 40.6935 8.66885 41.3548 8.66885 41.6135C8.66885 41.8194 8.70775 41.8196 9.58914 41.6187C11.6984 41.1374 13.4112 40.2914 14.3744 39.2544C14.9706 38.6125 15.1106 38.2581 15.1151 37.3786C15.1181 36.8032 15.098 36.6829 14.9441 36.3519C14.6934 35.813 14.2372 35.3653 13.2316 34.6709C11.914 33.761 11.3512 33.0286 11.1958 32.0213C11.0682 31.1949 11.2162 30.6117 11.9451 29.0686C12.6995 27.4714 12.8865 26.7908 13.013 25.1806C13.0947 24.1405 13.2078 23.7303 13.5037 23.4011C13.8123 23.0578 14.09 22.9414 14.8537 22.8359C16.0987 22.6642 16.8915 22.3389 17.5431 21.7323C18.1084 21.2062 18.345 20.6992 18.3813 19.9359L18.4088 19.3574L18.0929 18.9854C16.9489 17.6381 1.05048 0 0.98008 0C0.96504 0 1.3415 0.476633 1.81661 1.05911ZM9.31104 36.1046C9.5697 35.6418 9.43227 35.0471 8.9996 34.7564C8.5908 34.4819 7.95576 34.6113 7.95576 34.969C7.95576 35.0782 8.01552 35.1576 8.15025 35.2278C8.37707 35.3457 8.39354 35.4782 8.21507 35.7491C8.03433 36.0236 8.04891 36.2648 8.25622 36.4286C8.59035 36.693 9.06332 36.5476 9.31104 36.1046ZM17.0964 10.873C16.586 10.793 16.5645 10.7837 16.8047 10.7464C17.265 10.6749 18.3518 10.7723 19.1007 10.9522C20.8492 11.372 22.4402 12.4474 24.1384 14.3573L24.5896 14.8647L25.2351 14.7599C27.9542 14.3186 30.7204 14.6693 33.034 15.7489C33.6706 16.0459 34.6741 16.6371 34.7994 16.789C34.8392 16.8375 34.9128 17.1492 34.9623 17.4817C35.1342 18.6324 35.0482 19.5143 34.6997 20.1731C34.5103 20.5315 34.4997 20.6451 34.627 20.9519C34.7287 21.1967 35.0125 21.3779 35.2935 21.3775C35.8684 21.3767 36.4871 20.4379 36.774 19.1317L36.8878 18.6128L37.1135 18.871C38.351 20.2873 39.3232 22.2189 39.4902 23.5937L39.5336 23.9522L39.3257 23.6263C38.9675 23.0656 38.608 22.6838 38.1472 22.376C37.3169 21.821 36.4387 21.6321 34.1136 21.5083C32.0134 21.3966 30.825 21.2154 29.6464 20.8272C27.641 20.1668 26.6303 19.2873 24.2482 16.1307C23.1903 14.7286 22.5364 13.9529 21.8859 13.3282C20.4078 11.9087 18.9555 11.1643 17.0964 10.873ZM35.273 14.0035C35.3259 13.064 35.4521 12.4443 35.7057 11.8784C35.806 11.6543 35.9001 11.471 35.9145 11.471C35.9291 11.471 35.8855 11.6363 35.8175 11.8384C35.6332 12.3876 35.6029 13.1389 35.73 14.0129C35.8911 15.1218 35.9829 15.2819 37.1432 16.4798C37.6875 17.0417 38.3206 17.7503 38.5501 18.0546L38.9675 18.6078L38.5501 18.2124C38.0398 17.729 36.8662 16.7861 36.607 16.6513C36.4331 16.5609 36.4072 16.5624 36.3001 16.6702C36.2014 16.7696 36.1804 16.9188 36.1667 17.6244C36.1453 18.7241 35.9971 19.43 35.6389 20.1358C35.4451 20.5175 35.4145 20.4361 35.5898 20.0052C35.7208 19.6835 35.734 19.542 35.7331 18.4774C35.7311 16.3384 35.4796 15.8242 34.0051 14.9433C33.6319 14.7201 33.0163 14.3983 32.6376 14.228C32.2591 14.0578 31.9583 13.9095 31.9691 13.8984C32.011 13.8564 33.4489 14.2804 34.0276 14.5052C34.8885 14.8397 35.0305 14.8831 35.1351 14.8427C35.2051 14.8156 35.239 14.6095 35.273 14.0035ZM16.5494 12.3613C16.4106 14.0128 17.0517 16.2219 18.0878 17.6627C18.891 18.7797 20.1361 19.6476 21.0553 19.7314C21.6571 19.7863 21.838 19.596 21.5657 19.1944C21.1877 18.6367 20.7228 17.7781 20.5997 17.4105C20.5233 17.1821 20.3572 16.5076 20.2306 15.9115C19.7984 13.8763 19.3736 13.0838 18.3923 12.4818C18.0347 12.2624 17.271 11.9753 16.8282 11.8937L16.5923 11.8503L16.5494 12.3613ZM34.0164 28.3862C29.1742 26.417 27.4687 24.7077 27.4687 21.8236C27.4687 21.3992 27.4833 21.0519 27.5008 21.0519C27.5186 21.0519 27.7058 21.192 27.9171 21.3632C28.899 22.1587 29.9986 22.4984 33.0426 22.9468C34.8336 23.211 35.8416 23.4241 36.7715 23.7357C39.7269 24.7257 41.5555 26.7347 41.9915 29.4714C42.1182 30.2665 42.0439 31.7576 41.8385 32.5435C41.6763 33.1643 41.1813 34.283 41.0501 34.326C41.0137 34.3379 40.9779 34.1971 40.9687 34.0054C40.9189 32.9778 40.4048 31.9774 39.5415 31.228C38.5598 30.3759 37.2409 29.6978 34.0164 28.3862ZM30.3831 28.1695C30.451 28.3741 30.5563 28.8396 30.6169 29.2043C31.0048 31.5358 29.7931 33.4195 27.4363 34.1494C27.1867 34.2265 26.2039 34.4209 25.2522 34.5809C23.3256 34.9049 22.4657 35.1344 21.6019 35.5547C20.9893 35.8528 20.2476 36.2992 20.2917 36.3436C20.3059 36.358 20.4457 36.3242 20.6023 36.2687C21.6917 35.8823 22.904 35.6823 24.7459 35.5855C25.477 35.5473 26.3083 35.4861 26.5936 35.4499C28.2346 35.2411 29.3719 34.7375 30.2564 33.8283C30.7485 33.3223 31.0419 32.8509 31.2784 32.1862C31.4282 31.7646 31.4485 31.608 31.4496 30.861C31.4509 30.0998 31.4327 29.9605 31.2703 29.4923C31.0576 28.8785 30.8068 28.4179 30.4891 28.0577L30.2596 27.7976L30.3831 28.1695ZM32.8367 33.1861C32.1932 31.7891 32.0456 30.4405 32.398 29.1827C32.4358 29.0482 32.4963 28.9381 32.533 28.9381C32.5694 28.9381 32.7211 29.0212 32.8702 29.1224C33.1666 29.324 33.7612 29.6635 35.3452 30.5359C37.3221 31.6244 38.4491 32.4673 39.2155 33.4305C39.8866 34.2738 40.302 35.2343 40.5018 36.4057C40.6152 37.0692 40.5488 38.6658 40.3803 39.3338C39.8488 41.4405 38.6136 43.0951 36.8518 44.0608C36.5938 44.2021 36.362 44.3182 36.3368 44.3189C36.3118 44.3194 36.4059 44.0779 36.5458 43.7821C37.1385 42.5306 37.206 41.3134 36.758 39.9586C36.4835 39.1291 35.9242 38.1168 34.7947 36.4059C33.4816 34.4169 33.1596 33.8875 32.8367 33.1861ZM20.7183 37.7681C18.6818 38.1022 16.446 39.1907 14.6491 40.7232L14.1141 41.1795L14.5843 41.2537C17.0377 41.6405 17.6983 41.9837 19.4001 43.7544C20.3794 44.7732 20.7102 45 21.5225 45.2095C22.7156 45.517 23.8916 44.9518 24.295 43.8768C24.4753 43.3964 24.4512 42.6011 24.2444 42.2017C23.7526 41.2506 22.3196 40.9432 21.6267 41.6398C21.0495 42.2201 21.2177 43.0942 21.9355 43.2445C22.0998 43.2792 22.0952 43.2718 21.8936 43.1797C21.5795 43.0362 21.443 42.8373 21.4412 42.5207C21.4372 41.7785 22.2782 41.3617 23.0605 41.7182C23.6333 41.9794 23.8608 42.3205 23.8608 42.9185C23.8608 43.8394 23.0848 44.5333 22.1818 44.4199C21.6991 44.3592 21.1088 44.0473 20.7922 43.686C19.9957 42.7763 20.306 41.3408 21.418 40.79C22.2646 40.3708 23.39 40.4741 24.2626 41.0512C25.2652 41.7146 25.6916 42.3207 26.5552 44.3102C26.8364 44.9579 27.1982 45.6871 27.3591 45.9306C28.1772 47.1674 29.1573 47.774 30.3379 47.774C30.989 47.774 31.4788 47.6539 32.0951 47.3431C32.553 47.1121 33.2021 46.6731 33.1553 46.6261C33.142 46.6128 32.9521 46.6724 32.7332 46.7586C31.4442 47.2664 30.1338 47.2316 29.3728 46.6688C28.8936 46.3147 28.507 45.6091 28.3084 44.7266C28.2739 44.5738 28.1605 43.8993 28.0561 43.2274C27.7915 41.5246 27.5375 40.7592 26.9451 39.8808C26.3389 38.9822 25.1737 38.2279 23.8709 37.8911C23.0581 37.681 21.596 37.6238 20.7183 37.7681ZM17.866 24.6026C18.0419 23.9465 18.61 23.3208 19.1945 23.1395C19.5662 23.0243 20.3344 23.0978 20.6956 23.2832C21.3956 23.6428 21.9038 24.4615 21.7935 25.0526C21.659 25.7733 20.5019 26.35 19.1709 26.3594C18.491 26.3641 18.2399 26.2719 17.9803 25.9218C17.8196 25.7049 17.7587 25.0029 17.866 24.6026ZM20.5169 23.5402C20.866 23.7555 20.9558 24.0739 20.7505 24.3684C20.6091 24.5714 20.1714 24.7642 19.8516 24.7642C19.371 24.7642 18.8467 24.4195 18.8467 24.1038C18.8467 23.4695 19.8521 23.13 20.5169 23.5402ZM124.849 25.3564C123.763 21.7446 125.554 18.7487 129.375 17.786C130.471 17.5097 135.433 17.6344 136.283 17.9596C136.595 18.0787 136.731 18.5362 136.734 19.4763C136.736 20.2166 136.817 21.1158 136.913 21.4744C137.059 22.0179 136.974 22.1249 136.4 22.1162C135.882 22.1081 135.568 21.804 135.13 20.8842C134.43 19.4151 133.583 18.9478 131.609 18.9423C129.089 18.9351 127.245 20.6318 127.546 22.6818C127.741 24.0158 129.074 25.3285 132.065 27.133C134.911 28.8495 136.572 30.2612 137.234 31.5259C139.004 34.9072 137.493 38.5256 133.549 40.3488C131.525 41.2846 128.133 41.3813 125.748 40.5713L124.221 40.0525V37.6121C124.221 35.4019 124.273 35.1713 124.777 35.1713C125.199 35.1713 125.381 35.4499 125.528 36.3224C125.896 38.4921 127.545 39.8092 129.894 39.8092C132.194 39.8092 133.802 38.5524 134.418 36.2734C134.68 35.3025 134.635 34.9445 134.115 33.8735C133.491 32.5894 132.417 31.7374 128.77 29.6332C126.746 28.4654 125.315 26.9042 124.849 25.3564ZM53.3488 19.2278C52.8511 19.2278 52.657 19.0652 52.657 18.6481C52.657 18.0958 52.8511 18.0683 56.7511 18.0683C60.3709 18.0683 60.8341 18.1228 60.7511 18.5382C60.6991 18.7968 60.199 19.1554 59.6389 19.3354L58.6206 19.6626L58.5337 27.0547C58.4755 31.9871 58.5574 34.8325 58.7794 35.606C59.4398 37.9066 61.4542 39.2296 64.2964 39.2296C66.2751 39.2296 67.4309 38.767 68.8831 37.3932C70.445 35.9163 70.6941 34.513 70.6891 27.2194C70.6844 20.0251 70.5591 19.4313 69.014 19.282C68.3109 19.2139 68.0753 19.0501 68.0753 18.6298C68.0753 18.1057 68.3073 18.0683 71.5662 18.0683C74.8631 18.0683 75.0571 18.1005 75.0571 18.6481C75.0571 19.0052 74.8615 19.2296 74.5479 19.2322C73.2006 19.244 73.1758 19.3722 72.9945 27.261C72.8064 35.4533 72.6307 36.4232 70.9704 38.43C70.4916 39.0089 69.3497 39.8495 68.4331 40.2982C66.9393 41.0292 66.4641 41.1131 63.857 41.1084C61.4538 41.1034 60.6951 40.9874 59.4934 40.4404C57.7393 39.6418 56.5985 38.6084 55.7575 37.0555C55.1704 35.9714 55.1203 35.3848 54.9844 28.0402C54.8287 19.6331 54.7533 19.2278 53.3488 19.2278ZM80.5707 19.2278C79.9056 19.2278 79.7116 19.0968 79.7116 18.6481C79.7116 18.1046 79.8975 18.0698 82.6933 18.0921L85.6753 18.1159L87.102 19.7589C87.8861 20.6624 90.443 23.4891 92.7832 26.0399C95.1237 28.591 97.8106 31.5585 98.7541 32.6347C99.6977 33.7111 100.586 34.5915 100.728 34.5915C100.874 34.5915 100.946 31.5513 100.894 27.6089L100.802 20.6262L99.9862 19.927C99.5373 19.5424 98.8504 19.2278 98.4591 19.2278C97.9387 19.2278 97.7481 19.0701 97.7481 18.6399C97.7481 18.0738 97.8966 18.055 101.748 18.1327C105.023 18.1987 105.748 18.2901 105.748 18.6362C105.748 18.8829 105.343 19.1418 104.776 19.2574C104.241 19.3664 103.652 19.6064 103.466 19.7908C103.228 20.0288 103.106 23.1059 103.047 30.4024L102.963 40.6789H102.12C101.394 40.6789 100.53 39.8621 95.911 34.8088C92.9596 31.5801 89.5147 27.7429 88.2556 26.2818C86.9962 24.8204 85.8679 23.6137 85.7479 23.6005C85.4102 23.5627 85.4919 36.6185 85.8373 37.8578C86.1066 38.8235 86.2918 38.9898 87.4359 39.2949C88.3573 39.5404 88.7299 39.7894 88.7299 40.1593C88.7299 40.6343 88.3786 40.6789 84.6571 40.6789C80.8688 40.6789 80.5844 40.6411 80.5844 40.1355C80.5844 39.7654 80.8585 39.5374 81.4439 39.4207C83.2203 39.0667 83.3382 38.5049 83.4379 29.9167C83.4937 25.1066 83.4118 21.7411 83.2212 21.0364C82.8864 19.7972 82.0521 19.2278 80.5707 19.2278ZM111.074 19.2278C110.451 19.2278 110.257 19.0901 110.257 18.6481C110.257 18.0941 110.451 18.0683 114.621 18.0683C118.79 18.0683 118.984 18.0941 118.984 18.6481C118.984 19.0733 118.79 19.2278 118.257 19.2278C117.857 19.2278 117.263 19.494 116.936 19.8192C116.36 20.3935 116.345 20.679 116.427 29.554C116.507 38.2176 116.541 38.7189 117.076 39.1084C117.387 39.3345 117.943 39.5194 118.313 39.5194C118.79 39.5194 118.984 39.6866 118.984 40.0993C118.984 40.6532 118.79 40.6789 114.621 40.6789C110.55 40.6789 110.257 40.6424 110.257 40.1364C110.257 39.7282 110.543 39.548 111.41 39.4099C113.131 39.1356 113.219 38.574 113.112 28.5527C113.026 20.5274 112.989 20.027 112.456 19.6389C112.145 19.4128 111.524 19.2278 111.074 19.2278ZM141.513 19.2278C141.115 19.2278 140.812 19.0072 140.718 18.6481C140.571 18.0875 140.71 18.0683 144.903 18.0683C149.045 18.0683 149.239 18.0941 149.239 18.6481C149.239 19.0936 149.045 19.2278 148.402 19.2278C146.57 19.2278 146.612 19.5594 149.383 27.1404C150.794 30.9994 152.164 34.6651 152.427 35.2863L152.906 36.416L155.128 30.5033C157.743 23.5433 158.083 22.2562 157.639 20.9868C157.329 20.1021 156.125 19.2278 155.217 19.2278C154.96 19.2278 154.766 18.9785 154.766 18.6481C154.766 18.0932 154.96 18.0683 159.275 18.0683C163.591 18.0683 163.784 18.0932 163.784 18.6481C163.784 19.0606 163.591 19.2278 163.113 19.2278C161.89 19.2278 161.35 19.8778 161.526 21.1405C161.707 22.4403 166.71 36.4104 166.92 36.2014C167.262 35.8614 172.803 20.8225 172.803 20.2363C172.803 19.534 172.309 19.2278 171.179 19.2278C170.669 19.2278 170.475 19.0681 170.475 18.6481C170.475 18.1005 170.669 18.0683 173.966 18.0683C176.927 18.0683 177.457 18.1368 177.457 18.5182C177.457 18.7658 177.095 19.0942 176.651 19.2481C175.654 19.5945 175.403 19.9899 174.152 23.1928C173.603 24.5993 171.884 29.0012 170.332 32.9742C168.78 36.9477 167.443 40.372 167.362 40.5837C167.28 40.7956 166.799 40.9689 166.292 40.9689H165.371L163.282 35.5336C162.132 32.5444 160.774 29.0029 160.265 27.6637C159.39 25.369 159.317 25.2693 158.988 25.9243C158.796 26.307 157.415 29.8548 155.919 33.8085L153.2 40.9972L152.185 40.9106L151.17 40.824L147.299 30.7008C145.136 25.045 143.147 20.2795 142.792 19.9027C142.442 19.5313 141.867 19.2278 141.513 19.2278ZM199.681 19.3508C199.632 19.2407 199.633 18.8449 199.633 18.8449C199.633 18.8449 199.622 18.7022 199.681 18.626C199.741 18.5501 199.762 18.5481 199.976 18.5278L199.978 18.5276C200.764 18.4529 202.34 18.3271 203.655 18.2698C203.775 18.2645 203.909 18.2584 204.055 18.2518L204.057 18.2517L204.059 18.2516L204.06 18.2516C205.508 18.1859 208.098 18.0981 209.878 18.187C213.293 18.3577 215.723 20.0087 216.551 22.7369C217.379 25.465 216.941 28.026 215.812 29.6561C214.684 31.2862 212.786 32.6898 209.632 32.5984C207.029 32.5231 206.332 32.0355 205.775 31.646C205.657 31.5637 205.546 31.4856 205.424 31.417V34.8961C205.452 37.269 205.472 38.4086 205.655 38.8305C205.903 39.3984 206.462 39.7483 207.553 40.0165C207.553 40.0165 208.046 40.1321 208.173 40.2554C208.3 40.3787 208.3 40.6525 208.3 40.6525C208.3 40.6525 208.327 40.9086 208.224 41.0391C208.122 41.1696 207.925 41.1435 207.925 41.1435L203.096 41.1046L200.185 41.0969C200.185 41.0969 199.879 41.1554 199.765 41.0326C199.65 40.9095 199.661 40.6532 199.661 40.6532C199.661 40.6532 199.686 40.3771 199.82 40.2536C199.953 40.1299 200.45 39.9917 200.45 39.9917C201.573 39.6765 202.06 39.343 202.315 38.7148C202.52 38.2084 202.521 37.2692 202.519 29.605C202.517 22.3369 202.506 20.9811 202.34 20.5911C202.093 20.014 201.475 19.861 200.596 19.6433L200.596 19.6432C200.421 19.6 200.237 19.5543 200.043 19.5022C200.043 19.5022 199.73 19.4609 199.681 19.3508ZM213.74 25.2814C213.74 26.4733 213.719 28.3392 212.451 29.5319C211.182 30.7247 208.684 31.0511 206.988 30.719C206.453 30.6144 206.148 30.4531 205.912 30.3287L205.888 30.3163L205.454 30.0877L205.429 25.9002C205.414 23.2765 205.441 21.5671 205.503 21.3227C205.559 19.9392 207.6 19.7671 208.597 19.8184C212.863 19.8184 213.616 23.4126 213.74 25.2814ZM186.286 18.2307C186.286 18.2307 186.077 18.3106 185.761 18.4304L184.622 19.0187L183.802 21.0664C183.351 22.1926 182.526 24.2599 181.969 25.6606C180.953 28.2116 180.283 29.8876 179.577 31.637C179.37 32.1516 178.743 33.7185 178.185 35.1191C177.626 36.5195 177.068 37.8524 176.945 38.081C176.924 38.119 176.902 38.16 176.879 38.2032C176.567 38.79 176.025 39.8092 175.067 39.9634C175.067 39.9634 174.54 40.0151 174.345 40.2077C174.15 40.4006 174.169 40.558 174.169 40.558V40.8008C174.169 40.8008 174.187 40.9185 174.297 40.977C174.408 41.0357 174.557 41.0391 174.557 41.0391L178.061 40.9993H181.682C181.682 40.9993 181.938 41.0292 182.037 40.9473C182.136 40.8654 182.163 40.7439 182.163 40.7439V40.4883C182.163 40.4883 182.113 40.2111 181.969 40.1029C181.826 39.9949 181.288 39.9208 181.288 39.9208C179.839 39.7303 179.589 38.6339 179.768 37.6479C179.856 37.1635 180.439 35.3716 181.095 33.5675L181.322 32.944L185.116 32.915C187.203 32.899 189.004 32.9098 189.12 32.9391C189.284 32.9807 189.515 33.449 190.192 35.1166C191.218 37.6434 191.3 37.9512 191.073 38.4239C191.059 38.4527 191.044 38.4844 191.028 38.5187C190.815 38.9758 190.401 39.8642 189.359 39.9546C189.359 39.9546 188.806 39.9737 188.668 40.1391C188.53 40.3047 188.56 40.495 188.56 40.495V40.748C188.56 40.748 188.597 40.8962 188.668 40.9549C188.739 41.0137 188.859 40.9988 188.859 40.9988L192.303 40.9741L197.145 40.9739C197.145 40.9739 197.334 40.9941 197.386 40.9212C197.438 40.8481 197.449 40.7621 197.449 40.7621V40.4262C197.449 40.4262 197.427 40.2476 197.334 40.149C197.241 40.0507 196.613 39.9467 196.613 39.9467C195.811 39.8173 195.412 39.1554 195.115 38.6624C195.039 38.5366 194.969 38.4219 194.902 38.3299C194.764 38.142 194.272 37.1124 193.886 36.1222C193.501 35.132 192.631 32.895 191.953 31.1515C191.276 29.4079 190.33 26.9757 189.852 25.7467C189.374 24.5176 188.465 22.1789 187.833 20.5497C187.729 20.2823 187.636 20.0421 187.553 19.8271L187.552 19.8261C187.128 18.7319 186.957 18.2904 186.91 18.2307C186.758 18.0366 186.286 18.2307 186.286 18.2307ZM186.06 24.8886C185.907 24.5171 185.638 23.8507 185.463 23.4076C185.143 22.6024 185.022 22.4169 184.923 22.5833C184.894 22.6318 184.693 23.1822 184.476 23.8063C183.072 27.8473 182.436 29.6669 182.308 30.0098C182.228 30.2254 182.163 30.4474 182.163 30.5035C182.163 30.5678 183.305 30.6054 185.262 30.6054C186.966 30.6054 188.36 30.5842 188.36 30.5584C188.36 30.5325 188.208 30.1468 188.022 29.7009C187.837 29.2549 187.382 28.1419 187.011 27.2272C186.641 26.3126 186.213 25.2603 186.06 24.8886Z" fill="#FF007A"/>
</svg>
