<svg width="389" height="98" viewBox="0 0 389 98" fill="none" xmlns="http://www.w3.org/2000/svg">
<rect width="388.5" height="98" transform="translate(0.5)" fill="#19181C"/>
<path fill-rule="evenodd" clip-rule="evenodd" d="M20.333 3.68486C28.9257 14.2073 38.3603 27.4268 39.8863 29.5649C39.9677 29.6789 40.0266 29.7614 40.0617 29.8103C40.8751 30.9448 41.5467 31.7881 42.0567 32.4285C43.1888 33.8501 43.5248 34.2721 42.8493 34.6596C42.3043 34.9721 41.7422 35.0751 41.1813 35.0751C40.5469 35.0751 39.8321 34.7668 39.3117 34.2687C38.9438 33.9167 36.4267 30.2282 32.9991 24.8622C30.3765 20.7564 28.1817 17.3504 28.1218 17.2934C27.9834 17.1615 27.9858 17.1659 32.7317 25.7336C35.7117 31.1135 37.7501 35.0892 37.7501 35.3436C37.7501 35.8609 37.6102 36.1329 36.9776 36.8448C35.9231 38.0319 35.4517 39.3656 35.1114 42.1256C34.73 45.2196 33.6573 47.4055 30.6844 51.1459C28.9443 53.3358 28.6595 53.737 28.2204 54.6197C27.6674 55.7311 27.5153 56.3535 27.4536 57.757C27.3885 59.241 27.5154 60.1995 27.9647 61.618C28.3581 62.8601 28.7687 63.6805 29.8183 65.3209C30.7242 66.7361 31.2458 67.7881 31.2458 68.1997C31.2458 68.5273 31.3077 68.5276 32.7114 68.208C36.0707 67.4423 38.7983 66.0965 40.3324 64.4468C41.2819 63.4256 41.5048 62.8619 41.512 61.4627C41.5168 60.5474 41.4848 60.3559 41.2397 59.8294C40.8405 58.9722 40.1139 58.2599 38.5124 57.1553C36.4139 55.7078 35.5177 54.5427 35.2701 52.9403C35.067 51.6256 35.3026 50.6978 36.4635 48.2431C37.665 45.7021 37.9628 44.6193 38.1642 42.0579C38.2943 40.4032 38.4745 39.7507 38.9457 39.227C39.4371 38.6808 39.8795 38.4958 41.0957 38.3279C43.0785 38.0548 44.3411 37.5372 45.3789 36.5723C46.2792 35.7353 46.6559 34.9287 46.7137 33.7146L46.7576 32.7943L46.2545 32.2025C44.4326 30.0591 19.1128 2 19.0007 2C18.9767 2 19.5763 2.75824 20.333 3.68486ZM32.2685 59.4361C32.6805 58.6998 32.4616 57.7538 31.7725 57.2913C31.1215 56.8546 30.1101 57.0604 30.1101 57.6296C30.1101 57.8032 30.2053 57.9295 30.4199 58.0412C30.7811 58.2287 30.8073 58.4396 30.5231 58.8705C30.2352 59.3072 30.2585 59.6909 30.5886 59.9515C31.1208 60.3721 31.874 60.1408 32.2685 59.4361ZM44.6674 19.297C43.8546 19.1698 43.8203 19.1549 44.2028 19.0956C44.9359 18.9818 46.6667 19.1369 47.8595 19.423C50.6441 20.0908 53.1779 21.8016 55.8825 24.84L56.601 25.6472L57.629 25.4804C61.9595 24.7783 66.3649 25.3363 70.0496 27.0537C71.0633 27.5262 72.6615 28.4667 72.8611 28.7084C72.9245 28.7854 73.0417 29.2813 73.1205 29.8103C73.3943 31.6408 73.2574 33.0439 72.7024 34.0918C72.4006 34.662 72.3838 34.8428 72.5866 35.3308C72.7486 35.7202 73.2004 36.0085 73.648 36.0078C74.5635 36.0066 75.549 34.5131 76.0058 32.4351L76.1871 31.6097L76.5466 32.0204C78.5174 34.2735 80.0657 37.3463 80.3316 39.5334L80.4008 40.1036L80.0697 39.5853C79.4992 38.6934 78.9266 38.0859 78.1927 37.5962C76.8705 36.7133 75.4719 36.4128 71.7689 36.2159C68.4242 36.0381 66.5315 35.7499 64.6545 35.1323C61.4607 34.0818 59.8511 32.6827 56.0574 27.6611C54.3725 25.4306 53.3311 24.1966 52.2952 23.2028C49.9412 20.9447 47.6282 19.7604 44.6674 19.297ZM73.6154 24.2771C73.6996 22.7825 73.9006 21.7966 74.3045 20.8964C74.4643 20.54 74.6141 20.2483 74.637 20.2483C74.6603 20.2483 74.5908 20.5114 74.4825 20.8328C74.1891 21.7065 74.1407 22.9016 74.3432 24.292C74.5997 26.0562 74.7459 26.3107 76.5939 28.2164C77.4607 29.1103 78.469 30.2376 78.8345 30.7216L79.4992 31.6017L78.8345 30.9728C78.0218 30.2036 76.1527 28.7036 75.7399 28.4892C75.4629 28.3454 75.4217 28.3479 75.2512 28.5194C75.0939 28.6774 75.0605 28.9148 75.0387 30.0373C75.0046 31.7868 74.7685 32.9097 74.198 34.0325C73.8895 34.6397 73.8408 34.5101 74.1199 33.8247C74.3285 33.3129 74.3496 33.0879 74.3482 31.3943C74.3449 27.9915 73.9443 27.1735 71.5962 25.7721C71.0017 25.4171 70.0213 24.9051 69.4182 24.6342C68.8155 24.3634 68.3364 24.1275 68.3536 24.1099C68.4203 24.0431 70.7104 24.7175 71.632 25.0752C73.003 25.6073 73.2291 25.6763 73.3957 25.6121C73.5072 25.5691 73.5613 25.2411 73.6154 24.2771ZM43.7963 21.6647C43.5752 24.2918 44.5962 27.8062 46.2463 30.0983C47.5255 31.8751 49.5084 33.2559 50.9723 33.3892C51.9308 33.4765 52.2189 33.1738 51.7852 32.5349C51.1832 31.6477 50.4428 30.2818 50.2468 29.697C50.1251 29.3337 49.8606 28.2606 49.659 27.3123C48.9706 24.0748 48.2941 22.814 46.7313 21.8564C46.1618 21.5074 44.9456 21.0506 44.2402 20.9208L43.8646 20.8517L43.7963 21.6647ZM71.6141 47.1575C63.9024 44.0248 61.1862 41.3056 61.1862 36.7174C61.1862 36.0423 61.2095 35.4898 61.2375 35.4898C61.2658 35.4898 61.5639 35.7127 61.9004 35.985C63.4642 37.2505 65.2153 37.791 70.0632 38.5044C72.9156 38.9246 74.5209 39.2635 76.0019 39.7593C80.7086 41.3342 83.6208 44.5302 84.3152 48.8838C84.517 50.1487 84.3987 52.5207 84.0716 53.771C83.8132 54.7586 83.0249 56.5382 82.816 56.6066C82.7579 56.6255 82.7009 56.4015 82.6862 56.0965C82.607 54.4618 81.7883 52.8705 80.4133 51.6782C78.8499 50.3227 76.7494 49.2439 71.6141 47.1575ZM65.8277 46.8128C65.9359 47.1381 66.1036 47.8787 66.2 48.4589C66.8178 52.1678 64.8882 55.1645 61.1346 56.3256C60.7372 56.4484 59.172 56.7576 57.6563 57.0121C54.588 57.5275 53.2186 57.8926 51.8429 58.5613C50.8672 59.0355 49.686 59.7457 49.7562 59.8162C49.7788 59.8391 50.0015 59.7854 50.251 59.697C51.9859 59.0824 53.9166 58.7642 56.85 58.6103C58.0143 58.5495 59.3383 58.4521 59.7927 58.3945C62.406 58.0623 64.2174 57.2612 65.626 55.8148C66.4097 55.0098 66.8769 54.26 67.2535 53.2026C67.4922 52.5318 67.5244 52.2827 67.5262 51.0944C67.5284 49.8835 67.4993 49.6619 67.2406 48.9171C66.902 47.9406 66.5025 47.2079 65.9965 46.6349L65.631 46.2211L65.8277 46.8128ZM69.7353 54.7933C68.7105 52.5709 68.4754 50.4254 69.0366 48.4245C69.0968 48.2105 69.1932 48.0355 69.2516 48.0355C69.3096 48.0355 69.5512 48.1675 69.7887 48.3286C70.2607 48.6493 71.2077 49.1894 73.7304 50.5772C76.8787 52.3089 78.6736 53.6497 79.8941 55.182C80.963 56.5235 81.6245 58.0516 81.9427 59.915C82.1233 60.9705 82.0176 63.5104 81.7492 64.5731C80.9028 67.9245 78.9356 70.5567 76.1298 72.093C75.7188 72.3178 75.3497 72.5025 75.3096 72.5036C75.2698 72.5043 75.4196 72.1202 75.6425 71.6495C76.5863 69.6587 76.6938 67.7223 75.9804 65.5671C75.5432 64.2474 74.6524 62.6371 72.8536 59.9153C70.7623 56.7512 70.2496 55.909 69.7353 54.7933ZM50.4356 62.0823C47.1923 62.6138 43.6316 64.3455 40.7699 66.7834L39.9179 67.5093L40.6667 67.6274C44.5739 68.2427 45.6261 68.7885 48.3363 71.6055C49.896 73.2262 50.4227 73.587 51.7164 73.9203C53.6165 74.4096 55.4894 73.5104 56.1319 71.8002C56.419 71.036 56.3806 69.7707 56.0513 69.1354C55.268 67.6224 52.9859 67.1334 51.8823 68.2416C50.9631 69.1647 51.2309 70.5553 52.3742 70.7944C52.6359 70.8495 52.6284 70.8377 52.3075 70.6913C51.8071 70.463 51.5898 70.1465 51.587 69.6429C51.5806 68.4621 52.9199 67.7992 54.1658 68.3662C55.0781 68.7817 55.4403 69.3244 55.4403 70.2758C55.4403 71.7408 54.2046 72.8447 52.7664 72.6643C51.9976 72.5676 51.0575 72.0715 50.5534 71.4967C49.2849 70.0495 49.779 67.7659 51.5501 66.8897C52.8983 66.2229 54.6905 66.3872 56.0803 67.3053C57.6771 68.3605 58.3561 69.3247 59.7314 72.4896C60.1793 73.5201 60.7555 74.6802 61.0117 75.0674C62.3146 77.035 63.8755 78 65.7557 78C66.7927 78 67.5728 77.8089 68.5543 77.3146C69.2835 76.947 70.3173 76.2486 70.2427 76.1738C70.2216 76.1527 69.9192 76.2475 69.5705 76.3846C67.5176 77.1925 65.4307 77.137 64.2188 76.2418C63.4556 75.6784 62.8399 74.556 62.5235 73.1521C62.4687 72.9091 62.2881 71.836 62.1218 70.7672C61.7004 68.0584 61.2959 66.8407 60.3524 65.4433C59.387 64.0137 57.5312 62.8139 55.4565 62.2781C54.162 61.9437 51.8335 61.8528 50.4356 62.0823ZM45.8931 41.1384C46.1732 40.0947 47.0781 39.0993 48.0089 38.8108C48.6008 38.6275 49.8243 38.7445 50.3995 39.0395C51.5143 39.6115 52.3237 40.914 52.148 41.8543C51.9338 43.0008 50.091 43.9181 47.9712 43.9332C46.8885 43.9407 46.4886 43.7939 46.0752 43.237C45.8192 42.8919 45.7223 41.7752 45.8931 41.1384ZM50.1149 39.4482C50.6708 39.7908 50.8138 40.2973 50.487 40.7658C50.2618 41.0887 49.5647 41.3954 49.0553 41.3954C48.2899 41.3954 47.455 40.8471 47.455 40.3449C47.455 39.3359 49.0561 38.7957 50.1149 39.4482ZM216.274 42.3375C214.545 36.5917 217.397 31.8258 223.482 30.2943C225.227 29.8548 233.129 30.0531 234.483 30.5705C234.981 30.7601 235.197 31.4878 235.202 32.9833C235.205 34.1611 235.333 35.5915 235.487 36.162C235.72 37.0266 235.584 37.1968 234.67 37.1829C233.844 37.17 233.344 36.6863 232.647 35.2231C231.533 32.886 230.183 32.1426 227.04 32.1339C223.026 32.1224 220.09 34.8215 220.568 38.0827C220.879 40.2049 223.002 42.2931 227.766 45.1638C232.298 47.8944 234.944 50.1401 235.998 52.1521C238.816 57.5311 236.41 63.2874 230.13 66.1878C226.906 67.6764 221.504 67.8304 217.705 66.5418L215.273 65.7164V61.8342C215.273 58.3182 215.357 57.9513 216.159 57.9513C216.83 57.9513 217.12 58.3945 217.355 59.7825C217.942 63.2341 220.568 65.3295 224.308 65.3295C227.971 65.3295 230.532 63.33 231.513 59.7045C231.931 58.16 231.859 57.5905 231.03 55.8868C230.037 53.844 228.327 52.4885 222.518 49.1411C219.294 47.2834 217.015 44.7997 216.274 42.3375ZM102.403 32.5881C101.61 32.5881 101.301 32.3294 101.301 31.6658C101.301 30.7873 101.61 30.7435 107.821 30.7435C113.586 30.7435 114.324 30.8302 114.192 31.491C114.109 31.9023 113.312 32.4728 112.42 32.7592L110.799 33.2798L110.66 45.0392C110.567 52.8858 110.698 57.4123 111.052 58.6429C112.103 62.3028 115.311 64.4074 119.838 64.4074C122.989 64.4074 124.83 63.6715 127.143 61.486C129.63 59.1365 130.027 56.904 130.019 45.3012C130.011 33.8563 129.812 32.9118 127.351 32.6743C126.231 32.5659 125.856 32.3054 125.856 31.6367C125.856 30.8029 126.226 30.7435 131.416 30.7435C136.666 30.7435 136.975 30.7947 136.975 31.6658C136.975 32.2339 136.664 32.5908 136.164 32.595C134.019 32.6139 133.979 32.8178 133.69 45.3674C133.391 58.3998 133.111 59.9429 130.467 63.1353C129.704 64.0563 127.886 65.3935 126.426 66.1072C124.047 67.2702 123.29 67.4037 119.138 67.3962C115.311 67.3883 114.102 67.2036 112.189 66.3335C109.395 65.0632 107.578 63.4192 106.239 60.9487C105.304 59.2242 105.224 58.291 105.008 46.6069C104.76 33.2328 104.64 32.5881 102.403 32.5881ZM145.756 32.5881C144.697 32.5881 144.388 32.3796 144.388 31.6658C144.388 30.8011 144.684 30.7458 149.137 30.7813L153.886 30.8191L156.158 33.4329C157.407 34.8703 161.479 39.367 165.206 43.4249C168.933 47.4832 173.212 52.204 174.715 53.916C176.218 55.6283 177.632 57.0289 177.858 57.0289C178.09 57.0289 178.206 52.1925 178.123 45.9208L177.977 34.8127L176.677 33.7004C175.962 33.0884 174.868 32.5881 174.245 32.5881C173.416 32.5881 173.113 32.3372 173.113 31.6528C173.113 30.7522 173.349 30.7223 179.483 30.8458C184.698 30.951 185.853 31.0963 185.853 31.6469C185.853 32.0393 185.208 32.4512 184.305 32.6351C183.453 32.8085 182.515 33.1904 182.22 33.4836C181.839 33.8622 181.645 38.7574 181.551 50.3649L181.418 66.7129H180.076C178.92 66.7129 177.544 65.4136 170.187 57.3747C165.487 52.2383 160 46.1341 157.995 43.8097C155.989 41.4849 154.192 39.5653 154.001 39.5442C153.464 39.484 153.594 60.2536 154.144 62.2251C154.573 63.7613 154.868 64.0259 156.69 64.5112C158.157 64.9017 158.75 65.298 158.75 65.8864C158.75 66.642 158.191 66.7129 152.264 66.7129C146.231 66.7129 145.778 66.6527 145.778 65.8485C145.778 65.2597 146.214 64.8971 147.147 64.7113C149.976 64.1483 150.164 63.2545 150.322 49.5921C150.411 41.9402 150.281 36.5863 149.977 35.4652C149.444 33.4938 148.115 32.5881 145.756 32.5881ZM194.336 32.5881C193.344 32.5881 193.035 32.369 193.035 31.6658C193.035 30.7845 193.344 30.7435 199.984 30.7435C206.624 30.7435 206.934 30.7845 206.934 31.6658C206.934 32.3423 206.624 32.5881 205.775 32.5881C205.138 32.5881 204.192 33.0115 203.672 33.5289C202.754 34.4424 202.73 34.8966 202.861 49.0151C202.988 62.7974 203.043 63.5949 203.895 64.2145C204.39 64.5742 205.275 64.8684 205.864 64.8684C206.624 64.8684 206.934 65.1344 206.934 65.7908C206.934 66.6721 206.624 66.7129 199.984 66.7129C193.502 66.7129 193.035 66.6549 193.035 65.8499C193.035 65.2006 193.489 64.9139 194.87 64.6941C197.612 64.2578 197.752 63.3644 197.581 47.4223C197.444 34.6555 197.386 33.8594 196.537 33.242C196.042 32.8823 195.052 32.5881 194.336 32.5881ZM242.813 32.5881C242.179 32.5881 241.697 32.2371 241.547 31.6658C241.313 30.7739 241.533 30.7435 248.211 30.7435C254.808 30.7435 255.117 30.7845 255.117 31.6658C255.117 32.3746 254.808 32.5881 253.783 32.5881C250.867 32.5881 250.932 33.1156 255.347 45.1756C257.593 51.3145 259.775 57.146 260.194 58.1342L260.956 59.9314L264.495 50.5253C268.661 39.4533 269.202 37.4057 268.494 35.3863C268.001 33.9789 266.084 32.5881 264.638 32.5881C264.229 32.5881 263.92 32.1915 263.92 31.6658C263.92 30.7831 264.229 30.7435 271.101 30.7435C277.973 30.7435 278.282 30.7831 278.282 31.6658C278.282 32.322 277.973 32.5881 277.212 32.5881C275.264 32.5881 274.405 33.622 274.685 35.6308C274.973 37.6986 282.942 59.9225 283.276 59.59C283.82 59.0491 292.644 35.1249 292.644 34.1924C292.644 33.0751 291.859 32.5881 290.058 32.5881C289.247 32.5881 288.938 32.334 288.938 31.6658C288.938 30.7947 289.247 30.7435 294.498 30.7435C299.213 30.7435 300.057 30.8524 300.057 31.4592C300.057 31.853 299.479 32.3755 298.773 32.6203C297.185 33.1714 296.786 33.8004 294.794 38.8956C293.919 41.133 291.181 48.1357 288.709 54.4561C286.237 60.7772 284.108 66.2247 283.979 66.5615C283.849 66.8986 283.082 67.1743 282.275 67.1743H280.809L277.481 58.5276C275.651 53.7724 273.488 48.1385 272.676 46.0081C271.284 42.3575 271.167 42.199 270.643 43.2409C270.337 43.8498 268.139 49.4937 265.756 55.7833L261.425 67.2194L259.809 67.0815L258.192 66.9437L252.027 50.8395C248.583 41.8421 245.416 34.2611 244.849 33.6616C244.292 33.0709 243.376 32.5881 242.813 32.5881ZM335.45 32.7836C335.373 32.6085 335.373 31.9789 335.373 31.9789C335.373 31.9789 335.356 31.7519 335.451 31.6307C335.546 31.51 335.58 31.5068 335.921 31.4744L335.924 31.4741C337.175 31.3553 339.684 31.1552 341.779 31.064C341.971 31.0556 342.184 31.0459 342.416 31.0354L342.42 31.0352L342.423 31.0351L342.425 31.035C344.73 30.9305 348.855 30.7908 351.69 30.9323C357.13 31.2038 360.999 33.8302 362.317 38.1704C363.635 42.5104 362.938 46.5844 361.141 49.1776C359.344 51.7709 356.322 54.0037 351.299 53.8584C347.152 53.7384 346.042 52.9628 345.156 52.3432C344.968 52.2122 344.791 52.088 344.597 51.9788V57.5136C344.641 61.2884 344.672 63.1013 344.965 63.7724C345.359 64.6759 346.251 65.2325 347.987 65.6591C347.987 65.6591 348.773 65.8431 348.975 66.0392C349.178 66.2354 349.178 66.671 349.178 66.671C349.178 66.671 349.219 67.0783 349.057 67.2859C348.894 67.4935 348.579 67.452 348.579 67.452L340.89 67.3901L336.253 67.3779C336.253 67.3779 335.766 67.471 335.584 67.2756C335.402 67.0798 335.419 66.6721 335.419 66.6721C335.419 66.6721 335.459 66.2329 335.672 66.0364C335.884 65.8395 336.676 65.6197 336.676 65.6197C338.464 65.1183 339.239 64.5878 339.645 63.5885C339.971 62.7827 339.973 61.2887 339.97 49.0964C339.967 37.534 339.95 35.3772 339.684 34.7569C339.292 33.8386 338.308 33.5954 336.908 33.249L336.907 33.2488C336.63 33.1802 336.335 33.1074 336.027 33.0246C336.027 33.0246 335.528 32.9588 335.45 32.7836ZM357.841 42.2183C357.841 44.1143 357.808 47.0826 355.787 48.9801C353.767 50.8775 349.788 51.3968 347.087 50.8685C346.236 50.7021 345.749 50.4454 345.374 50.2475L345.336 50.2278L344.645 49.8642L344.605 43.2026C344.58 39.0287 344.624 36.3094 344.722 35.9206C344.812 33.7198 348.062 33.446 349.65 33.5275C356.444 33.5275 357.643 39.2453 357.841 42.2183ZM314.117 31.0018C314.117 31.0018 313.785 31.129 313.282 31.3195L311.468 32.2554L310.162 35.5129C309.444 37.3044 308.129 40.5933 307.242 42.8214C305.625 46.8797 304.557 49.5459 303.433 52.3289C303.103 53.1475 302.105 55.6402 301.216 57.8683C300.327 60.0961 299.438 62.2165 299.241 62.5802C299.208 62.6406 299.173 62.7058 299.137 62.7745C298.64 63.708 297.776 65.3295 296.25 65.5746C296.25 65.5746 295.412 65.657 295.101 65.9634C294.79 66.2701 294.82 66.5207 294.82 66.5207V66.9069C294.82 66.9069 294.849 67.0941 295.025 67.1871C295.201 67.2806 295.439 67.2859 295.439 67.2859L301.019 67.2226H306.786C306.786 67.2226 307.193 67.2702 307.351 67.1399C307.508 67.0096 307.551 66.8163 307.551 66.8163V66.4097C307.551 66.4097 307.471 65.9687 307.243 65.7966C307.014 65.6248 306.158 65.507 306.158 65.507C303.85 65.2038 303.452 63.4596 303.737 61.8911C303.877 61.1205 304.805 58.2699 305.85 55.4L306.211 54.4081L312.254 54.362C315.578 54.3366 318.447 54.3537 318.631 54.4003C318.893 54.4665 319.26 55.2113 320.338 57.8644C321.972 61.884 322.102 62.3736 321.741 63.1256C321.719 63.1715 321.695 63.2219 321.67 63.2763C321.331 64.0037 320.672 65.4168 319.011 65.5607C319.011 65.5607 318.13 65.5911 317.911 65.8542C317.692 66.1176 317.739 66.4204 317.739 66.4204V66.8228C317.739 66.8228 317.798 67.0586 317.911 67.1521C318.024 67.2455 318.216 67.2219 318.216 67.2219L323.701 67.1825L331.411 67.1821C331.411 67.1821 331.713 67.2143 331.796 67.0984C331.878 66.982 331.895 66.8453 331.895 66.8453V66.3109C331.895 66.3109 331.861 66.0267 331.713 65.8699C331.565 65.7135 330.565 65.5482 330.565 65.5482C329.288 65.3423 328.652 64.2893 328.178 63.5051C328.057 63.305 327.947 63.1224 327.839 62.976C327.62 62.6772 326.836 61.0392 326.222 59.464C325.608 57.8887 324.222 54.3301 323.143 51.5565C322.064 48.7828 320.558 44.9136 319.797 42.9585C319.035 41.0031 317.588 37.2827 316.581 34.6909C316.416 34.2655 316.267 33.8834 316.135 33.5413L316.134 33.5398C315.459 31.7992 315.187 31.0968 315.112 31.0018C314.869 30.6931 314.117 31.0018 314.117 31.0018ZM313.758 41.5933C313.515 41.0024 313.086 39.9422 312.806 39.2374C312.297 37.9564 312.104 37.6613 311.947 37.9259C311.901 38.0033 311.58 38.8788 311.235 39.8717C308.999 46.3002 307.986 49.1948 307.783 49.7403C307.656 50.0832 307.551 50.4365 307.551 50.5256C307.551 50.628 309.37 50.6878 312.486 50.6878C315.2 50.6878 317.421 50.6541 317.421 50.613C317.421 50.5718 317.179 49.9583 316.883 49.2489C316.587 48.5394 315.862 46.7687 315.273 45.3137C314.684 43.8587 314.002 42.1847 313.758 41.5933Z" fill="#FF007A"/>
</svg>
